<svg width="3823" height="512" viewBox="0 0 3823 512" fill="none" xmlns="http://www.w3.org/2000/svg">
<path d="M3593.95 426.215V83.2832H3653.21V232.042L3642.04 237.603C3645.28 226.48 3651.59 216.44 3660.98 207.48C3670.38 198.212 3681.55 190.797 3694.5 185.236C3707.46 179.675 3720.73 176.894 3734.34 176.894C3753.77 176.894 3769.96 180.602 3782.92 188.016C3796.19 195.431 3806.07 206.553 3812.55 221.383C3819.35 236.212 3822.75 254.749 3822.75 276.993V426.215H3763V281.164C3763 268.806 3761.22 258.611 3757.65 250.578C3754.09 242.237 3748.59 236.212 3741.14 232.505C3733.69 228.489 3724.62 226.635 3713.93 226.944C3705.19 226.944 3697.09 228.334 3689.64 231.115C3682.52 233.586 3676.2 237.294 3670.7 242.237C3665.52 246.871 3661.31 252.278 3658.07 258.457C3655.15 264.636 3653.7 271.432 3653.7 278.847V426.215H3624.06C3618.23 426.215 3612.73 426.215 3607.55 426.215C3602.69 426.215 3598.16 426.215 3593.95 426.215Z" fill="#151515" fill-opacity="0.75"/>
<path d="M3432.82 426.216V119.895H3492.58V426.216H3432.82ZM3382.3 234.823V181.993H3548.44V234.823H3382.3Z" fill="#151515" fill-opacity="0.75"/>
<path d="M3193.74 430.851C3175.28 430.851 3159.25 426.989 3145.65 419.265C3132.05 411.232 3121.68 399.956 3114.56 385.435C3107.43 370.606 3103.87 352.996 3103.87 332.605V181.993H3163.62V320.556C3163.62 333.532 3165.73 344.654 3169.94 353.923C3174.15 362.882 3180.3 369.833 3188.4 374.777C3196.49 379.72 3206.21 382.191 3217.54 382.191C3225.96 382.191 3233.58 380.956 3240.38 378.484C3247.5 375.703 3253.65 371.996 3258.84 367.362C3264.02 362.419 3268.07 356.703 3270.98 350.215C3273.9 343.418 3275.35 336.158 3275.35 328.434V181.993H3335.1V426.216H3276.81L3275.84 375.24L3286.53 369.679C3282.64 381.419 3276 391.923 3266.61 401.192C3257.54 410.151 3246.69 417.411 3234.06 422.972C3221.43 428.225 3207.99 430.851 3193.74 430.851Z" fill="#151515" fill-opacity="0.75"/>
<path d="M2743.19 426.215L2875.8 101.82H2935.07L3066.72 426.215H3001.14L2928.27 241.774C2926.65 238.066 2924.38 232.196 2921.47 224.164C2918.88 216.131 2915.96 207.48 2912.72 198.212C2909.49 188.635 2906.57 179.83 2903.98 171.797C2901.39 163.455 2899.45 157.431 2898.15 153.724L2910.3 153.26C2908.35 159.439 2906.09 166.39 2903.49 174.114C2900.9 181.838 2898.15 189.87 2895.24 198.212C2892.32 206.554 2889.41 214.586 2886.49 222.31C2883.9 230.034 2881.47 236.985 2879.21 243.164L2806.34 426.215H2743.19ZM2803.42 352.068L2825.28 299.701H2980.25L3003.57 352.068H2803.42Z" fill="#151515" fill-opacity="0.75"/>
<path d="M2512.4 426.216L2439.54 332.142L2425.93 314.532L2320.52 181.993H2394.36L2465.28 273.751L2480.34 293.214L2584.79 426.216H2512.4ZM2320.03 426.216L2421.56 296.458L2455.57 335.386L2390.47 426.216H2320.03ZM2480.34 312.215L2447.79 273.751L2506.57 181.993H2577.01L2480.34 312.215Z" fill="#151515"/>
<path d="M2183.52 430.849C2156.64 430.849 2132.84 425.443 2112.11 414.629C2091.71 403.816 2075.68 389.141 2064.02 370.604C2052.69 351.759 2047.02 330.287 2047.02 306.189C2047.02 287.034 2050.26 269.578 2056.74 253.822C2063.21 238.066 2072.12 224.472 2083.45 213.041C2095.11 201.301 2108.88 192.341 2124.74 186.163C2140.94 179.675 2158.59 176.431 2177.7 176.431C2194.54 176.431 2210.24 179.52 2224.82 185.699C2239.39 191.878 2252.02 200.374 2262.71 211.187C2273.39 221.692 2281.49 234.358 2287 249.188C2292.83 263.708 2295.58 279.619 2295.26 296.92L2294.77 316.847H2087.34L2076.17 277.92H2244.73L2236.96 285.798V275.603C2235.99 266.026 2232.75 257.684 2227.25 250.578C2221.74 243.163 2214.62 237.448 2205.87 233.432C2197.45 229.106 2188.06 226.944 2177.7 226.944C2161.83 226.944 2148.39 229.879 2137.38 235.749C2126.69 241.619 2118.59 250.115 2113.09 261.237C2107.58 272.05 2104.83 285.644 2104.83 302.018C2104.83 317.774 2108.23 331.522 2115.03 343.262C2122.15 355.002 2132.03 364.116 2144.66 370.604C2157.62 376.783 2172.68 379.873 2189.84 379.873C2201.82 379.873 2212.83 378.019 2222.87 374.312C2232.91 370.604 2243.76 363.962 2255.42 354.385L2285.05 393.775C2276.31 401.499 2266.27 408.142 2254.94 413.703C2243.92 418.955 2232.27 423.125 2219.96 426.215C2207.65 429.304 2195.51 430.849 2183.52 430.849Z" fill="#151515"/>
<path d="M1904.79 426.216V119.895H1964.54V426.216H1904.79ZM1854.27 234.823V181.993H2020.4V234.823H1854.27Z" fill="#151515"/>
<path d="M1581.07 426.215V181.992H1639.37L1640.34 232.042L1629.17 237.603C1632.41 226.481 1638.72 216.44 1648.11 207.48C1657.5 198.212 1668.68 190.797 1681.63 185.236C1694.59 179.675 1707.86 176.895 1721.47 176.895C1740.9 176.895 1757.09 180.602 1770.04 188.017C1783.32 195.431 1793.2 206.554 1799.68 221.383C1806.48 236.213 1809.88 254.749 1809.88 276.994V426.215H1750.13V281.164C1750.13 268.807 1748.35 258.611 1744.78 250.579C1741.22 242.237 1735.72 236.213 1728.27 232.505C1720.82 228.489 1711.75 226.635 1701.06 226.944C1692.32 226.944 1684.22 228.334 1676.77 231.115C1669.65 233.586 1663.33 237.294 1657.83 242.237C1652.65 246.871 1648.44 252.278 1645.2 258.457C1642.28 264.636 1640.83 271.433 1640.83 278.847V426.215H1611.19C1605.36 426.215 1599.86 426.215 1594.68 426.215C1589.82 426.215 1585.28 426.215 1581.07 426.215Z" fill="#151515"/>
<path d="M1445.56 426.216V181.993H1505.31V426.216H1445.56ZM1474.7 130.09C1462.72 130.09 1453.33 127.309 1446.53 121.748C1440.05 115.878 1436.81 107.691 1436.81 97.1867C1436.81 87.3004 1440.21 79.2677 1447.01 73.0888C1453.81 66.9098 1463.04 63.8203 1474.7 63.8203C1487.01 63.8203 1496.4 66.7553 1502.88 72.6253C1509.68 78.1864 1513.08 86.3735 1513.08 97.1867C1513.08 106.764 1509.68 114.642 1502.88 120.821C1496.08 127 1486.69 130.09 1474.7 130.09Z" fill="#151515"/>
<path d="M1223.75 430.85C1202.69 430.85 1183.59 425.289 1166.42 414.166C1149.26 403.044 1135.49 387.906 1125.13 368.751C1114.77 349.596 1109.59 327.816 1109.59 303.409C1109.59 279.002 1114.77 257.221 1125.13 238.066C1135.49 218.911 1149.58 203.927 1167.39 193.114C1185.21 182.301 1205.29 176.895 1227.63 176.895C1240.59 176.895 1252.41 178.748 1263.09 182.456C1273.78 185.854 1283.17 190.797 1291.27 197.285C1299.37 203.773 1306 211.188 1311.19 219.529C1316.69 227.871 1320.42 236.83 1322.36 246.408L1309.24 243.164V181.992H1369.48V426.215H1308.76V367.824L1322.85 365.507C1320.58 373.849 1316.37 382.036 1310.21 390.068C1304.39 397.792 1296.94 404.743 1287.87 410.922C1279.12 416.792 1269.25 421.581 1258.24 425.289C1247.55 428.996 1236.05 430.85 1223.75 430.85ZM1240.26 380.337C1254.19 380.337 1266.49 377.093 1277.18 370.605C1287.87 364.117 1296.13 355.157 1301.96 343.726C1308.11 331.986 1311.19 318.547 1311.19 303.409C1311.19 288.579 1308.11 275.449 1301.96 264.018C1296.13 252.587 1287.87 243.627 1277.18 237.139C1266.49 230.651 1254.19 227.407 1240.26 227.407C1226.34 227.407 1214.03 230.651 1203.34 237.139C1192.98 243.627 1184.88 252.587 1179.05 264.018C1173.22 275.449 1170.31 288.579 1170.31 303.409C1170.31 318.547 1173.22 331.986 1179.05 343.726C1184.88 355.157 1192.98 364.117 1203.34 370.605C1214.03 377.093 1226.34 380.337 1240.26 380.337Z" fill="#151515"/>
<path d="M715.547 426.215V101.82H775.298L899.173 294.14L864.197 293.677L989.529 101.82H1046.37V426.215H983.7V304.336C983.7 276.53 984.347 251.506 985.643 229.261C987.262 207.017 989.853 184.927 993.415 162.992L1001.19 182.919L895.773 338.165H863.711L761.696 184.309L768.497 162.992C772.06 183.691 774.489 205.009 775.784 226.944C777.403 248.571 778.213 274.368 778.213 304.336V426.215H715.547Z" fill="#151515"/>
<path d="M231.087 0.242656C232.128 0.309733 233.169 0.37681 234.241 0.445919C296.713 4.8164 351.779 31.2776 393.321 78.251C432.966 125.894 446.201 179.839 445.793 240.79C445.755 246.503 445.777 252.213 445.816 257.925C445.845 263.433 445.825 268.94 445.809 274.448C445.822 276.49 445.835 278.532 445.849 280.636C445.818 283.468 445.818 283.468 445.786 286.357C445.781 288.013 445.776 289.669 445.771 291.375C444.723 296.865 442.718 298.805 438.411 302.251C435.147 303.119 435.147 303.119 431.882 303.068C430.265 303.093 430.265 303.093 428.617 303.119C423.612 301.789 421.941 299.883 418.822 295.722C417.838 290.682 417.912 285.698 417.942 280.576C417.922 279.073 417.903 277.569 417.883 276.02C417.826 271.193 417.811 266.368 417.801 261.541C417.694 242.771 417.482 224.102 415.742 205.399C415.557 203.367 415.557 203.367 415.368 201.293C410.806 156.608 390.106 116.489 358.42 85.1316C357.033 83.7091 355.646 82.2865 354.218 80.8208C319.028 46.5471 267.6 29.0402 218.932 29.6337C167.532 31.307 122.905 51.6852 85.7958 86.7641C84.1765 88.2824 84.1765 88.2824 82.5245 89.8314C77.7774 94.4144 73.6968 98.9545 69.9812 104.415C64.6939 111.703 64.6939 111.703 59.6761 112.884C52.806 112.761 49.4348 112.316 44.2696 107.68C41.1931 102.143 40.995 99.5646 41.7189 93.294C43.976 89.5097 46.0898 86.4456 48.861 83.091C49.601 82.1686 50.3411 81.2463 51.1036 80.2959C88.1266 34.9346 142.125 7.71867 199.967 1.46702C210.359 0.47854 220.652 -0.455974 231.087 0.242656Z" fill="#151515"/>
<path d="M259.521 167.585C274.255 178.197 283.835 191.556 288.223 209.2C289.123 217.931 289.146 226.601 289.09 235.365C289.095 237.849 289.101 240.333 289.109 242.817C289.119 247.986 289.105 253.153 289.074 258.322C289.037 264.94 289.059 271.557 289.098 278.176C289.121 283.289 289.114 288.402 289.097 293.515C289.093 295.956 289.098 298.398 289.113 300.839C289.13 304.242 289.104 307.642 289.068 311.045C289.063 312.977 289.058 314.91 289.052 316.901C288.058 322.825 286.383 324.741 281.693 328.371C278.428 329.239 278.428 329.239 275.163 329.188C273.547 329.213 273.547 329.213 271.898 329.239C267.117 327.968 265.214 325.642 262.103 321.841C261.278 317.437 261.278 317.437 261.264 312.342C261.242 310.429 261.221 308.516 261.199 306.545C261.211 303.451 261.211 303.451 261.223 300.294C261.194 297.039 261.165 293.784 261.134 290.529C261.1 285.967 261.094 281.406 261.089 276.844C261.076 268.897 261.032 260.95 260.966 253.002C260.934 248.776 260.919 244.55 260.922 240.324C260.83 224.583 260.085 212.264 250.676 199.405C250.676 198.328 250.676 197.251 250.676 196.141C249.801 195.703 248.925 195.265 248.023 194.814C245.21 193.408 242.443 191.909 239.708 190.357C230.552 186.291 221.318 186.725 211.497 187.978C207.415 189.733 204.295 191.627 200.809 194.355C198.437 196.141 198.437 196.141 195.172 196.141C188.465 209.039 185.191 220.003 185.145 234.553C185.134 236.642 185.122 238.731 185.111 240.883C185.106 242.543 185.106 242.543 185.102 244.236C185.09 247.75 185.064 251.263 185.034 254.777C184.949 264.763 184.87 274.75 184.845 284.736C184.685 338.774 184.685 338.774 177.215 364.286C176.763 365.879 176.311 367.472 175.846 369.114C174.697 372.845 173.424 376.463 172.011 380.101C171.529 381.367 171.046 382.633 170.549 383.937C160.809 408.607 143.847 441.806 120.078 455.705C113.833 456.746 110.549 456.504 104.773 454.072C101.541 450.094 100.306 446.508 99.9141 441.395C101.11 433.792 106.934 428.603 111.915 423.055C131.549 400.111 144.783 374.124 151.605 344.696C151.865 343.595 152.126 342.494 152.394 341.359C156.483 322.123 156.108 302.255 156.279 282.687C156.299 280.614 156.319 278.54 156.339 276.404C156.459 263.382 156.459 263.382 156.524 250.361C156.544 243.961 156.615 237.562 156.687 231.162C156.684 229.225 156.681 227.288 156.678 225.292C156.959 205.966 162.122 190.651 175.582 176.551C198.078 155.076 232.89 150.978 259.521 167.585Z" fill="#222222"/>
<path d="M299.652 70.4384C303.291 73.1557 304.336 74.3672 305.315 78.7984C305.404 85.3788 305.387 88.8943 301.387 94.3134C292.568 98.2731 285.494 96.295 276.6 93.089C272.951 91.6451 269.306 90.1931 265.664 88.7336C234.661 76.9647 197.439 80.4896 167.422 93.2931C152.361 100.119 138.948 108.319 126.61 119.413C125.614 120.276 124.619 121.138 123.593 122.027C95.0537 148.422 83.0477 186.21 80.9002 223.891C80.6956 231.538 80.677 239.18 80.6706 246.829C80.6407 251.179 80.6088 255.529 80.5749 259.879C80.5256 266.627 80.4882 273.374 80.4912 280.122C80.488 320.816 76.7894 349.433 48.4355 380.457C43.2282 385.616 40.2122 388.516 32.844 389.588C27.0283 388.772 27.0283 388.772 22.2329 385.405C18.8659 380.61 18.8659 380.61 17.4375 375.406C19.3585 367.036 23.803 363.094 29.662 356.996C49.2533 336.186 51.7144 312.598 51.7909 285.159C51.8028 281.762 51.8285 278.366 51.8583 274.97C51.943 265.322 52.0221 255.675 52.0476 246.026C52.2172 190.403 61.9639 143.728 102.122 103.088C103.172 101.92 104.223 100.752 105.304 99.5488C152.824 47.9065 239.017 40.598 299.652 70.4384Z" fill="#222222"/>
<path d="M296.897 122.372C322.06 143.911 337.847 171.539 342.096 204.506C342.44 211.66 341.893 216.539 337.199 222.26C330.583 225.38 327.363 226.035 320.364 223.79C312.711 218.273 312.15 210.356 310.467 201.445C305.572 178.093 293.695 158.038 274.042 144.041C252.327 130.469 228.947 125.807 203.82 130.286C179.39 136.501 159.388 150.092 145.586 171.347C135.899 188.774 132.97 207.618 132.852 227.285C132.814 229.742 132.774 232.199 132.734 234.656C132.676 238.475 132.628 242.293 132.607 246.112C132.581 249.836 132.516 253.558 132.444 257.281C132.447 258.421 132.45 259.56 132.453 260.734C132.313 266.293 131.86 269.15 128.387 273.582C124.682 276.351 123.011 277.019 118.446 276.948C117.369 276.965 116.291 276.981 115.181 276.999C110.268 275.693 108.504 273.614 105.386 269.602C104.662 265.032 104.323 261.076 104.277 256.497C104.242 255.216 104.207 253.935 104.172 252.615C104.105 249.9 104.054 247.184 104.017 244.468C103.959 240.383 103.848 236.301 103.728 232.217C102.834 194.983 110.833 162.278 136.404 134.106C178.983 90.303 248.339 85.3365 296.897 122.372Z" fill="#151515"/>
<path d="M338.833 98.1909C368.431 118.5 385.195 160.178 391.946 193.986C392.827 200.273 392.959 206.449 392.968 212.783C392.98 214.744 392.98 214.744 392.993 216.746C393.016 221.062 393.028 225.378 393.037 229.695C393.044 231.931 393.044 231.931 393.051 234.213C393.075 242.133 393.09 250.054 393.097 257.974C393.104 264.449 393.127 270.923 393.164 277.398C393.557 346.922 393.557 346.922 387.808 378.977C387.466 381.028 387.124 383.078 386.771 385.191C385.94 389.823 384.984 394.39 383.93 398.975C383.632 400.457 383.333 401.938 383.025 403.465C381.509 410.207 380.489 414.001 375.66 419.101C370.022 422.234 366.405 422.346 360.055 421.422C355.018 418.108 353.774 415.882 352.308 410.046C351.269 401.616 353.677 393.751 355.668 385.609C364.477 347.264 365.258 308.889 365.255 269.67C365.259 264.385 365.289 259.1 365.32 253.815C365.452 205.241 359.003 163.303 325.773 125.943C318.313 117.422 318.313 117.422 318.325 111.149C319.243 104.721 319.243 104.721 322.61 100.64C328.618 97.5721 332.14 97.4958 338.833 98.1909Z" fill="#151515"/>
<path d="M327.403 249.196C328.48 249.179 329.558 249.162 330.668 249.145C335.789 250.505 337.327 252.195 340.463 256.542C341.456 262.415 341.338 268.242 341.273 274.187C341.275 275.944 341.277 277.701 341.28 279.512C341.277 283.249 341.258 286.986 341.224 290.722C341.178 296.319 341.191 301.912 341.212 307.509C341.185 335.902 338.777 363.708 331.892 391.323C331.38 393.412 331.38 393.412 330.858 395.544C322.673 427.759 309.965 458.526 293.631 487.436C292.894 488.76 292.157 490.085 291.398 491.45C287.439 498.251 284.389 503.247 276.796 506.311C269.879 506.311 266.588 505.715 261.288 501.21C258.178 495.25 258.623 491.331 260.471 485.089C263.166 479.318 266.355 473.861 269.552 468.356C302.351 409.816 311.605 350.348 312.942 284.068C312.989 282.307 313.036 280.545 313.084 278.73C313.173 275.382 313.237 272.033 313.272 268.684C313.598 257.559 313.598 257.559 317.474 252.265C321.15 249.828 323.029 249.127 327.403 249.196Z" fill="#222222"/>
<path d="M222.922 210.016C223.999 209.999 225.077 209.982 226.187 209.965C231.021 211.249 232.874 213.474 235.982 217.362C236.811 222.368 236.811 222.368 236.826 228.323C236.838 229.413 236.849 230.502 236.861 231.625C236.89 235.234 236.871 238.84 236.849 242.449C236.853 244.989 236.86 247.528 236.868 250.068C236.877 255.412 236.863 260.756 236.833 266.1C236.796 272.84 236.817 279.578 236.855 286.318C236.993 315.027 236.645 342.817 229.452 370.815C228.76 373.548 228.76 373.548 228.055 376.335C226.892 380.482 225.594 384.514 224.146 388.568C223.665 389.96 223.185 391.351 222.689 392.785C206.412 438.414 206.412 438.414 190.272 449.174C184.148 449.545 178.816 448.794 173.947 444.991C171.624 439.329 171.577 433.945 172.315 427.952C174.827 422.538 174.827 422.538 178.233 417.239C203.157 376.595 208.088 330.566 208.516 283.911C208.536 281.993 208.556 280.074 208.576 278.097C208.655 270.093 208.733 262.088 208.761 254.083C208.787 248.177 208.852 242.271 208.924 236.365C208.921 234.552 208.918 232.74 208.915 230.872C208.942 229.192 208.969 227.512 208.997 225.781C209.006 224.308 209.016 222.836 209.026 221.318C210.574 213.991 215.483 209.9 222.922 210.016Z" fill="#151515"/>
<path d="M276.797 354.491C280.942 357.116 281.548 358.846 282.829 363.584C283.47 370.79 282.005 376.458 280.062 383.365C279.689 384.722 279.316 386.078 278.931 387.475C266.838 430.223 246.372 481.635 211.498 511.209C207.017 512.399 202.969 512.12 198.438 511.209C193.546 507.948 192.235 505.598 190.275 500.087C190.275 489.983 196.805 483.368 202.927 475.906C210.611 466.472 216.834 456.426 222.925 445.91C224.002 444.083 225.08 442.256 226.19 440.374C239.407 417.276 248.255 391.693 253.968 365.752C258.049 353.736 265.308 352.072 276.797 354.491Z" fill="#151515"/>
<path d="M35.1894 130.841C39.9848 134.208 39.9848 134.208 43.3518 139.004C44.0721 147.554 42.5442 153.875 39.5767 161.858C30.3217 188.066 28.6819 214.197 28.3725 241.767C28.3529 243.325 28.3333 244.883 28.3131 246.488C28.2337 252.954 28.156 259.419 28.1274 265.885C28.1022 270.669 28.0368 275.45 27.9644 280.232C27.9675 281.693 27.9706 283.154 27.9738 284.658C27.7744 294.72 27.7744 294.72 23.9075 299.9C20.2169 302.445 18.4059 303.137 13.9671 303.068C12.8897 303.085 11.8123 303.101 10.7022 303.119C5.92516 301.85 4.01819 299.514 0.90731 295.722C0.0781167 291.376 0.0781167 291.376 0.0623738 286.357C0.0314988 283.525 0.0314988 283.525 0 280.637C0.0132181 278.594 0.0264361 276.552 0.0400547 274.448C0.0338074 272.325 0.0275601 270.201 0.0211234 268.013C0.0114892 263.501 0.0254754 258.989 0.0559969 254.477C0.0926253 248.794 0.071539 243.114 0.0335284 237.432C-0.16469 202.528 2.08318 167.816 17.2321 135.739C22.9223 130.161 27.3097 129.735 35.1894 130.841Z" fill="#151515"/>
<path d="M117.632 301.333C118.861 301.331 120.09 301.329 121.356 301.327C126.41 302.617 128.375 304.651 131.508 308.781C137.627 336.503 121.454 369.307 107.155 392.14C99.607 402.885 90.6287 412.308 81.5136 421.728C79.7588 423.579 79.7588 423.579 77.9685 425.468C72.5064 430.955 69.1452 434.119 61.5668 436.229C55.6075 436.097 52.8873 434.898 48.2518 431.217C45.5905 425.894 45.8564 422.438 46.6194 416.525C49.807 411.6 53.9316 407.623 58.0467 403.465C81.1453 379.612 95.9817 354.879 101.277 321.745C103.005 311.671 105.363 300.976 117.632 301.333Z" fill="#151515"/>
<path d="M169.055 452.44C174.893 456.539 176.863 459.04 178.441 466.01C176.341 476.338 169.002 482.107 161.504 489.069C157.167 491.923 154.665 493.125 149.465 493.252C144.261 491.62 144.261 491.62 139.67 488.355C136.701 482.06 135.846 478.716 137.936 472.03C145.752 460.661 154.373 450.668 169.055 452.44Z" fill="#222222"/>
<path d="M360.054 431.217C365.78 435.324 367.925 437.693 369.135 444.685C368.001 452.244 365.925 459.076 361.687 465.499C356.942 468.649 355.241 468.768 349.341 468.458C343.901 467.172 342.009 466.647 338.832 462.234C335.987 456.543 337.675 450.367 338.832 444.276C340.845 439.006 342.185 435.653 346.688 432.237C351.57 430.842 354.992 430.493 360.054 431.217Z" fill="#222222"/>
</svg>
