<svg width="2475" height="578" viewBox="0 0 2475 578" fill="none" xmlns="http://www.w3.org/2000/svg">
<path d="M346.126 63.0361C347.455 63.0279 348.784 63.0197 350.154 63.0112C354.54 62.9906 358.926 63.0042 363.313 63.0201C366.365 63.0169 369.417 63.0124 372.47 63.0065C378.864 62.9996 385.257 63.0092 391.651 63.0316C399.033 63.0571 406.413 63.0488 413.795 63.023C420.909 62.9991 428.024 63.0016 435.139 63.0154C438.16 63.0185 441.181 63.0147 444.203 63.0037C448.426 62.9918 452.648 63.01 456.871 63.0361C458.743 63.0219 458.743 63.0219 460.653 63.0073C467.519 63.086 471.937 63.481 477.209 68.3389C482.959 74.5781 482.573 80.6322 482.512 88.6765C482.524 90.6703 482.524 90.6703 482.537 92.7044C482.557 97.0912 482.544 101.477 482.528 105.864C482.531 108.916 482.536 111.968 482.541 115.02C482.548 121.414 482.539 127.808 482.516 134.202C482.491 141.583 482.499 148.964 482.525 156.345C482.549 163.46 482.546 170.575 482.533 177.69C482.529 180.711 482.533 183.732 482.544 186.754C482.556 190.977 482.538 195.199 482.512 199.422C482.521 200.67 482.531 201.918 482.541 203.204C482.462 210.07 482.067 214.488 477.209 219.76C470.819 225.795 464.086 225.091 455.79 224.988C454.323 224.989 452.856 224.989 451.345 224.99C447.39 224.987 443.437 224.964 439.483 224.931C435.767 224.904 432.052 224.903 428.336 224.899C417.483 224.875 406.63 224.809 395.776 224.749C371.518 224.652 347.26 224.555 322.267 224.455C322.267 277.136 322.267 329.816 322.267 384.093C370.623 383.907 370.623 383.907 418.98 383.67C428.336 383.649 428.336 383.649 432.718 383.645C435.775 383.637 438.832 383.623 441.89 383.597C446.523 383.559 451.156 383.558 455.79 383.56C457.15 383.543 458.51 383.526 459.912 383.509C467.008 383.545 471.802 383.682 477.209 388.788C482.959 395.027 482.573 401.081 482.512 409.126C482.52 410.455 482.528 411.784 482.537 413.154C482.557 417.54 482.544 421.926 482.528 426.313C482.531 429.365 482.536 432.417 482.541 435.47C482.548 441.864 482.539 448.257 482.516 454.651C482.491 462.033 482.499 469.413 482.525 476.795C482.549 483.909 482.546 491.024 482.533 498.139C482.529 501.16 482.533 504.181 482.544 507.203C482.556 511.426 482.538 515.648 482.512 519.871C482.521 521.119 482.531 522.367 482.541 523.653C482.462 530.519 482.067 534.937 477.209 540.209C470.97 545.959 464.916 545.573 456.871 545.512C454.878 545.524 454.878 545.524 452.843 545.537C448.457 545.557 444.071 545.544 439.684 545.528C436.632 545.531 433.58 545.536 430.527 545.541C424.133 545.548 417.74 545.539 411.346 545.516C403.964 545.491 396.584 545.499 389.202 545.525C382.088 545.549 374.973 545.546 367.858 545.533C364.837 545.529 361.816 545.533 358.794 545.544C354.571 545.556 350.349 545.538 346.126 545.512C344.878 545.521 343.63 545.531 342.344 545.541C335.478 545.462 331.06 545.067 325.788 540.209C319.753 533.819 320.457 527.086 320.56 518.79C320.559 517.323 320.559 515.856 320.558 514.345C320.561 510.39 320.584 506.437 320.617 502.483C320.644 498.767 320.645 495.052 320.649 491.336C320.673 480.483 320.739 469.63 320.799 458.776C320.896 434.518 320.993 410.26 321.093 385.267C268.412 385.267 215.732 385.267 161.455 385.267C161.641 433.623 161.641 433.623 161.878 481.98C161.899 491.336 161.899 491.336 161.903 495.718C161.91 498.775 161.925 501.832 161.951 504.89C161.989 509.523 161.99 514.156 161.988 518.79C162.005 520.15 162.022 521.51 162.039 522.912C162.003 530.008 161.866 534.802 156.76 540.209C150.521 545.959 144.467 545.573 136.422 545.512C134.429 545.524 134.429 545.524 132.394 545.537C128.008 545.557 123.622 545.544 119.235 545.528C116.183 545.531 113.13 545.536 110.078 545.541C103.684 545.548 97.2906 545.539 90.8967 545.516C83.5154 545.491 76.1347 545.499 68.7534 545.525C61.6386 545.549 54.5241 545.546 47.4092 545.533C44.3878 545.529 41.3665 545.533 38.3451 545.544C34.1218 545.556 29.8997 545.538 25.6765 545.512C24.4287 545.521 23.1809 545.531 21.8953 545.541C15.0293 545.462 10.6104 545.067 5.33892 540.209C-0.410772 533.97 -0.0251174 527.916 0.0361543 519.871C0.0279268 518.542 0.0196993 517.213 0.0112224 515.843C-0.00941563 511.457 0.00423172 507.071 0.0201062 502.684C0.016943 499.632 0.0123859 496.58 0.00649394 493.527C-0.000426118 487.133 0.00917837 480.74 0.0315691 474.346C0.0571197 466.964 0.048856 459.584 0.0230078 452.202C-0.000905412 445.088 0.0016431 437.973 0.0153777 430.858C0.018509 427.837 0.014669 424.816 0.00373567 421.794C-0.0081932 417.571 0.0100139 413.349 0.0361543 409.126C0.0266501 407.878 0.0171459 406.63 0.00735366 405.344C0.0860535 398.478 0.481014 394.06 5.33892 388.788C11.7286 382.753 18.4612 383.457 26.758 383.56C28.9234 383.559 28.9234 383.559 31.1325 383.558C35.0758 383.56 39.018 383.584 42.9611 383.617C47.0874 383.646 51.2138 383.649 55.3402 383.654C63.1472 383.669 70.954 383.707 78.7609 383.755C87.6517 383.807 96.5425 383.833 105.433 383.856C123.716 383.906 141.999 383.988 160.281 384.093C160.278 383.357 160.275 382.622 160.272 381.864C160.194 363.945 160.135 346.025 160.099 328.106C160.081 319.44 160.056 310.774 160.016 302.108C159.981 294.552 159.958 286.997 159.95 279.441C159.945 275.442 159.935 271.444 159.909 267.446C159.883 262.975 159.88 258.505 159.882 254.034C159.869 252.718 159.856 251.402 159.843 250.045C159.877 241.532 160.28 233.942 166.517 227.536C174.411 222.764 181.799 222.958 190.768 223.015C192.177 223.014 193.586 223.014 195.038 223.014C198.886 223.015 202.735 223.027 206.583 223.043C210.611 223.058 214.638 223.059 218.666 223.062C226.286 223.069 233.906 223.089 241.525 223.112C250.203 223.139 258.881 223.151 267.559 223.163C285.404 223.188 303.248 223.229 321.093 223.281C321.088 222.526 321.084 221.77 321.08 220.991C320.976 202.593 320.898 184.194 320.85 165.795C320.825 156.897 320.792 148 320.739 139.103C320.692 131.346 320.661 123.59 320.651 115.834C320.645 111.728 320.631 107.623 320.596 103.517C320.558 98.9304 320.558 94.3445 320.56 89.758C320.543 88.4003 320.526 87.0427 320.509 85.6439C320.545 78.545 320.679 73.7477 325.788 68.3389C332.027 62.5892 338.081 62.9749 346.126 63.0361Z" fill="white"/>
<path d="M24.7257 63.0361C25.9538 63.0279 27.1819 63.0197 28.4472 63.0112C32.4967 62.9906 36.5452 63.0042 40.5948 63.0201C43.4129 63.0169 46.231 63.0124 49.0491 63.0065C54.9507 62.9996 60.852 63.0096 66.7535 63.0316C74.3191 63.0583 81.8839 63.0429 89.4494 63.0148C95.2667 62.9978 101.084 63.0032 106.901 63.0154C109.691 63.0185 112.481 63.0147 115.27 63.0037C119.168 62.9918 123.064 63.01 126.962 63.0361C128.115 63.0266 129.268 63.0171 130.456 63.0073C135.538 63.0705 138.375 63.1629 142.776 65.8825C145.584 68.9533 146.127 70.1959 146.71 74.3547C145.515 84.9371 134.866 92.9167 127.672 100.079C126.523 101.231 125.375 102.383 124.228 103.535C121.134 106.64 118.033 109.737 114.93 112.832C111.674 116.082 108.423 119.338 105.172 122.593C99.7169 128.053 94.2568 133.507 88.7939 138.959C82.4845 145.256 76.1836 151.561 69.887 157.87C64.4682 163.3 59.0448 168.724 53.6176 174.146C50.3814 177.378 47.1468 180.612 43.9163 183.851C40.8818 186.892 37.8417 189.927 34.7971 192.958C33.1521 194.599 31.5128 196.245 29.8737 197.891C28.3954 199.36 28.3954 199.36 26.8872 200.858C26.0362 201.708 25.1851 202.558 24.3083 203.434C20.5865 206.722 17.406 208.972 12.4555 209.709C7.90709 209.059 5.39302 207.327 1.8179 204.5C0.449414 201.763 0.487906 200.154 0.471344 197.105C0.462946 196.045 0.454547 194.986 0.445893 193.894C0.442737 192.728 0.439581 191.562 0.436329 190.361C0.428615 189.135 0.420902 187.91 0.412955 186.647C0.389756 182.578 0.376094 178.509 0.364399 174.44C0.359615 173.052 0.354831 171.665 0.349902 170.235C0.3254 162.89 0.308619 155.545 0.297627 148.2C0.284638 140.608 0.24426 133.017 0.197651 125.425C0.166979 119.593 0.157136 113.76 0.152918 107.928C0.147196 105.129 0.133531 102.331 0.111791 99.5321C0.0832515 95.6148 0.0842764 91.6986 0.0924402 87.7812C0.0774037 86.6248 0.0623672 85.4684 0.046875 84.277C0.0975713 77.6033 0.672148 73.4919 5.33932 68.3389C11.4324 62.8336 16.9201 62.9717 24.7257 63.0361Z" fill="#444444"/>
<path d="M2365.99 507.931V473.288H2400.63V331.701H2365.99V297.058H2474.44V331.701H2439.8V473.288H2474.44V507.931H2365.99Z" fill="#747474"/>
<path d="M2178.45 507.931V297.058H2266.11C2278.16 297.058 2289.01 299.97 2298.65 305.794C2308.49 311.618 2316.32 319.551 2322.14 329.592C2327.97 339.634 2330.88 350.881 2330.88 363.332C2330.88 375.985 2327.97 387.432 2322.14 397.674C2316.32 407.716 2308.49 415.749 2298.65 421.774C2289.01 427.799 2278.16 430.812 2266.11 430.812H2217.61V507.931H2178.45ZM2217.61 394.662H2263.4C2268.42 394.662 2272.94 393.256 2276.96 390.444C2281.17 387.633 2284.49 383.917 2286.9 379.298C2289.51 374.679 2290.81 369.457 2290.81 363.633C2290.81 357.809 2289.51 352.688 2286.9 348.27C2284.49 343.651 2281.17 340.036 2276.96 337.425C2272.94 334.613 2268.42 333.207 2263.4 333.207H2217.61V394.662Z" fill="#747474"/>
<path d="M1944.61 507.931L2026.85 297.058H2063.6L2145.24 507.931H2104.57L2059.38 388.034C2058.38 385.624 2056.97 381.809 2055.17 376.587C2053.56 371.365 2051.75 365.742 2049.74 359.717C2047.73 353.491 2045.93 347.768 2044.32 342.546C2042.71 337.124 2041.51 333.207 2040.71 330.797L2048.24 330.496C2047.03 334.513 2045.63 339.031 2044.02 344.052C2042.41 349.073 2040.71 354.295 2038.9 359.717C2037.09 365.14 2035.28 370.361 2033.48 375.382C2031.87 380.403 2030.36 384.922 2028.96 388.938L1983.77 507.931H1944.61ZM1981.96 459.731L1995.52 425.69H2091.62L2106.08 459.731H1981.96Z" fill="#747474"/>
<path d="M1770.82 510.942C1754.15 510.942 1739.39 507.427 1726.54 500.398C1713.89 493.369 1703.95 483.829 1696.72 471.78C1689.69 459.529 1686.17 445.571 1686.17 429.906C1686.17 417.454 1688.18 406.107 1692.2 395.865C1696.21 385.623 1701.74 376.786 1708.77 369.355C1716 361.724 1724.53 355.899 1734.37 351.883C1744.41 347.665 1755.36 345.557 1767.21 345.557C1777.65 345.557 1787.39 347.565 1796.43 351.582C1805.47 355.598 1813.3 361.121 1819.93 368.15C1826.55 374.979 1831.57 383.213 1834.99 392.853C1838.6 402.292 1840.31 412.635 1840.11 423.881L1839.81 436.835H1711.18L1704.25 411.53H1808.78L1803.96 416.651V410.024C1803.36 403.798 1801.35 398.375 1797.93 393.756C1794.52 388.936 1790.1 385.221 1784.68 382.61C1779.46 379.798 1773.63 378.393 1767.21 378.393C1757.37 378.393 1749.03 380.301 1742.2 384.116C1735.58 387.932 1730.56 393.455 1727.14 400.685C1723.73 407.714 1722.02 416.551 1722.02 427.195C1722.02 437.437 1724.13 446.374 1728.35 454.006C1732.76 461.638 1738.89 467.562 1746.72 471.78C1754.76 475.796 1764.09 477.804 1774.74 477.804C1782.17 477.804 1789 476.599 1795.22 474.189C1801.45 471.78 1808.18 467.462 1815.41 461.236L1833.78 486.842C1828.36 491.863 1822.14 496.181 1815.11 499.796C1808.28 503.21 1801.05 505.921 1793.42 507.929C1785.78 509.938 1778.25 510.942 1770.82 510.942Z" fill="white"/>
<path d="M1570.11 577.217C1558.27 577.217 1546.42 575.409 1534.57 571.794C1522.92 568.179 1513.48 563.46 1506.25 557.636L1519.51 530.222C1523.72 533.235 1528.44 535.845 1533.66 538.055C1538.89 540.264 1544.41 541.971 1550.23 543.176C1556.26 544.381 1562.18 544.983 1568.01 544.983C1578.65 544.983 1587.49 543.276 1594.52 539.862C1601.75 536.649 1607.17 531.628 1610.78 524.8C1614.4 518.172 1616.21 509.838 1616.21 499.796V470.575L1621.63 472.684C1620.42 478.91 1617.11 484.834 1611.69 490.457C1606.26 496.081 1599.44 500.7 1591.2 504.315C1582.97 507.729 1574.53 509.436 1565.9 509.436C1550.83 509.436 1537.48 505.921 1525.83 498.892C1514.38 491.863 1505.25 482.324 1498.42 470.274C1491.79 458.023 1488.48 443.965 1488.48 428.099C1488.48 412.233 1491.79 398.175 1498.42 385.924C1505.05 373.473 1514.08 363.732 1525.53 356.703C1537.18 349.473 1550.23 345.858 1564.69 345.858C1570.72 345.858 1576.54 346.561 1582.16 347.967C1587.79 349.373 1592.91 351.381 1597.53 353.992C1602.35 356.603 1606.67 359.515 1610.48 362.728C1614.3 365.942 1617.41 369.356 1619.82 372.971C1622.23 376.586 1623.74 380.1 1624.34 383.514L1616.51 385.924L1617.11 349.172H1653.56V497.085C1653.56 509.938 1651.65 521.285 1647.84 531.126C1644.02 540.967 1638.5 549.301 1631.27 556.129C1624.04 563.158 1615.3 568.38 1605.06 571.794C1594.82 575.409 1583.17 577.217 1570.11 577.217ZM1571.62 477.805C1580.66 477.805 1588.59 475.696 1595.42 471.479C1602.45 467.261 1607.87 461.437 1611.69 454.006C1615.5 446.576 1617.41 438.04 1617.41 428.4C1617.41 418.56 1615.4 409.924 1611.39 402.493C1607.57 394.861 1602.25 388.937 1595.42 384.719C1588.59 380.502 1580.66 378.393 1571.62 378.393C1562.58 378.393 1554.65 380.602 1547.82 385.021C1540.99 389.238 1535.57 395.163 1531.56 402.794C1527.74 410.225 1525.83 418.76 1525.83 428.4C1525.83 437.839 1527.74 446.375 1531.56 454.006C1535.57 461.437 1540.99 467.261 1547.82 471.479C1554.65 475.696 1562.58 477.805 1571.62 477.805Z" fill="white"/>
<path d="M1365.39 510.942C1352.33 510.942 1340.48 507.327 1329.84 500.097C1319.2 492.867 1310.66 483.027 1304.23 470.575C1297.81 458.123 1294.59 443.965 1294.59 428.099C1294.59 412.233 1297.81 398.075 1304.23 385.623C1310.66 373.172 1319.4 363.431 1330.44 356.402C1341.49 349.373 1353.94 345.858 1367.8 345.858C1375.83 345.858 1383.16 347.063 1389.79 349.473C1396.42 351.683 1402.24 354.896 1407.26 359.113C1412.28 363.331 1416.4 368.151 1419.61 373.573C1423.03 378.996 1425.34 384.82 1426.54 391.046L1418.41 388.937V349.172H1455.76V507.93H1418.11V469.972L1426.84 468.466C1425.44 473.889 1422.82 479.211 1419.01 484.432C1415.39 489.453 1410.77 493.972 1405.15 497.989C1399.73 501.804 1393.6 504.917 1386.78 507.327C1380.15 509.737 1373.02 510.942 1365.39 510.942ZM1375.63 478.106C1384.27 478.106 1391.9 475.997 1398.52 471.78C1405.15 467.563 1410.27 461.738 1413.89 454.308C1417.7 446.676 1419.61 437.94 1419.61 428.099C1419.61 418.459 1417.7 409.924 1413.89 402.493C1410.27 395.062 1405.15 389.238 1398.52 385.021C1391.9 380.803 1384.27 378.694 1375.63 378.694C1366.99 378.694 1359.36 380.803 1352.73 385.021C1346.31 389.238 1341.29 395.062 1337.67 402.493C1334.06 409.924 1332.25 418.459 1332.25 428.099C1332.25 437.94 1334.06 446.676 1337.67 454.308C1341.29 461.738 1346.31 467.563 1352.73 471.78C1359.36 475.997 1366.99 478.106 1375.63 478.106Z" fill="white"/>
<path d="M1185.41 507.93V349.172H1221.86L1222.47 399.782L1217.34 388.334C1219.55 380.301 1223.37 373.071 1228.79 366.645C1234.21 360.218 1240.44 355.197 1247.47 351.582C1254.7 347.766 1262.23 345.858 1270.06 345.858C1273.48 345.858 1276.69 346.16 1279.7 346.762C1282.92 347.365 1285.53 348.068 1287.54 348.871L1277.59 389.539C1275.38 388.334 1272.67 387.33 1269.46 386.527C1266.25 385.724 1263.03 385.322 1259.82 385.322C1254.8 385.322 1249.98 386.326 1245.36 388.334C1240.94 390.142 1237.03 392.753 1233.61 396.167C1230.2 399.581 1227.49 403.598 1225.48 408.217C1223.67 412.635 1222.77 417.656 1222.77 423.279V507.93H1185.41Z" fill="white"/>
<path d="M1070.03 510.942C1054.16 510.942 1040 507.428 1027.55 500.399C1015.1 493.169 1005.26 483.328 998.029 470.876C990.799 458.425 987.184 444.266 987.184 428.4C987.184 412.535 990.799 398.376 998.029 385.924C1005.26 373.473 1015.1 363.732 1027.55 356.703C1040 349.473 1054.16 345.858 1070.03 345.858C1085.69 345.858 1099.75 349.473 1112.2 356.703C1124.65 363.732 1134.39 373.473 1141.42 385.924C1148.65 398.376 1152.27 412.535 1152.27 428.4C1152.27 444.266 1148.65 458.425 1141.42 470.876C1134.39 483.328 1124.65 493.169 1112.2 500.399C1099.75 507.428 1085.69 510.942 1070.03 510.942ZM1070.03 478.106C1078.66 478.106 1086.29 475.897 1092.92 471.479C1099.75 467.06 1105.07 461.136 1108.89 453.705C1112.9 446.274 1114.81 437.839 1114.61 428.4C1114.81 418.76 1112.9 410.225 1108.89 402.794C1105.07 395.363 1099.75 389.539 1092.92 385.322C1086.29 380.904 1078.66 378.694 1070.03 378.694C1061.39 378.694 1053.56 380.904 1046.53 385.322C1039.7 389.539 1034.38 395.464 1030.56 403.095C1026.75 410.526 1024.84 418.961 1024.84 428.4C1024.84 437.839 1026.75 446.274 1030.56 453.705C1034.38 461.136 1039.7 467.06 1046.53 471.479C1053.56 475.897 1061.39 478.106 1070.03 478.106Z" fill="white"/>
<path d="M898.982 507.93V308.805H936.036V507.93H898.982ZM867.652 383.514V349.172H970.679V383.514H867.652Z" fill="white"/>
<path d="M766.446 510.941C754.195 510.941 742.948 509.435 732.706 506.423C722.463 503.209 713.225 498.49 704.991 492.264C696.757 486.038 689.427 478.507 683 469.67L708.606 440.751C718.447 454.407 728.087 463.846 737.526 469.068C746.965 474.29 757.609 476.9 769.458 476.9C776.286 476.9 782.512 475.896 788.135 473.888C793.759 471.679 798.177 468.767 801.39 465.152C804.604 461.336 806.21 457.018 806.21 452.198C806.21 448.784 805.507 445.671 804.102 442.859C802.897 439.847 800.989 437.236 798.378 435.027C795.767 432.617 792.554 430.408 788.738 428.399C784.922 426.391 780.604 424.684 775.784 423.278C770.964 421.872 765.642 420.567 759.818 419.362C748.772 417.153 739.133 414.241 730.898 410.626C722.664 406.81 715.736 402.191 710.112 396.768C704.489 391.145 700.372 384.919 697.761 378.091C695.15 371.062 693.845 363.129 693.845 354.292C693.845 345.456 695.753 337.322 699.569 329.891C703.585 322.461 709.008 316.034 715.836 310.612C722.664 305.189 730.597 300.972 739.635 297.959C748.672 294.947 758.412 293.44 768.856 293.44C780.705 293.44 791.248 294.846 800.487 297.658C809.926 300.47 818.16 304.687 825.189 310.31C832.419 315.733 838.343 322.36 842.963 330.193L817.055 355.799C813.039 349.573 808.52 344.452 803.499 340.435C798.478 336.218 793.056 333.105 787.232 331.096C781.408 328.887 775.282 327.783 768.856 327.783C761.626 327.783 755.299 328.787 749.877 330.795C744.655 332.803 740.538 335.716 737.526 339.531C734.513 343.146 733.007 347.565 733.007 352.786C733.007 356.803 733.911 360.418 735.718 363.631C737.526 366.644 740.036 369.355 743.25 371.765C746.664 374.175 750.982 376.284 756.203 378.091C761.425 379.899 767.349 381.505 773.977 382.911C785.023 385.12 794.964 388.133 803.8 391.948C812.637 395.563 820.168 399.982 826.394 405.203C832.62 410.224 837.339 416.048 840.553 422.676C843.766 429.102 845.373 436.332 845.373 444.366C845.373 458.223 842.059 470.172 835.431 480.214C829.005 490.055 819.867 497.686 808.018 503.109C796.169 508.33 782.311 510.941 766.446 510.941Z" fill="white"/>
<path d="M1528.2 206.682L1494.31 160.817L1487.98 152.231L1438.95 87.6138H1473.3L1506.28 132.349L1513.29 141.838L1561.86 206.682H1528.2ZM1438.73 206.682L1485.95 143.42L1501.76 162.399L1471.49 206.682H1438.73ZM1513.29 151.102L1498.15 132.349L1525.49 87.6138H1558.25L1513.29 151.102Z" fill="#C7C7C7"/>
<path d="M1375.24 208.942C1362.74 208.942 1351.67 206.306 1342.03 201.034C1332.54 195.763 1325.08 188.608 1319.66 179.57C1314.39 170.382 1311.75 159.914 1311.75 148.165C1311.75 138.827 1313.26 130.316 1316.27 122.635C1319.28 114.953 1323.43 108.325 1328.7 102.752C1334.12 97.0286 1340.52 92.6605 1347.9 89.648C1355.43 86.4849 1363.64 84.9033 1372.53 84.9033C1380.36 84.9033 1387.67 86.4096 1394.44 89.422C1401.22 92.4345 1407.1 96.5767 1412.07 101.849C1417.04 106.97 1420.8 113.145 1423.36 120.375C1426.08 127.455 1427.36 135.212 1427.21 143.647L1426.98 153.362H1330.5L1325.31 134.383H1403.71L1400.09 138.224V133.254C1399.64 128.584 1398.13 124.517 1395.57 121.053C1393.01 117.438 1389.7 114.652 1385.63 112.693C1381.72 110.585 1377.35 109.53 1372.53 109.53C1365.15 109.53 1358.9 110.961 1353.78 113.823C1348.81 116.685 1345.04 120.827 1342.48 126.25C1339.92 131.521 1338.64 138.149 1338.64 146.132C1338.64 153.814 1340.22 160.517 1343.38 166.24C1346.7 171.964 1351.29 176.407 1357.17 179.57C1363.19 182.583 1370.19 184.089 1378.18 184.089C1383.75 184.089 1388.87 183.185 1393.54 181.378C1398.21 179.57 1403.26 176.332 1408.68 171.663L1422.46 190.867C1418.39 194.633 1413.72 197.871 1408.45 200.582C1403.33 203.143 1397.91 205.177 1392.19 206.683C1386.46 208.189 1380.81 208.942 1375.24 208.942Z" fill="#C7C7C7"/>
<path d="M1245.6 206.681V57.3374H1273.39V206.681H1245.6ZM1222.1 113.369V87.6128H1299.37V113.369H1222.1Z" fill="#C7C7C7"/>
<path d="M1095.04 206.682V87.6137H1122.16L1122.61 112.015L1117.41 114.726C1118.92 109.304 1121.85 104.408 1126.22 100.04C1130.59 95.5215 1135.79 91.9065 1141.81 89.1953C1147.84 86.484 1154.01 85.1284 1160.34 85.1284C1169.38 85.1284 1176.91 86.9359 1182.93 90.5509C1189.11 94.1659 1193.7 99.5883 1196.71 106.818C1199.88 114.048 1201.46 123.086 1201.46 133.931V206.682H1173.67V135.964C1173.67 129.939 1172.84 124.968 1171.18 121.052C1169.53 116.985 1166.97 114.048 1163.5 112.241C1160.04 110.283 1155.82 109.379 1150.85 109.529C1146.78 109.529 1143.02 110.207 1139.55 111.563C1136.24 112.768 1133.3 114.575 1130.74 116.985C1128.33 119.245 1126.37 121.881 1124.87 124.893C1123.51 127.906 1122.83 131.219 1122.83 134.834V206.682H1109.05C1106.34 206.682 1103.78 206.682 1101.37 206.682C1099.11 206.682 1097 206.682 1095.04 206.682Z" fill="#C7C7C7"/>
<path d="M1032.01 206.682V87.6141H1059.8V206.682H1032.01ZM1045.57 62.3093C1040 62.3093 1035.63 60.9537 1032.47 58.2425C1029.45 55.3806 1027.95 51.3891 1027.95 46.2679C1027.95 41.4479 1029.53 37.5317 1032.69 34.5192C1035.86 31.5067 1040.15 30.0005 1045.57 30.0005C1051.29 30.0005 1055.66 31.4314 1058.67 34.2933C1061.84 37.0045 1063.42 40.996 1063.42 46.2679C1063.42 50.9372 1061.84 54.7781 1058.67 57.7906C1055.51 60.8031 1051.14 62.3093 1045.57 62.3093Z" fill="#C7C7C7"/>
<path d="M928.851 208.941C919.06 208.941 910.173 206.23 902.19 200.808C894.207 195.385 887.806 188.005 882.986 178.666C878.166 169.327 875.756 158.708 875.756 146.809C875.756 134.91 878.166 124.291 882.986 114.952C887.806 105.613 894.358 98.308 902.642 93.0362C910.927 87.7643 920.265 85.1284 930.658 85.1284C936.683 85.1284 942.181 86.0322 947.152 87.8397C952.122 89.4965 956.49 91.9065 960.256 95.0696C964.021 98.2327 967.109 101.848 969.519 105.915C972.08 109.981 973.812 114.349 974.716 119.019L968.616 117.437V87.6137H996.632V206.682H968.39V178.214L974.942 177.084C973.887 181.151 971.929 185.143 969.067 189.059C966.356 192.825 962.892 196.214 958.674 199.226C954.607 202.088 950.013 204.423 944.892 206.23C939.922 208.038 934.575 208.941 928.851 208.941ZM936.533 184.314C943.009 184.314 948.733 182.733 953.704 179.57C958.674 176.407 962.515 172.038 965.226 166.465C968.088 160.742 969.519 154.189 969.519 146.809C969.519 139.579 968.088 133.177 965.226 127.604C962.515 122.031 958.674 117.663 953.704 114.5C948.733 111.337 943.009 109.755 936.533 109.755C930.056 109.755 924.332 111.337 919.361 114.5C914.542 117.663 910.776 122.031 908.065 127.604C905.353 133.177 903.998 139.579 903.998 146.809C903.998 154.189 905.353 160.742 908.065 166.465C910.776 172.038 914.542 176.407 919.361 179.57C924.332 182.733 930.056 184.314 936.533 184.314Z" fill="#C7C7C7"/>
<path d="M692.488 206.682V48.5273H720.278L777.892 142.291L761.625 142.065L819.916 48.5273H846.351V206.682H817.205V147.261C817.205 133.705 817.506 121.505 818.109 110.66C818.862 99.8148 820.067 89.0452 821.724 78.3509L825.339 88.0661L776.31 163.755H761.399L713.952 88.7439L717.115 78.3509C718.772 88.4427 719.902 98.8357 720.504 109.53C721.257 120.074 721.634 132.651 721.634 147.261V206.682H692.488Z" fill="#C7C7C7"/>
</svg>
