<svg width="2580" height="512" viewBox="0 0 2580 512" fill="none" xmlns="http://www.w3.org/2000/svg">
<path d="M2390.95 474.798L2439.29 363.009L2439.72 398.402L2327.5 148.063H2388.79L2451.38 296.54C2453.39 300.281 2455.41 305.316 2457.42 311.647C2459.44 317.689 2461.16 323.732 2462.6 329.775L2451.81 333.228C2453.82 327.76 2455.98 322.006 2458.28 315.963C2460.59 309.633 2462.74 303.158 2464.76 296.54L2518.28 148.063H2580L2485.04 375.526L2446.2 474.798H2390.95Z" fill="white"/>
<path d="M2207.69 375.525V127.777C2207.69 113.965 2210.71 101.736 2216.76 91.089C2222.8 80.1547 2231.14 71.6662 2241.79 65.6235C2252.44 59.2931 2264.81 56.1279 2278.91 56.1279C2288.69 56.1279 2297.76 57.8544 2306.1 61.3073C2314.45 64.4725 2321.5 68.9326 2327.25 74.6875L2310.85 114.828C2307.11 111.663 2303.08 109.217 2298.77 107.49C2294.74 105.764 2290.85 104.901 2287.11 104.901C2281.36 104.901 2276.46 105.908 2272.44 107.922C2268.7 109.649 2265.82 112.382 2263.8 116.123C2262.08 119.864 2261.21 124.324 2261.21 129.503V375.525H2234.45C2229.27 375.525 2224.38 375.525 2219.78 375.525C2215.46 375.525 2211.43 375.525 2207.69 375.525ZM2172.3 199.425V152.81H2312.58V199.425H2172.3Z" fill="white"/>
<path d="M2066.57 375.525V148.063H2119.66V375.525H2066.57ZM2092.47 99.7214C2081.82 99.7214 2073.47 97.1317 2067.43 91.9523C2061.68 86.4851 2058.8 78.8598 2058.8 69.0765C2058.8 59.8687 2061.82 52.3873 2067.86 46.6324C2073.91 40.8775 2082.11 38 2092.47 38C2103.4 38 2111.74 40.7336 2117.5 46.2008C2123.54 51.3802 2126.56 59.0054 2126.56 69.0765C2126.56 77.9966 2123.54 85.3341 2117.5 91.089C2111.46 96.8439 2103.11 99.7214 2092.47 99.7214Z" fill="white"/>
<path d="M1655.86 375.524V148.061H1708.09L1708.95 193.813L1700.32 197.266C1702.91 189.784 1706.79 182.879 1711.97 176.548C1717.15 169.93 1723.34 164.319 1730.53 159.715C1737.72 154.823 1745.35 151.083 1753.41 148.493C1761.46 145.615 1769.66 144.177 1778.01 144.177C1790.38 144.177 1801.32 146.191 1810.81 150.219C1820.6 153.96 1828.65 160.003 1834.98 168.347C1841.6 176.692 1846.49 187.339 1849.66 200.287L1841.46 198.561L1844.91 191.655C1848.08 184.749 1852.54 178.562 1858.29 173.095C1864.05 167.34 1870.52 162.305 1877.71 157.989C1884.91 153.385 1892.39 149.932 1900.16 147.63C1908.21 145.328 1916.13 144.177 1923.9 144.177C1941.16 144.177 1955.55 147.63 1967.06 154.536C1978.57 161.441 1987.2 171.944 1992.96 186.044C1998.71 200.143 2001.59 217.552 2001.59 238.269V375.524H1948.07V241.722C1948.07 230.213 1946.48 220.717 1943.32 213.236C1940.44 205.754 1935.84 200.287 1929.51 196.834C1923.46 193.093 1915.84 191.223 1906.63 191.223C1899.44 191.223 1892.53 192.518 1885.91 195.108C1879.58 197.41 1874.12 200.863 1869.51 205.467C1864.91 209.783 1861.31 214.818 1858.72 220.573C1856.13 226.328 1854.84 232.658 1854.84 239.564V375.524H1801.32V241.291C1801.32 230.357 1799.73 221.293 1796.57 214.099C1793.4 206.618 1788.8 201.006 1782.76 197.266C1776.71 193.237 1769.38 191.223 1760.74 191.223C1753.55 191.223 1746.79 192.518 1740.46 195.108C1734.13 197.41 1728.66 200.719 1724.06 205.035C1719.45 209.351 1715.86 214.387 1713.27 220.142C1710.68 225.896 1709.38 232.227 1709.38 239.133V375.524H1655.86Z" fill="white"/>
<path d="M1465.69 379.839C1446.99 379.839 1430.01 374.66 1414.76 364.301C1399.51 353.942 1387.28 339.843 1378.08 322.002C1368.87 304.162 1364.26 283.876 1364.26 261.144C1364.26 238.412 1368.87 218.126 1378.08 200.286C1387.28 182.446 1399.8 168.49 1415.63 158.419C1431.45 148.348 1449.29 143.312 1469.15 143.312C1480.66 143.312 1491.16 145.039 1500.66 148.492C1510.15 151.657 1518.5 156.261 1525.69 162.304C1532.88 168.346 1538.78 175.252 1543.39 183.021C1548.28 190.79 1551.59 199.135 1553.31 208.055L1541.66 205.034V148.06H1595.18V375.523H1541.23V321.139L1553.74 318.981C1551.73 326.75 1547.99 334.375 1542.52 341.857C1537.34 349.05 1530.72 355.525 1522.67 361.28C1514.9 366.747 1506.12 371.207 1496.34 374.66C1486.84 378.113 1476.63 379.839 1465.69 379.839ZM1480.37 332.793C1492.74 332.793 1503.68 329.772 1513.17 323.729C1522.67 317.686 1530.01 309.342 1535.18 298.695C1540.65 287.761 1543.39 275.244 1543.39 261.144C1543.39 247.332 1540.65 235.103 1535.18 224.457C1530.01 213.81 1522.67 205.466 1513.17 199.423C1503.68 193.38 1492.74 190.359 1480.37 190.359C1468 190.359 1457.06 193.38 1447.57 199.423C1438.36 205.466 1431.16 213.81 1425.99 224.457C1420.81 235.103 1418.22 247.332 1418.22 261.144C1418.22 275.244 1420.81 287.761 1425.99 298.695C1431.16 309.342 1438.36 317.686 1447.57 323.729C1457.06 329.772 1468 332.793 1480.37 332.793Z" fill="white"/>
<path d="M1233.51 379.841C1209.62 379.841 1188.48 374.806 1170.06 364.735C1151.93 354.663 1137.69 340.996 1127.33 323.731C1117.26 306.178 1112.22 286.18 1112.22 263.736C1112.22 245.896 1115.1 229.638 1120.86 214.963C1126.61 200.288 1134.52 187.627 1144.59 176.981C1154.95 166.046 1167.18 157.702 1181.28 151.947C1195.67 145.904 1211.35 142.883 1228.33 142.883C1243.29 142.883 1257.25 145.76 1270.2 151.515C1283.14 157.27 1294.37 165.183 1303.86 175.254C1313.36 185.038 1320.55 196.835 1325.44 210.647C1330.62 224.171 1333.07 238.99 1332.78 255.104L1332.35 273.663H1148.05L1138.12 237.407H1287.89L1280.99 244.745V235.249C1280.12 226.329 1277.24 218.56 1272.35 211.942C1267.46 205.036 1261.13 199.713 1253.36 195.972C1245.88 191.943 1237.54 189.929 1228.33 189.929C1214.23 189.929 1202.29 192.663 1192.5 198.13C1183.01 203.597 1175.81 211.51 1170.92 221.869C1166.03 231.94 1163.59 244.601 1163.59 259.851C1163.59 274.526 1166.61 287.331 1172.65 298.265C1178.98 309.2 1187.76 317.688 1198.98 323.731C1210.49 329.486 1223.87 332.363 1239.12 332.363C1249.77 332.363 1259.55 330.637 1268.47 327.184C1277.39 323.731 1287.03 317.544 1297.39 308.624L1323.72 345.312C1315.95 352.505 1307.03 358.692 1296.96 363.871C1287.17 368.763 1276.81 372.648 1265.88 375.525C1254.94 378.402 1244.15 379.841 1233.51 379.841Z" fill="white"/>
<path d="M979.324 375.526V125.188H893V73.3936H1124.35V125.188H1035.43V375.526H979.324Z" fill="white"/>
<path d="M502.649 19.0144C517.413 34.5996 521.615 51.3204 521.294 72.0743C520.73 87.1265 517.595 101.939 514.906 116.727C514.26 120.36 513.621 123.995 512.981 127.63C511.431 136.415 509.857 145.196 508.275 153.975C506.428 164.226 504.606 174.482 502.785 184.737C499.533 203.048 496.259 221.354 492.973 239.658C489.793 257.372 486.628 275.088 483.478 292.807C483.284 293.9 483.09 294.992 482.89 296.117C482.696 297.208 482.502 298.298 482.303 299.422C481.912 301.619 481.522 303.815 481.132 306.011C480.939 307.095 480.746 308.178 480.548 309.295C477.533 326.253 474.506 343.209 471.477 360.165C470.384 366.284 469.293 372.403 468.203 378.523C466.474 388.229 464.74 397.934 462.995 407.638C462.199 412.064 461.405 416.49 460.619 420.918C449.343 484.313 449.343 484.313 425.504 501.06C422.596 502.761 419.692 504.184 416.604 505.534C415.509 506.032 414.413 506.53 413.284 507.043C396.522 513.92 379.157 513.336 362.322 507.176C343.807 499.263 332.04 486.335 324.069 468.03C316.554 445.455 323.173 419.413 327.279 396.842C327.895 393.369 328.508 389.897 329.12 386.424C330.603 378.025 332.108 369.631 333.621 361.238C335.389 351.426 337.133 341.609 338.876 331.792C341.992 314.248 345.127 296.707 348.275 279.169C351.315 262.228 354.344 245.284 357.358 228.338C357.544 227.295 357.73 226.252 357.921 225.178C358.667 220.983 359.413 216.789 360.159 212.594C363.225 195.361 366.299 178.129 369.376 160.898C370.072 156.999 370.767 153.1 371.463 149.201C373.292 138.946 375.124 128.692 376.965 118.44C377.724 114.209 378.482 109.978 379.237 105.746C382.13 89.5275 385.111 73.3313 388.409 57.1891C388.668 55.8938 388.927 54.5984 389.194 53.2638C392.987 35.0775 403.412 20.1867 418.765 9.4088C446.37 -5.84834 479.345 -2.48246 502.649 19.0144Z" fill="#8B8B8B"/>
<path d="M313.806 81.8232C327.555 93.4375 335.81 108.941 338.062 126.82C338.788 138.921 337.084 150.361 334.926 162.232C334.582 164.184 334.239 166.135 333.897 168.088C332.961 173.419 332.007 178.748 331.051 184.076C330.033 189.763 329.029 195.453 328.024 201.143C326.714 208.555 325.403 215.967 324.086 223.377C320.665 242.65 317.319 261.936 313.998 281.226C312.323 290.947 310.642 300.666 308.96 310.386C307.579 318.372 306.202 326.359 304.833 334.348C303.532 341.939 302.22 349.528 300.898 357.116C300.412 359.922 299.93 362.729 299.452 365.537C294.901 392.26 289.9 416.759 266.715 433.559C250.111 444.092 231.355 447.195 212.105 442.896C194.227 437.787 180.27 427.007 171.214 410.747C158.17 385.187 164.418 359.68 169.149 332.684C169.542 330.424 169.933 328.164 170.325 325.904C171.378 319.832 172.438 313.762 173.499 307.691C174.164 303.887 174.827 300.082 175.49 296.277C177.809 282.971 180.133 269.666 182.462 256.362C184.625 244.009 186.775 231.654 188.92 219.298C190.771 208.641 192.63 197.985 194.496 187.33C195.606 180.987 196.713 174.644 197.811 168.3C198.844 162.335 199.888 156.373 200.939 150.412C201.321 148.237 201.699 146.062 202.073 143.887C206.614 117.498 212.238 93.8933 235.185 77.4893C260.104 62.1063 290.661 64.4111 313.806 81.8232Z" fill="#F1F1F1"/>
<path d="M135.657 145.877C150.57 161.61 154.381 178.184 154.103 198.963C153.699 211.421 151.298 223.58 149.027 235.809C148.535 238.547 148.045 241.285 147.556 244.023C146.538 249.707 145.504 255.389 144.458 261.069C143.124 268.318 141.816 275.572 140.518 282.829C139.51 288.461 138.492 294.091 137.471 299.721C136.987 302.396 136.503 305.07 136.021 307.746C135.346 311.482 134.66 315.217 133.971 318.951C133.776 320.034 133.582 321.116 133.382 322.232C129.454 343.274 121.573 361.1 103.294 373.718C86.8881 383.694 70.6291 386.664 51.513 383.66C33.1092 379.03 18.3931 368.589 8.49889 352.531C-4.74768 328.287 0.256154 302.157 5.07824 276.054C5.56695 273.323 6.054 270.592 6.53949 267.86C7.55266 262.186 8.58075 256.515 9.62097 250.847C10.9463 243.621 12.2409 236.39 13.5254 229.158C14.5259 223.536 15.5387 217.917 16.5556 212.299C17.0371 209.634 17.5158 206.968 17.9915 204.302C22.3464 179.993 26.7951 155.861 47.5803 139.847C75.9461 121.821 110.274 122.476 135.657 145.877Z" fill="#8B8B8B"/>
<path d="M652.116 142.581C664.613 154.108 672.332 169.267 673.32 186.171C673.68 202.99 671.336 218.875 668.297 235.38C667.805 238.132 667.315 240.884 666.826 243.636C665.806 249.357 664.772 255.074 663.725 260.79C662.393 268.075 661.09 275.365 659.796 282.658C658.79 288.323 657.77 293.986 656.747 299.649C656.262 302.336 655.781 305.023 655.302 307.711C650.769 333.069 646.068 357.585 623.749 373.55C606.967 384.136 588.586 388.289 568.895 384.344C550.512 378.921 535.581 367.996 525.893 351.449C513.487 327.544 518.726 301.425 523.44 276.029C523.935 273.272 524.428 270.516 524.92 267.759C525.945 262.036 526.985 256.315 528.037 250.596C529.38 243.297 530.696 235.994 532.002 228.688C533.018 223.017 534.041 217.348 535.069 211.68C535.556 208.987 536.043 206.294 536.528 203.601C537.208 199.838 537.898 196.078 538.592 192.318C538.787 191.228 538.982 190.138 539.184 189.015C543.137 167.829 551.067 149.881 569.462 137.177C596.309 120.843 627.496 122.786 652.116 142.581Z" fill="#F1F1F1"/>
</svg>
