<svg width="3419" height="548" viewBox="0 0 3419 548" fill="none" xmlns="http://www.w3.org/2000/svg">
<path d="M74.8328 446.762V379.187V336.184V257.998L164.185 311.611V501.493L231.758 546.729L230.641 268.608L0 134.836L3.90917 404.318L74.8328 446.762Z" fill="#BFBFBF"/>
<path d="M246.836 547.857L392.592 460.735L423.865 442.305L480.828 409.914V327.259L315.525 422.2V313.856L480.828 221.149V144.638L245.16 268.619L246.836 547.857Z" fill="white"/>
<path d="M232.879 0.573242L1.12109 126.789L70.9277 168.116L232.879 74.8505L402.09 175.935L471.339 139.075L232.879 0.573242Z" fill="#7E7E7E" stroke="black"/>
<path d="M3291.63 457.601C3267.23 457.601 3245.45 452.195 3226.29 441.381C3207.14 430.259 3192 415.121 3180.88 395.966C3169.75 376.812 3164.19 355.031 3164.19 330.624C3164.19 306.218 3169.75 284.437 3180.88 265.282C3192 246.128 3207.14 231.144 3226.29 220.331C3245.45 209.208 3267.23 203.647 3291.63 203.647C3315.73 203.647 3337.36 209.208 3356.51 220.331C3375.67 231.144 3390.65 246.128 3401.46 265.282C3412.59 284.437 3418.15 306.218 3418.15 330.624C3418.15 355.031 3412.59 376.812 3401.46 395.966C3390.65 415.121 3375.67 430.259 3356.51 441.381C3337.36 452.195 3315.73 457.601 3291.63 457.601ZM3291.63 407.088C3304.92 407.088 3316.66 403.69 3326.85 396.893C3337.36 390.096 3345.54 380.983 3351.41 369.552C3357.59 358.121 3360.53 345.145 3360.22 330.624C3360.53 315.795 3357.59 302.665 3351.41 291.234C3345.54 279.803 3337.36 270.843 3326.85 264.355C3316.66 257.559 3304.92 254.16 3291.63 254.16C3278.35 254.16 3266.3 257.559 3255.49 264.355C3244.98 270.843 3236.8 279.957 3230.93 291.697C3225.06 303.128 3222.12 316.104 3222.12 330.624C3222.12 345.145 3225.06 358.121 3230.93 369.552C3236.8 380.983 3244.98 390.096 3255.49 396.893C3266.3 403.69 3278.35 407.088 3291.63 407.088Z" fill="white" fill-opacity="0.75"/>
<path d="M2995.3 452.967V208.745H3051.38L3052.31 286.6L3044.43 268.99C3047.83 256.632 3053.7 245.51 3062.04 235.623C3070.38 225.737 3079.96 218.013 3090.77 212.452C3101.89 206.582 3113.48 203.647 3125.53 203.647C3130.78 203.647 3135.72 204.111 3140.35 205.038C3145.3 205.965 3149.31 207.046 3152.4 208.282L3137.11 270.843C3133.71 268.99 3129.54 267.445 3124.6 266.209C3119.66 264.973 3114.71 264.355 3109.77 264.355C3102.05 264.355 3094.63 265.9 3087.52 268.99C3080.73 271.77 3074.7 275.786 3069.45 281.039C3064.2 286.291 3060.03 292.47 3056.94 299.575C3054.16 306.372 3052.77 314.096 3052.77 322.746V452.967H2995.3Z" fill="white" fill-opacity="0.75"/>
<path d="M2707.27 452.968V128.574H2842.12C2860.66 128.574 2877.34 133.054 2892.17 142.013C2907.31 150.973 2919.36 163.176 2928.32 178.624C2937.28 194.071 2941.76 211.372 2941.76 230.527C2941.76 249.99 2937.28 267.6 2928.32 283.356C2919.36 298.804 2907.31 311.162 2892.17 320.43C2877.34 329.698 2860.66 334.333 2842.12 334.333H2767.51V452.968H2707.27ZM2767.51 278.722H2837.95C2845.67 278.722 2852.62 276.56 2858.8 272.234C2865.29 267.909 2870.39 262.194 2874.1 255.088C2878.11 247.982 2880.12 239.949 2880.12 230.99C2880.12 222.031 2878.11 214.152 2874.1 207.356C2870.39 200.25 2865.29 194.689 2858.8 190.672C2852.62 186.347 2845.67 184.185 2837.95 184.185H2767.51V278.722Z" fill="white" fill-opacity="0.75"/>
<path d="M2450.96 452.967L2381.45 358.893L2368.47 341.283L2267.91 208.745H2338.35L2406.01 300.502L2420.38 319.966L2520.01 452.967H2450.96ZM2267.45 452.967L2364.3 323.21L2396.74 362.137L2334.64 452.967H2267.45ZM2420.38 338.966L2389.33 300.502L2445.4 208.745H2512.6L2420.38 338.966Z" fill="white"/>
<path d="M2137.22 457.6C2111.58 457.6 2088.87 452.193 2069.1 441.38C2049.63 430.567 2034.34 415.892 2023.22 397.355C2012.41 378.51 2007 357.038 2007 332.94C2007 313.785 2010.09 296.33 2016.27 280.574C2022.45 264.817 2030.94 251.224 2041.76 239.793C2052.88 228.053 2066.01 219.093 2081.15 212.914C2096.59 206.427 2113.43 203.183 2131.66 203.183C2147.72 203.183 2162.71 206.272 2176.61 212.451C2190.51 218.63 2202.56 227.126 2212.76 237.939C2222.95 248.443 2230.68 261.11 2235.93 275.939C2241.49 290.46 2244.12 306.371 2243.81 323.672L2243.34 343.599H2045.46L2034.81 304.671H2195.61L2188.2 312.55V302.354C2187.27 292.777 2184.18 284.435 2178.93 277.33C2173.68 269.915 2166.88 264.199 2158.54 260.183C2150.51 255.858 2141.55 253.695 2131.66 253.695C2116.52 253.695 2103.7 256.63 2093.2 262.5C2083 268.37 2075.28 276.866 2070.02 287.988C2064.77 298.801 2062.15 312.395 2062.15 328.769C2062.15 344.526 2065.39 358.274 2071.88 370.014C2078.68 381.754 2088.1 390.867 2100.15 397.355C2112.51 403.534 2126.87 406.624 2143.25 406.624C2154.68 406.624 2165.18 404.77 2174.76 401.063C2184.33 397.355 2194.68 390.713 2205.81 381.136L2234.08 420.526C2225.73 428.25 2216.16 434.892 2205.34 440.453C2194.84 445.705 2183.72 449.876 2171.98 452.966C2160.24 456.055 2148.65 457.6 2137.22 457.6Z" fill="white"/>
<path d="M1871.32 452.967V146.646H1928.32V452.967H1871.32ZM1823.12 261.575V208.745H1981.61V261.575H1823.12Z" fill="white"/>
<path d="M1562.51 452.967V208.745H1618.12L1619.05 258.794L1608.39 264.355C1611.48 253.233 1617.5 243.193 1626.46 234.233C1635.42 224.965 1646.08 217.55 1658.44 211.989C1670.8 206.428 1683.46 203.647 1696.44 203.647C1714.97 203.647 1730.42 207.355 1742.78 214.77C1755.45 222.184 1764.87 233.306 1771.05 248.136C1777.54 262.965 1780.78 281.502 1780.78 303.746V452.967H1723.78V307.917C1723.78 295.559 1722.08 285.364 1718.68 277.331C1715.28 268.99 1710.03 262.965 1702.93 259.258C1695.82 255.241 1687.17 253.388 1676.97 253.697C1668.63 253.697 1660.91 255.087 1653.8 257.868C1647.01 260.339 1640.98 264.046 1635.73 268.99C1630.79 273.624 1626.77 279.03 1623.68 285.209C1620.9 291.388 1619.51 298.185 1619.51 305.6V452.967H1591.24C1585.68 452.967 1580.43 452.967 1575.49 452.967C1570.85 452.967 1566.53 452.967 1562.51 452.967Z" fill="white"/>
<path d="M1433.23 452.967V208.745H1490.23V452.967H1433.23ZM1461.03 156.842C1449.6 156.842 1440.64 154.062 1434.16 148.501C1427.98 142.631 1424.89 134.444 1424.89 123.939C1424.89 114.053 1428.13 106.021 1434.62 99.8416C1441.11 93.6627 1449.91 90.5732 1461.03 90.5732C1472.77 90.5732 1481.73 93.5082 1487.91 99.3782C1494.4 104.939 1497.64 113.126 1497.64 123.939C1497.64 133.517 1494.4 141.395 1487.91 147.574C1481.42 153.753 1472.46 156.842 1461.03 156.842Z" fill="white"/>
<path d="M1221.63 457.601C1201.55 457.601 1183.32 452.04 1166.95 440.918C1150.57 429.796 1137.44 414.658 1127.56 395.503C1117.67 376.348 1112.73 354.568 1112.73 330.161C1112.73 305.754 1117.67 283.973 1127.56 264.819C1137.44 245.664 1150.88 230.68 1167.88 219.867C1184.87 209.054 1204.02 203.647 1225.34 203.647C1237.7 203.647 1248.97 205.501 1259.17 209.208C1269.36 212.607 1278.32 217.55 1286.05 224.038C1293.77 230.526 1300.1 237.94 1305.05 246.282C1310.3 254.624 1313.85 263.583 1315.71 273.16L1303.19 269.916V208.745H1360.66V452.967H1302.73V394.576L1316.17 392.259C1314.01 400.601 1309.99 408.788 1304.12 416.82C1298.56 424.544 1291.45 431.495 1282.8 437.674C1274.46 443.544 1265.04 448.333 1254.53 452.04C1244.34 455.747 1233.37 457.601 1221.63 457.601ZM1237.39 407.088C1250.67 407.088 1262.41 403.845 1272.61 397.357C1282.8 390.869 1290.68 381.909 1296.24 370.478C1302.11 358.738 1305.05 345.299 1305.05 330.161C1305.05 315.331 1302.11 302.201 1296.24 290.77C1290.68 279.339 1282.8 270.38 1272.61 263.892C1262.41 257.404 1250.67 254.16 1237.39 254.16C1224.1 254.16 1212.36 257.404 1202.17 263.892C1192.28 270.38 1184.56 279.339 1179 290.77C1173.44 302.201 1170.66 315.331 1170.66 330.161C1170.66 345.299 1173.44 358.738 1179 370.478C1184.56 381.909 1192.28 390.869 1202.17 397.357C1212.36 403.845 1224.1 407.088 1237.39 407.088Z" fill="white"/>
<path d="M736.828 452.968V128.574H793.829L912 320.893L878.634 320.43L998.196 128.574H1052.42V452.968H992.635V331.089C992.635 303.283 993.253 278.259 994.489 256.015C996.034 233.771 998.505 211.681 1001.9 189.746L1009.32 209.673L908.757 364.918H878.171L780.853 211.063L787.341 189.746C790.739 210.445 793.056 231.762 794.292 253.698C795.837 275.324 796.609 301.121 796.609 331.089V452.968H736.828Z" fill="white"/>
</svg>
