<svg width="3530" height="511" viewBox="0 0 3530 511" fill="none" xmlns="http://www.w3.org/2000/svg">
<path d="M3362.21 501.369V448.075H3415.5V230.267H3362.21V176.974H3529.04V230.267H3475.74V448.075H3529.04V501.369H3362.21Z" fill="#151515" fill-opacity="0.75"/>
<path d="M3073.7 501.369V176.974H3208.56C3227.09 176.974 3243.78 181.453 3258.61 190.413C3273.74 199.372 3285.79 211.576 3294.75 227.023C3303.71 242.471 3308.19 259.772 3308.19 278.926C3308.19 298.39 3303.71 316 3294.75 331.757C3285.79 347.204 3273.74 359.562 3258.61 368.83C3243.78 378.099 3227.09 382.733 3208.56 382.733H3133.95V501.369H3073.7ZM3133.95 327.122H3204.39C3212.11 327.122 3219.06 324.96 3225.24 320.634C3231.73 316.309 3236.83 310.594 3240.53 303.488C3244.55 296.382 3246.56 288.349 3246.56 279.39C3246.56 270.43 3244.55 262.552 3240.53 255.755C3236.83 248.65 3231.73 243.088 3225.24 239.072C3219.06 234.747 3212.11 232.584 3204.39 232.584H3133.95V327.122Z" fill="#151515" fill-opacity="0.75"/>
<path d="M2713.97 501.369L2840.49 176.974H2897.02L3022.61 501.369H2960.05L2890.54 316.927C2888.99 313.22 2886.83 307.35 2884.05 299.317C2881.58 291.284 2878.8 282.634 2875.71 273.365C2872.62 263.788 2869.84 254.983 2867.37 246.95C2864.89 238.609 2863.04 232.584 2861.8 228.877L2873.39 228.413C2871.54 234.592 2869.37 241.544 2866.9 249.267C2864.43 256.991 2861.8 265.024 2859.02 273.365C2856.24 281.707 2853.46 289.74 2850.68 297.463C2848.21 305.187 2845.89 312.138 2843.73 318.317L2774.22 501.369H2713.97ZM2771.44 427.221L2792.29 374.855H2940.12L2962.37 427.221H2771.44Z" fill="#151515" fill-opacity="0.75"/>
<path d="M2493.81 501.367L2424.3 407.292L2411.32 389.682L2310.76 257.144H2381.2L2448.86 348.901L2463.23 368.365L2562.86 501.367H2493.81ZM2310.3 501.367L2407.15 371.609L2439.59 410.536L2377.49 501.367H2310.3ZM2463.23 387.365L2432.18 348.901L2488.25 257.144H2555.45L2463.23 387.365Z" fill="#151515"/>
<path d="M2180.08 506.001C2154.43 506.001 2131.73 500.594 2111.95 489.781C2092.49 478.968 2077.2 464.293 2066.08 445.756C2055.26 426.91 2049.86 405.438 2049.86 381.34C2049.86 362.185 2052.94 344.73 2059.12 328.973C2065.3 313.217 2073.8 299.623 2084.61 288.192C2095.73 276.452 2108.86 267.493 2124 261.314C2139.45 254.826 2156.29 251.582 2174.52 251.582C2190.58 251.582 2205.57 254.671 2219.47 260.85C2233.37 267.029 2245.42 275.525 2255.61 286.339C2265.81 296.843 2273.53 309.51 2278.79 324.339C2284.35 338.86 2286.97 354.771 2286.66 372.072L2286.2 391.999H2088.32L2077.66 353.071H2238.47L2231.05 360.95V350.754C2230.13 341.177 2227.04 332.835 2221.79 325.73C2216.53 318.315 2209.74 312.599 2201.39 308.583C2193.36 304.258 2184.4 302.095 2174.52 302.095C2159.38 302.095 2146.56 305.03 2136.05 310.9C2125.86 316.77 2118.13 325.266 2112.88 336.388C2107.63 347.201 2105 360.795 2105 377.169C2105 392.926 2108.25 406.674 2114.73 418.414C2121.53 430.154 2130.95 439.268 2143 445.756C2155.36 451.935 2169.73 455.024 2186.1 455.024C2197.53 455.024 2208.04 453.171 2217.61 449.463C2227.19 445.756 2237.54 439.113 2248.66 429.536L2276.93 468.927C2268.59 476.651 2259.01 483.293 2248.2 488.854C2237.7 494.106 2226.57 498.277 2214.83 501.366C2203.09 504.456 2191.51 506.001 2180.08 506.001Z" fill="#151515"/>
<path d="M1914.17 501.367V195.045H1971.17V501.367H1914.17ZM1865.97 309.974V257.143H2024.46V309.974H1865.97Z" fill="#151515"/>
<path d="M1605.36 501.369V257.146H1660.97L1661.9 307.195L1651.24 312.756C1654.33 301.634 1660.36 291.593 1669.32 282.634C1678.27 273.365 1688.93 265.951 1701.29 260.389C1713.65 254.828 1726.32 252.048 1739.29 252.048C1757.83 252.048 1773.28 255.755 1785.63 263.17C1798.3 270.585 1807.72 281.707 1813.9 296.536C1820.39 311.366 1823.63 329.903 1823.63 352.147V501.369H1766.63V356.318C1766.63 343.96 1764.93 333.765 1761.54 325.732C1758.14 317.39 1752.89 311.366 1745.78 307.658C1738.67 303.642 1730.02 301.788 1719.83 302.097C1711.49 302.097 1703.76 303.488 1696.66 306.268C1689.86 308.74 1683.84 312.447 1678.58 317.39C1673.64 322.025 1669.62 327.431 1666.53 333.61C1663.75 339.789 1662.36 346.586 1662.36 354.001V501.369H1634.1C1628.53 501.369 1623.28 501.369 1618.34 501.369C1613.7 501.369 1609.38 501.369 1605.36 501.369Z" fill="#151515"/>
<path d="M1476.08 501.368V257.145H1533.08V501.368H1476.08ZM1503.88 205.242C1492.45 205.242 1483.49 202.461 1477 196.9C1470.83 191.03 1467.74 182.843 1467.74 172.339C1467.74 162.453 1470.98 154.42 1477.47 148.241C1483.96 142.062 1492.76 138.973 1503.88 138.973C1515.62 138.973 1524.58 141.908 1530.76 147.778C1537.25 153.339 1540.49 161.526 1540.49 172.339C1540.49 181.916 1537.25 189.795 1530.76 195.974C1524.27 202.152 1515.31 205.242 1503.88 205.242Z" fill="#151515"/>
<path d="M1264.48 506.003C1244.4 506.003 1226.17 500.442 1209.8 489.32C1193.42 478.198 1180.29 463.059 1170.41 443.904C1160.52 424.75 1155.58 402.969 1155.58 378.562C1155.58 354.155 1160.52 332.374 1170.41 313.22C1180.29 294.065 1193.73 279.081 1210.73 268.268C1227.72 257.454 1246.87 252.048 1268.19 252.048C1280.55 252.048 1291.82 253.902 1302.02 257.609C1312.21 261.007 1321.17 265.951 1328.9 272.438C1336.62 278.926 1342.96 286.341 1347.9 294.683C1353.15 303.024 1356.7 311.984 1358.56 321.561L1346.04 318.317V257.146H1403.51V501.369H1345.58V442.978L1359.02 440.661C1356.86 449.002 1352.84 457.189 1346.97 465.222C1341.41 472.946 1334.3 479.897 1325.65 486.076C1317.31 491.946 1307.89 496.735 1297.39 500.442C1287.19 504.149 1276.22 506.003 1264.48 506.003ZM1280.24 455.49C1293.52 455.49 1305.26 452.246 1315.46 445.758C1325.65 439.27 1333.53 430.311 1339.09 418.88C1344.96 407.14 1347.9 393.7 1347.9 378.562C1347.9 363.732 1344.96 350.602 1339.09 339.171C1333.53 327.74 1325.65 318.781 1315.46 312.293C1305.26 305.805 1293.52 302.561 1280.24 302.561C1266.95 302.561 1255.21 305.805 1245.02 312.293C1235.13 318.781 1227.41 327.74 1221.85 339.171C1216.29 350.602 1213.51 363.732 1213.51 378.562C1213.51 393.7 1216.29 407.14 1221.85 418.88C1227.41 430.311 1235.13 439.27 1245.02 445.758C1255.21 452.246 1266.95 455.49 1280.24 455.49Z" fill="#151515"/>
<path d="M779.674 501.369V176.974H836.675L954.847 369.294L921.481 368.83L1041.04 176.974H1095.26V501.369H1035.48V379.489C1035.48 351.684 1036.1 326.659 1037.34 304.415C1038.88 282.17 1041.35 260.081 1044.75 238.145L1052.17 258.072L951.603 413.319H921.017L823.699 259.463L830.187 238.145C833.585 258.845 835.902 280.162 837.138 302.098C838.683 323.724 839.455 349.521 839.455 379.489V501.369H779.674Z" fill="#151515"/>
<path d="M318.052 177.684L333.154 177.684L333.154 192.787L318.052 177.684ZM254.7 177.684L271.331 177.684L333.154 239.508L333.154 256.139L254.7 177.684ZM213.87 177.684L232.714 177.684L333.154 278.126L333.154 296.968L213.87 177.684ZM177.685 182.336L177.685 177.684L191.884 177.684L333.154 318.955L333.154 333.154L328.503 333.154L177.685 182.336ZM287.036 177.684L303.27 177.684L333.154 207.569L333.154 223.803L287.036 177.684ZM177.685 220.029L177.685 204.322L306.517 333.154L290.81 333.154L177.685 220.029ZM177.685 258.103L177.685 250.038L260.801 333.154L252.736 333.154L177.685 258.103ZM177.685 301.21L177.685 292.251L218.588 333.154L209.629 333.154L177.685 301.21ZM177.685 319.695L191.144 333.154L177.685 333.154L177.685 319.695Z" fill="#151515"/>
<path d="M140.374 0.000975243L155.473 0.000976563L155.473 15.1006L140.374 0.000975243ZM77.0117 0.000969703L93.6465 0.000971157L155.473 61.8281L155.473 78.4629L77.0117 0.000969703ZM36.1865 0.000966134L55.0244 0.000967781L155.473 100.449L155.473 119.289L36.1865 0.000966134ZM0.00196631 4.666L0.00196672 0.000962971L14.1983 0.000964212L155.473 141.275L155.473 155.472L150.808 155.472L0.00196631 4.666ZM109.352 0.00097253L125.592 0.00097395L155.473 29.8828L155.473 46.123L109.352 0.00097253ZM0.00196301 42.3535L0.00196439 26.6533L128.82 155.472L113.12 155.472L0.00196301 42.3535ZM0.00195969 80.4267L0.00196039 72.3613L83.1123 155.472L75.0469 155.472L0.00195969 80.4267ZM0.00195592 123.529L0.0019567 114.573L40.9004 155.472L31.9443 155.472L0.00195592 123.529ZM0.0019543 142.016L13.458 155.472L0.00195312 155.472L0.0019543 142.016Z" fill="#151515"/>
<path d="M140.377 355.363L155.473 355.363L155.473 370.459L140.377 355.363ZM77.0147 355.363L93.6494 355.363L155.473 417.187L155.473 433.822L77.0147 355.363ZM36.1963 355.363L55.0283 355.363L155.473 455.809L155.473 474.641L36.1963 355.363ZM0.00196631 360.025L0.00196672 355.363L14.21 355.363L155.473 496.627L155.473 510.834L150.811 510.834L0.00196631 360.025ZM109.355 355.363L125.595 355.363L155.473 385.242L155.473 401.482L109.355 355.363ZM0.00196301 397.712L0.00196439 382.012L128.824 510.834L113.124 510.834L0.00196301 397.712ZM0.00195969 435.786L0.00196039 427.721L83.1152 510.834L75.0498 510.834L0.00195969 435.786ZM0.00195592 478.889L0.0019567 469.933L40.9033 510.834L31.9473 510.834L0.00195592 478.889ZM0.0019543 497.374L13.4619 510.834L0.00195312 510.834L0.0019543 497.374Z" fill="#151515"/>
<path d="M495.735 355.359L510.838 355.359L510.838 370.463L495.735 355.359ZM432.376 355.359L449.011 355.359L510.838 417.187L510.838 433.821L432.376 355.359ZM391.547 355.359L410.39 355.359L510.838 455.809L510.838 474.651L391.547 355.359ZM355.368 360.019L355.368 355.359L369.561 355.359L510.838 496.639L510.838 510.83L506.18 510.83L355.368 360.019ZM464.716 355.359L480.953 355.359L510.838 385.244L510.838 401.481L464.716 355.359ZM355.368 397.716L355.368 382.005L484.192 510.83L468.481 510.83L355.368 397.716ZM355.368 435.786L355.368 427.725L438.474 510.83L430.412 510.83L355.368 435.786ZM355.368 478.893L355.368 469.934L396.265 510.83L387.306 510.83L355.368 478.893ZM355.368 497.378L368.82 510.83L355.368 510.83L355.368 497.378Z" fill="#151515"/>
<rect x="510.838" y="333.154" width="155.47" height="155.471" transform="rotate(-180 510.838 333.154)" fill="#151515"/>
<rect x="510.838" y="333.154" width="155.47" height="155.471" transform="rotate(-180 510.838 333.154)" fill="#151515"/>
<rect x="333.154" y="155.472" width="155.47" height="155.471" transform="rotate(-180 333.154 155.472)" fill="#151515"/>
<rect x="155.471" y="333.154" width="155.47" height="155.471" transform="rotate(-180 155.471 333.154)" fill="#151515"/>
</svg>
