<svg width="3419" height="548" viewBox="0 0 3419 548" fill="none" xmlns="http://www.w3.org/2000/svg">
<path d="M74.8328 446.189V378.613V335.611V257.424L164.185 311.038V500.92L231.758 546.156L230.641 268.035L0 134.263L3.90917 403.745L74.8328 446.189Z" fill="#242424"/>
<path d="M246.836 547.284L392.592 460.162L423.865 441.732L480.828 409.34V326.686L315.525 421.627V313.283L480.828 220.576V144.064L245.16 268.046L246.836 547.284Z" fill="#151515"/>
<path d="M232.879 0L1.12109 126.216L70.9277 167.543L232.879 74.2773L402.09 175.361L471.339 138.502L232.879 0Z" fill="#222222"/>
<path d="M3291.63 457.028C3267.23 457.028 3245.45 451.621 3226.29 440.808C3207.14 429.686 3192 414.548 3180.88 395.393C3169.75 376.238 3164.19 354.458 3164.19 330.051C3164.19 305.644 3169.75 283.864 3180.88 264.709C3192 245.554 3207.14 230.57 3226.29 219.757C3245.45 208.635 3267.23 203.074 3291.63 203.074C3315.73 203.074 3337.36 208.635 3356.51 219.757C3375.67 230.57 3390.65 245.554 3401.46 264.709C3412.59 283.864 3418.15 305.644 3418.15 330.051C3418.15 354.458 3412.59 376.238 3401.46 395.393C3390.65 414.548 3375.67 429.686 3356.51 440.808C3337.36 451.621 3315.73 457.028 3291.63 457.028ZM3291.63 406.515C3304.92 406.515 3316.66 403.117 3326.85 396.32C3337.36 389.523 3345.54 380.409 3351.41 368.978C3357.59 357.547 3360.53 344.572 3360.22 330.051C3360.53 315.222 3357.59 302.091 3351.41 290.66C3345.54 279.229 3337.36 270.27 3326.85 263.782C3316.66 256.985 3304.92 253.587 3291.63 253.587C3278.35 253.587 3266.3 256.985 3255.49 263.782C3244.98 270.27 3236.8 279.384 3230.93 291.124C3225.06 302.555 3222.12 315.531 3222.12 330.051C3222.12 344.572 3225.06 357.547 3230.93 368.978C3236.8 380.409 3244.98 389.523 3255.49 396.32C3266.3 403.117 3278.35 406.515 3291.63 406.515Z" fill="#151515" fill-opacity="0.75"/>
<path d="M2995.3 452.394V208.172H3051.38L3052.31 286.026L3044.43 268.416C3047.83 256.059 3053.7 244.936 3062.04 235.05C3070.38 225.164 3079.96 217.44 3090.77 211.879C3101.89 206.009 3113.48 203.074 3125.53 203.074C3130.78 203.074 3135.72 203.538 3140.35 204.464C3145.3 205.391 3149.31 206.473 3152.4 207.708L3137.11 270.27C3133.71 268.416 3129.54 266.872 3124.6 265.636C3119.66 264.4 3114.71 263.782 3109.77 263.782C3102.05 263.782 3094.63 265.327 3087.52 268.416C3080.73 271.197 3074.7 275.213 3069.45 280.465C3064.2 285.717 3060.03 291.896 3056.94 299.002C3054.16 305.799 3052.77 313.523 3052.77 322.173V452.394H2995.3Z" fill="#151515" fill-opacity="0.75"/>
<path d="M2707.27 452.395V128.001H2842.12C2860.66 128.001 2877.34 132.481 2892.17 141.44C2907.31 150.4 2919.36 162.603 2928.32 178.05C2937.28 193.498 2941.76 210.799 2941.76 229.953C2941.76 249.417 2937.28 267.027 2928.32 282.783C2919.36 298.231 2907.31 310.588 2892.17 319.857C2877.34 329.125 2860.66 333.759 2842.12 333.759H2767.51V452.395H2707.27ZM2767.51 278.149H2837.95C2845.67 278.149 2852.62 275.986 2858.8 271.661C2865.29 267.336 2870.39 261.62 2874.1 254.515C2878.11 247.409 2880.12 239.376 2880.12 230.417C2880.12 221.457 2878.11 213.579 2874.1 206.782C2870.39 199.677 2865.29 194.116 2858.8 190.099C2852.62 185.774 2845.67 183.611 2837.95 183.611H2767.51V278.149Z" fill="#151515" fill-opacity="0.75"/>
<path d="M2450.96 452.394L2381.45 358.32L2368.47 340.71L2267.91 208.172H2338.35L2406.01 299.929L2420.38 319.393L2520.01 452.394H2450.96ZM2267.45 452.394L2364.3 322.636L2396.74 361.564L2334.64 452.394H2267.45ZM2420.38 338.393L2389.33 299.929L2445.4 208.172H2512.6L2420.38 338.393Z" fill="#151515"/>
<path d="M2137.22 457.027C2111.58 457.027 2088.87 451.62 2069.1 440.807C2049.63 429.994 2034.34 415.319 2023.22 396.782C2012.41 377.936 2007 356.465 2007 332.367C2007 313.212 2010.09 295.757 2016.27 280C2022.45 264.244 2030.94 250.651 2041.76 239.22C2052.88 227.48 2066.01 218.52 2081.15 212.341C2096.59 205.853 2113.43 202.609 2131.66 202.609C2147.72 202.609 2162.71 205.699 2176.61 211.878C2190.51 218.057 2202.56 226.553 2212.76 237.366C2222.95 247.87 2230.68 260.537 2235.93 275.366C2241.49 289.887 2244.12 305.797 2243.81 323.098L2243.34 343.025H2045.46L2034.81 304.098H2195.61L2188.2 311.976V301.781C2187.27 292.204 2184.18 283.862 2178.93 276.756C2173.68 269.342 2166.88 263.626 2158.54 259.61C2150.51 255.285 2141.55 253.122 2131.66 253.122C2116.52 253.122 2103.7 256.057 2093.2 261.927C2083 267.797 2075.28 276.293 2070.02 287.415C2064.77 298.228 2062.15 311.822 2062.15 328.196C2062.15 343.952 2065.39 357.7 2071.88 369.44C2078.68 381.18 2088.1 390.294 2100.15 396.782C2112.51 402.961 2126.87 406.05 2143.25 406.05C2154.68 406.05 2165.18 404.197 2174.76 400.489C2184.33 396.782 2194.68 390.14 2205.81 380.562L2234.08 419.953C2225.73 427.677 2216.16 434.319 2205.34 439.88C2194.84 445.132 2183.72 449.303 2171.98 452.392C2160.24 455.482 2148.65 457.027 2137.22 457.027Z" fill="#151515"/>
<path d="M1871.32 452.394V146.073H1928.32V452.394H1871.32ZM1823.12 261.001V208.172H1981.61V261.001H1823.12Z" fill="#151515"/>
<path d="M1562.51 452.394V208.172H1618.12L1619.05 258.221L1608.39 263.782C1611.48 252.66 1617.5 242.619 1626.46 233.66C1635.42 224.392 1646.08 216.977 1658.44 211.416C1670.8 205.855 1683.46 203.074 1696.44 203.074C1714.97 203.074 1730.42 206.782 1742.78 214.196C1755.45 221.611 1764.87 232.733 1771.05 247.562C1777.54 262.392 1780.78 280.929 1780.78 303.173V452.394H1723.78V307.344C1723.78 294.986 1722.08 284.791 1718.68 276.758C1715.28 268.416 1710.03 262.392 1702.93 258.685C1695.82 254.668 1687.17 252.815 1676.97 253.124C1668.63 253.124 1660.91 254.514 1653.8 257.294C1647.01 259.766 1640.98 263.473 1635.73 268.416C1630.79 273.051 1626.77 278.457 1623.68 284.636C1620.9 290.815 1619.51 297.612 1619.51 305.026V452.394H1591.24C1585.68 452.394 1580.43 452.394 1575.49 452.394C1570.85 452.394 1566.53 452.394 1562.51 452.394Z" fill="#151515"/>
<path d="M1433.23 452.394V208.172H1490.23V452.394H1433.23ZM1461.03 156.269C1449.6 156.269 1440.64 153.488 1434.16 147.927C1427.98 142.057 1424.89 133.87 1424.89 123.366C1424.89 113.48 1428.13 105.447 1434.62 99.2684C1441.11 93.0895 1449.91 90 1461.03 90C1472.77 90 1481.73 92.935 1487.91 98.805C1494.4 104.366 1497.64 112.553 1497.64 123.366C1497.64 132.944 1494.4 140.822 1487.91 147.001C1481.42 153.179 1472.46 156.269 1461.03 156.269Z" fill="#151515"/>
<path d="M1221.63 457.028C1201.55 457.028 1183.32 451.467 1166.95 440.345C1150.57 429.223 1137.44 414.084 1127.56 394.93C1117.67 375.775 1112.73 353.994 1112.73 329.588C1112.73 305.181 1117.67 283.4 1127.56 264.246C1137.44 245.091 1150.88 230.107 1167.88 219.294C1184.87 208.481 1204.02 203.074 1225.34 203.074C1237.7 203.074 1248.97 204.928 1259.17 208.635C1269.36 212.034 1278.32 216.977 1286.05 223.465C1293.77 229.953 1300.1 237.367 1305.05 245.709C1310.3 254.05 1313.85 263.01 1315.71 272.587L1303.19 269.343V208.172H1360.66V452.394H1302.73V394.003L1316.17 391.686C1314.01 400.027 1309.99 408.214 1304.12 416.247C1298.56 423.971 1291.45 430.922 1282.8 437.101C1274.46 442.971 1265.04 447.76 1254.53 451.467C1244.34 455.174 1233.37 457.028 1221.63 457.028ZM1237.39 406.515C1250.67 406.515 1262.41 403.271 1272.61 396.783C1282.8 390.296 1290.68 381.336 1296.24 369.905C1302.11 358.165 1305.05 344.726 1305.05 329.588C1305.05 314.758 1302.11 301.628 1296.24 290.197C1290.68 278.766 1282.8 269.807 1272.61 263.319C1262.41 256.831 1250.67 253.587 1237.39 253.587C1224.1 253.587 1212.36 256.831 1202.17 263.319C1192.28 269.807 1184.56 278.766 1179 290.197C1173.44 301.628 1170.66 314.758 1170.66 329.588C1170.66 344.726 1173.44 358.165 1179 369.905C1184.56 381.336 1192.28 390.296 1202.17 396.783C1212.36 403.271 1224.1 406.515 1237.39 406.515Z" fill="#151515"/>
<path d="M736.828 452.395V128.001H793.829L912 320.32L878.634 319.857L998.196 128.001H1052.42V452.395H992.635V330.515C992.635 302.71 993.253 277.686 994.489 255.441C996.034 233.197 998.505 211.108 1001.9 189.172L1009.32 209.099L908.757 364.345H878.171L780.853 210.49L787.341 189.172C790.739 209.872 793.056 231.189 794.292 253.124C795.837 274.751 796.609 300.548 796.609 330.515V452.395H736.828Z" fill="#151515"/>
</svg>
