<svg width="4158" height="512" viewBox="0 0 4158 512" fill="none" xmlns="http://www.w3.org/2000/svg">
<path d="M3949.88 488.646L4002.62 364.984L4003.53 402.264L3886.23 143.573H3959.43L4018.08 282.239C4020.51 287.391 4022.78 293.453 4024.9 300.424C4027.32 307.093 4029.29 313.458 4030.81 319.519L4019.9 324.52C4022.02 319.368 4024.14 313.458 4026.26 306.789C4028.69 300.121 4031.11 292.999 4033.54 285.421L4084 143.573H4157.66L4056.72 384.078L4015.35 488.646H3949.88Z" fill="#151515" fill-opacity="0.75"/>
<path d="M3756.4 384.08V126.753C3756.4 111.901 3759.73 98.4134 3766.4 86.2896C3773.07 74.1658 3782.16 64.6183 3793.68 57.6472C3805.5 50.676 3819.29 47.1904 3835.05 47.1904C3845.66 47.1904 3855.66 49.009 3865.06 52.6461C3874.45 55.9802 3882.48 60.5266 3889.15 66.2854L3870.06 114.023C3866.12 111.598 3862.03 109.628 3857.78 108.112C3853.84 106.294 3850.2 105.385 3846.87 105.385C3841.11 105.385 3836.26 106.445 3832.32 108.567C3828.69 110.386 3825.96 113.265 3824.14 117.205C3822.32 120.842 3821.41 125.54 3821.41 131.299V384.08H3789.13C3782.16 384.08 3775.95 384.08 3770.49 384.08C3765.04 384.08 3760.34 384.08 3756.4 384.08ZM3720.48 204.042V149.485H3873.24V204.042H3720.48Z" fill="#151515" fill-opacity="0.75"/>
<path d="M3604.25 384.08V143.575H3668.81V384.08H3604.25ZM3636.07 94.4733C3623.64 94.4733 3613.95 91.4424 3606.97 85.3805C3600 79.0155 3596.52 70.2258 3596.52 59.0113C3596.52 48.7061 3600 40.371 3606.97 34.006C3614.25 27.3379 3623.95 24.0039 3636.07 24.0039C3648.5 24.0039 3658.2 27.1864 3665.17 33.5514C3672.14 39.6133 3675.63 48.0999 3675.63 59.0113C3675.63 69.3165 3671.99 77.8031 3664.71 84.4712C3657.74 91.1393 3648.2 94.4733 3636.07 94.4733Z" fill="#151515" fill-opacity="0.75"/>
<path d="M3443.05 384.079V82.6514H3507.61V384.079H3443.05ZM3398.04 201.313V143.573H3557.17V201.313H3398.04Z" fill="#151515" fill-opacity="0.75"/>
<path d="M3244 388.626C3219.45 388.626 3197.48 383.322 3178.08 372.714C3158.98 361.802 3143.83 346.95 3132.62 328.159C3121.7 309.367 3116.25 287.847 3116.25 263.6C3116.25 239.352 3121.7 217.832 3132.62 199.041C3143.83 180.249 3158.98 165.549 3178.08 154.94C3197.48 144.029 3219.45 138.573 3244 138.573C3268.25 138.573 3289.92 144.029 3309.02 154.94C3328.41 165.549 3343.57 180.249 3354.48 199.041C3365.39 217.832 3370.85 239.352 3370.85 263.6C3370.85 287.847 3365.39 309.367 3354.48 328.159C3343.57 346.95 3328.41 361.802 3309.02 372.714C3289.92 383.322 3268.25 388.626 3244 388.626ZM3244 332.25C3255.82 332.25 3266.43 329.371 3275.83 323.612C3285.22 317.55 3292.5 309.367 3297.65 299.062C3303.11 288.453 3305.68 276.633 3305.38 263.6C3305.68 250.263 3303.11 238.443 3297.65 228.138C3292.5 217.529 3285.22 209.346 3275.83 203.587C3266.43 197.525 3255.82 194.494 3244 194.494C3231.88 194.494 3221.12 197.525 3211.72 203.587C3202.33 209.649 3194.9 217.832 3189.45 228.138C3183.99 238.443 3181.41 250.263 3181.72 263.6C3181.41 276.633 3183.99 288.453 3189.45 299.062C3194.9 309.367 3202.33 317.55 3211.72 323.612C3221.12 329.371 3231.88 332.25 3244 332.25Z" fill="#151515" fill-opacity="0.75"/>
<path d="M2776.74 384.079V65.8301H2837.66L3013.61 303.607H3000.88C2999.67 294.212 2998.61 285.119 2997.7 276.329C2996.79 267.236 2995.88 258.143 2994.97 249.05C2994.36 239.655 2993.76 230.107 2993.15 220.408C2992.85 210.406 2992.55 199.949 2992.24 189.038C2991.94 177.823 2991.79 165.7 2991.79 152.667V65.8301H3058.62V384.079H2996.79L2817.21 144.028L2834.48 144.483C2836 160.244 2837.21 173.732 2838.12 184.946C2839.33 195.857 2840.24 205.405 2840.85 213.588C2841.76 221.772 2842.36 228.895 2842.67 234.957C2842.97 241.019 2843.12 246.777 2843.12 252.233C2843.42 257.689 2843.57 263.448 2843.57 269.509V384.079H2776.74Z" fill="#151515" fill-opacity="0.75"/>
<path d="M2526.66 384.08L2458.46 291.788L2445.73 274.512L2347.07 144.484H2416.18L2482.55 234.503L2496.65 253.598L2594.4 384.08H2526.66ZM2346.62 384.08L2441.64 256.781L2473.46 294.971L2412.54 384.08H2346.62ZM2496.65 272.239L2466.19 234.503L2521.2 144.484H2587.12L2496.65 272.239Z" fill="#151515"/>
<path d="M2218.86 388.626C2193.7 388.626 2171.43 383.322 2152.03 372.714C2132.93 362.106 2117.93 347.709 2107.02 329.523C2096.41 311.034 2091.11 289.969 2091.11 266.328C2091.11 247.536 2094.14 230.411 2100.2 214.953C2106.26 199.496 2114.6 186.159 2125.2 174.945C2136.11 163.427 2149 154.638 2163.85 148.576C2179 142.211 2195.52 139.028 2213.4 139.028C2229.17 139.028 2243.87 142.059 2257.5 148.121C2271.14 154.183 2282.96 162.518 2292.97 173.126C2302.97 183.432 2310.55 195.858 2315.7 210.407C2321.15 224.652 2323.73 240.262 2323.43 257.235L2322.97 276.785H2128.84L2118.38 238.595H2276.14L2268.87 246.324V236.322C2267.96 226.926 2264.93 218.742 2259.78 211.771C2254.62 204.497 2247.96 198.889 2239.77 194.949C2231.89 190.706 2223.1 188.584 2213.4 188.584C2198.55 188.584 2185.97 191.464 2175.67 197.222C2165.67 202.981 2158.09 211.316 2152.94 222.228C2147.78 232.836 2145.21 246.172 2145.21 262.236C2145.21 277.694 2148.39 291.182 2154.76 302.699C2161.42 314.217 2170.67 323.158 2182.49 329.523C2194.61 335.585 2208.71 338.616 2224.77 338.616C2235.98 338.616 2246.29 336.797 2255.69 333.16C2265.08 329.523 2275.24 323.006 2286.15 313.611L2313.88 352.255C2305.7 359.832 2296.3 366.349 2285.69 371.805C2275.39 376.957 2264.48 381.049 2252.96 384.08C2241.44 387.111 2230.07 388.626 2218.86 388.626Z" fill="#151515"/>
<path d="M1957.99 384.08V83.5625H2013.91V384.08H1957.99ZM1910.71 196.314V144.484H2066.2V196.314H1910.71Z" fill="#151515"/>
<path d="M1655.03 384.079V144.483H1709.59L1710.5 193.585L1700.04 199.04C1703.07 188.129 1708.98 178.278 1717.77 169.489C1726.56 160.396 1737.02 153.122 1749.14 147.666C1761.26 142.21 1773.69 139.482 1786.42 139.482C1804.61 139.482 1819.76 143.12 1831.88 150.394C1844.31 157.668 1853.56 168.579 1859.62 183.128C1865.98 197.676 1869.17 215.862 1869.17 237.685V384.079H1813.24V241.777C1813.24 229.653 1811.58 219.651 1808.24 211.77C1804.91 203.587 1799.76 197.676 1792.79 194.039C1785.81 190.099 1777.33 188.281 1767.33 188.584C1759.14 188.584 1751.56 189.948 1744.59 192.675C1737.93 195.1 1732.02 198.737 1726.86 203.587C1722.01 208.133 1718.07 213.437 1715.04 219.499C1712.31 225.561 1710.95 232.229 1710.95 239.503V384.079H1683.22C1677.76 384.079 1672.61 384.079 1667.76 384.079C1663.21 384.079 1658.97 384.079 1655.03 384.079Z" fill="#151515"/>
<path d="M1528.2 384.079V144.483H1584.12V384.079H1528.2ZM1555.48 93.5635C1544.26 93.5635 1535.47 90.8357 1529.11 85.38C1523.05 79.6212 1520.02 71.5892 1520.02 61.284C1520.02 51.585 1523.2 43.7045 1529.56 37.6426C1535.93 31.5808 1544.57 28.5498 1555.48 28.5498C1567 28.5498 1575.78 31.4292 1581.85 37.188C1588.21 42.6437 1591.39 50.6757 1591.39 61.284C1591.39 70.6799 1588.21 78.4088 1581.85 84.4707C1575.48 90.5326 1566.69 93.5635 1555.48 93.5635Z" fill="#151515"/>
<path d="M1320.61 388.626C1300.91 388.626 1283.03 383.17 1266.96 372.259C1250.9 361.347 1238.02 346.496 1228.32 327.704C1218.62 308.912 1213.77 287.544 1213.77 263.599C1213.77 239.655 1218.62 218.287 1228.32 199.495C1238.02 180.703 1251.2 166.003 1267.87 155.395C1284.54 144.787 1303.33 139.482 1324.25 139.482C1336.37 139.482 1347.43 141.301 1357.44 144.938C1367.44 148.272 1376.23 153.122 1383.81 159.487C1391.38 165.852 1397.6 173.126 1402.45 181.309C1407.6 189.493 1411.08 198.283 1412.9 207.679L1400.63 204.496V144.483H1457V384.079H1400.17V326.795L1413.36 324.521C1411.24 332.705 1407.3 340.737 1401.54 348.617C1396.08 356.195 1389.11 363.014 1380.62 369.076C1372.44 374.835 1363.2 379.533 1352.89 383.17C1342.89 386.807 1332.13 388.626 1320.61 388.626ZM1336.07 339.07C1349.1 339.07 1360.62 335.887 1370.62 329.522C1380.62 323.157 1388.35 314.368 1393.81 303.153C1399.57 291.636 1402.45 278.451 1402.45 263.599C1402.45 249.051 1399.57 236.169 1393.81 224.955C1388.35 213.74 1380.62 204.951 1370.62 198.586C1360.62 192.221 1349.1 189.038 1336.07 189.038C1323.04 189.038 1311.52 192.221 1301.52 198.586C1291.82 204.951 1284.24 213.74 1278.78 224.955C1273.33 236.169 1270.6 249.051 1270.6 263.599C1270.6 278.451 1273.33 291.636 1278.78 303.153C1284.24 314.368 1291.82 323.157 1301.52 329.522C1311.52 335.887 1323.04 339.07 1336.07 339.07Z" fill="#151515"/>
<path d="M844.99 384.079V65.8301H900.911L1016.84 254.506L984.111 254.052L1101.41 65.8301H1154.6V384.079H1095.95V264.508C1095.95 237.23 1096.56 212.679 1097.77 190.856C1099.29 169.034 1101.71 147.362 1105.05 125.843L1112.32 145.392L1013.66 297.697H983.656L888.181 146.756L894.546 125.843C897.88 146.15 900.153 167.064 901.366 188.583C902.881 209.8 903.639 235.108 903.639 264.508V384.079H844.99Z" fill="#151515"/>
<path d="M256.422 511.838C254.838 511.895 254.838 511.895 253.222 511.953C242.912 510.252 235.832 503.797 228.726 496.587C227.771 495.64 226.817 494.692 225.833 493.716C222.653 490.554 219.492 487.374 216.332 484.193C214.049 481.916 211.766 479.64 209.481 477.365C203.934 471.834 198.398 466.29 192.869 460.74C186.424 454.273 179.965 447.819 173.506 441.365C161.98 429.846 150.466 418.314 138.96 406.775C127.805 395.588 116.639 384.412 105.461 373.248C93.2761 361.078 81.0979 348.903 68.9305 336.716C67.6323 335.416 66.3339 334.116 65.0357 332.815C64.3969 332.176 63.7582 331.536 63.1002 330.877C58.6069 326.377 54.1092 321.882 49.6099 317.388C43.5509 311.337 37.5028 305.274 31.4619 299.204C29.2441 296.979 27.0229 294.757 24.798 292.539C21.7603 289.509 18.7352 286.467 15.713 283.422C14.8312 282.548 13.9495 281.675 13.0411 280.775C6.0565 273.693 0.221291 266.724 0.136582 256.305C0.0918011 255.041 0.04702 253.776 0.000881848 252.474C2.38442 241.786 11.0379 233.458 18.6051 225.961C19.5429 225.016 20.4806 224.071 21.4468 223.098C24.5635 219.962 27.6941 216.841 30.825 213.719C33.0738 211.463 35.3218 209.206 37.5689 206.948C43.024 201.471 48.4884 196.004 53.9577 190.542C58.4043 186.101 62.8472 181.656 67.2875 177.208C67.9212 176.574 68.5548 175.939 69.2077 175.285C70.4951 173.996 71.7826 172.706 73.0701 171.417C85.1213 159.347 97.1852 147.29 109.253 135.238C120.283 124.221 131.297 113.19 142.304 102.151C153.624 90.7982 164.954 79.4556 176.295 68.1238C182.654 61.7687 189.01 55.4098 195.356 49.0407C201.321 43.055 207.299 37.0824 213.287 31.1197C215.48 28.9311 217.669 26.7379 219.853 24.5398C222.839 21.537 225.84 18.5512 228.846 15.5691C229.703 14.6987 230.561 13.8282 231.444 12.9314C237.727 6.74996 244.345 1.86386 253.175 0.275348C254.219 0.301183 255.263 0.327018 256.338 0.353636C257.389 0.355358 258.439 0.35708 259.522 0.358855C267.014 1.66227 272.204 5.77707 277.48 11.0178C278.723 12.2446 279.967 13.4714 281.249 14.7353C282.582 16.0717 283.915 17.4086 285.248 18.7462C286.634 20.1265 288.021 21.5063 289.408 22.8856C292.307 25.7722 295.197 28.6661 298.083 31.5653C301.769 35.2666 305.476 38.9463 309.189 42.6204C312.056 45.463 314.911 48.3179 317.762 51.1766C319.123 52.5379 320.488 53.8952 321.858 55.2481C336.932 70.1649 336.932 70.165 338.176 81.7736C336.26 99.65 318.929 112.073 306.907 124.05C305.47 125.487 304.034 126.923 302.597 128.36C298.739 132.219 294.877 136.074 291.014 139.927C286.961 143.971 282.913 148.018 278.865 152.066C271.216 159.71 263.564 167.351 255.911 174.991C247.19 183.697 238.473 192.406 229.757 201.116C211.843 219.015 193.925 236.91 176.004 254.802C178.061 259.692 181.001 262.794 184.744 266.517C185.365 267.138 185.985 267.759 186.624 268.399C188.702 270.475 190.79 272.541 192.877 274.608C194.37 276.096 195.862 277.584 197.354 279.073C200.567 282.278 203.784 285.478 207.004 288.675C212.098 293.733 217.182 298.801 222.264 303.87C233.975 315.549 245.698 327.214 257.423 338.879C268.161 349.563 278.897 360.25 289.621 370.949C294.671 375.985 299.727 381.015 304.789 386.04C307.941 389.172 311.087 392.309 314.232 395.448C315.688 396.899 317.146 398.348 318.607 399.795C320.607 401.775 322.598 403.763 324.587 405.753C325.702 406.862 326.817 407.971 327.965 409.114C334.092 415.89 337.232 421.218 338.092 430.168C336.977 443.548 327.357 451.614 318.306 460.554C316.921 461.94 315.537 463.326 314.153 464.713C311.265 467.603 308.368 470.483 305.464 473.357C301.749 477.034 298.055 480.731 294.368 484.436C291.518 487.295 288.658 490.145 285.795 492.991C284.429 494.351 283.066 495.714 281.705 497.079C279.804 498.985 277.887 500.876 275.971 502.767C274.886 503.844 273.801 504.921 272.684 506.032C267.649 510.239 262.92 511.733 256.422 511.838Z" fill="#151515"/>
<path d="M220.715 24.1455C223.661 21.1832 226.621 18.2364 229.587 15.294C230.444 14.4235 231.303 13.5531 232.187 12.6563C238.469 6.47498 245.087 1.5885 253.917 7.43102e-06C254.961 0.0258425 256.005 0.0524907 257.08 0.0791087C258.131 0.0808309 259.181 0.0822169 260.264 0.0839913C267.755 1.38741 272.946 5.50241 278.222 10.7432C279.465 11.9698 280.709 13.1962 281.99 14.46C283.324 15.7963 284.657 17.1341 285.989 18.4717C287.376 19.8519 288.763 21.2311 290.15 22.6104C293.049 25.4969 295.939 28.3909 298.825 31.29C302.511 34.9914 306.218 38.6716 309.931 42.3457C312.798 45.1882 315.653 48.0427 318.504 50.9014C319.865 52.2627 321.23 53.6207 322.6 54.9736C337.674 69.8902 337.674 69.8904 338.918 81.499C337.176 97.7595 322.679 109.508 311.024 120.514L220.715 24.1455Z" fill="#222222"/>
<path d="M497.425 511.922C496.242 511.948 495.059 511.973 493.84 512C484.008 510.306 477.361 503.293 470.615 496.485C469.167 495.048 469.167 495.048 467.689 493.582C464.468 490.38 461.262 487.164 458.055 483.948C455.744 481.644 453.433 479.342 451.12 477.04C445.501 471.443 439.891 465.835 434.286 460.223C429.729 455.661 425.169 451.103 420.606 446.547C419.956 445.898 419.306 445.249 418.636 444.58C417.315 443.261 415.994 441.942 414.673 440.623C402.296 428.265 389.932 415.894 377.573 403.519C366.27 392.203 354.952 380.902 343.627 369.609C331.989 358.004 320.361 346.389 308.744 334.763C302.226 328.239 295.703 321.72 289.171 315.211C283.03 309.092 276.903 302.959 270.786 296.816C268.538 294.564 266.287 292.316 264.03 290.073C260.95 287.012 257.888 283.934 254.829 280.851C253.484 279.525 253.484 279.525 252.111 278.172C245.485 271.44 241.958 265.837 240.889 256.221C241.394 245.088 248.79 237.355 256.335 229.918C257.774 228.468 257.774 228.468 259.241 226.989C262.443 223.769 265.664 220.569 268.885 217.368C271.19 215.057 273.495 212.745 275.799 210.432C281.399 204.815 287.012 199.21 292.63 193.612C299.177 187.087 305.711 180.55 312.244 174.012C323.902 162.346 335.573 150.693 347.252 139.048C358.577 127.754 369.892 116.449 381.195 105.132C393.513 92.7981 405.838 80.4707 418.174 68.1541C419.49 66.8404 420.805 65.5268 422.121 64.2131C422.768 63.5668 423.416 62.9206 424.083 62.2547C428.639 57.7045 433.191 53.15 437.742 48.5938C443.867 42.4614 450.003 36.3398 456.146 30.2254C458.4 27.9791 460.65 25.7293 462.897 23.4759C465.962 20.4026 469.04 17.3419 472.121 14.2841C473.009 13.3881 473.897 12.4921 474.811 11.5689C481.42 5.05028 487.524 0.383276 497.175 0.270076C498.926 0.208071 498.926 0.208071 500.713 0.144814C512.534 2.50269 521.003 12.6563 529.142 20.8495C530.435 22.1394 531.728 23.4287 533.022 24.7175C535.716 27.4052 538.402 30.0999 541.083 32.7999C544.508 36.2473 547.95 39.6763 551.398 43.1003C554.066 45.7536 556.724 48.4163 559.379 51.0821C561.256 52.9627 563.14 54.8354 565.025 56.7079C566.168 57.8627 567.31 59.0176 568.487 60.2074C569.49 61.2138 570.493 62.2202 571.527 63.2572C576.329 68.9851 578.743 74.2967 578.678 81.7736C578.688 82.9723 578.699 84.1711 578.709 85.4062C577.572 93.3464 573.242 98.5649 567.701 104.089C566.73 105.065 566.73 105.065 565.74 106.06C563.583 108.224 561.412 110.373 559.241 112.522C557.686 114.076 556.132 115.63 554.579 117.185C550.37 121.396 546.149 125.593 541.926 129.789C537.51 134.179 533.106 138.58 528.701 142.981C520.362 151.307 512.013 159.624 503.66 167.937C494.149 177.403 484.649 186.88 475.151 196.359C455.615 215.852 436.065 235.332 416.506 254.802C418.582 259.768 421.618 262.905 425.417 266.679C426.375 267.636 426.375 267.636 427.352 268.613C429.492 270.747 431.641 272.872 433.79 274.997C435.326 276.527 436.863 278.057 438.398 279.587C441.705 282.881 445.016 286.171 448.33 289.458C453.57 294.655 458.799 299.863 464.026 305.073C477.01 318.012 490.007 330.938 503.01 343.858C513.116 353.899 523.218 363.945 533.305 374.004C538.501 379.184 543.705 384.355 548.917 389.519C552.157 392.734 555.389 395.956 558.618 399.181C560.117 400.675 561.62 402.165 563.126 403.652C565.183 405.682 567.226 407.725 569.267 409.77C570.987 411.48 570.987 411.48 572.742 413.224C577.29 418.571 578.579 423.408 578.678 430.335C578.716 431.53 578.754 432.725 578.793 433.957C576.96 445.546 567.37 453.255 559.44 461.128C558.118 462.453 556.797 463.778 555.476 465.103C552.718 467.868 549.952 470.625 547.181 473.377C543.643 476.893 540.122 480.427 536.607 483.966C533.886 486.701 531.155 489.427 528.422 492.15C527.121 493.449 525.822 494.751 524.526 496.056C522.711 497.881 520.882 499.692 519.052 501.503C518.017 502.534 516.983 503.565 515.918 504.627C510.226 509.416 504.873 511.911 497.425 511.922Z" fill="#222222"/>
<path d="M256.423 511.838C254.84 511.895 254.84 511.895 253.224 511.953C240.196 509.803 231.959 499.893 223.117 490.956C221.563 489.405 220.008 487.855 218.452 486.306C214.25 482.117 210.065 477.911 205.883 473.702C201.501 469.297 197.106 464.906 192.712 460.514C185.344 453.143 177.987 445.763 170.636 438.376C162.129 429.827 153.608 421.292 145.079 412.765C136.874 404.562 128.677 396.351 120.484 388.135C116.996 384.637 113.505 381.142 110.012 377.648C105.909 373.542 101.812 369.429 97.7206 365.31C96.2147 363.797 94.7065 362.285 93.1959 360.776C91.1424 358.724 89.0973 356.664 87.0541 354.601C85.9054 353.448 84.7566 352.295 83.573 351.106C81.1406 348.33 81.1406 348.33 81.1406 345.658C82.8256 344 82.8256 344 85.3238 341.968C94.1708 334.436 102.217 326.082 110.41 317.855C112.192 316.071 113.974 314.287 115.756 312.503C120.416 307.839 125.071 303.17 129.726 298.5C134.489 293.724 139.256 288.951 144.022 284.178C153.351 274.835 162.675 265.488 171.997 256.138C176.903 258.202 180.034 261.167 183.781 264.911C184.41 265.535 185.038 266.159 185.685 266.802C187.786 268.892 189.877 270.991 191.968 273.091C193.474 274.593 194.98 276.094 196.486 277.595C200.575 281.672 204.656 285.757 208.735 289.844C213.006 294.122 217.284 298.394 221.561 302.667C228.745 309.846 235.924 317.031 243.099 324.219C251.388 332.523 259.687 340.817 267.99 349.106C275.122 356.226 282.249 363.351 289.372 370.481C293.625 374.737 297.879 378.992 302.138 383.242C306.145 387.241 310.145 391.247 314.14 395.257C315.605 396.726 317.072 398.192 318.541 399.655C320.552 401.659 322.555 403.671 324.556 405.685C325.677 406.807 326.798 407.929 327.953 409.085C334.074 415.883 337.232 421.204 338.094 430.168C336.979 443.548 327.358 451.614 318.308 460.554C316.922 461.94 315.538 463.326 314.155 464.713C311.267 467.603 308.37 470.483 305.465 473.357C301.75 477.034 298.057 480.731 294.369 484.436C291.519 487.295 288.659 490.145 285.796 492.991C284.43 494.351 283.067 495.714 281.707 497.079C279.805 498.985 277.889 500.876 275.972 502.767C274.888 503.844 273.803 504.921 272.685 506.032C267.65 510.239 262.922 511.733 256.423 511.838Z" fill="#222222"/>
<path d="M497.425 511.922C496.242 511.948 495.059 511.973 493.84 512C485.468 510.557 479.369 505.222 473.53 499.364C472.878 498.716 472.226 498.068 471.555 497.4C469.395 495.247 467.25 493.08 465.105 490.913C463.552 489.358 461.997 487.804 460.441 486.251C456.237 482.047 452.045 477.832 447.855 473.614C443.469 469.202 439.07 464.802 434.674 460.4C426.357 452.071 418.05 443.731 409.746 435.388C400.29 425.886 390.822 416.396 381.353 406.908C361.882 387.394 342.425 367.867 322.978 348.33C324.667 344.638 326.395 341.908 329.268 339.046C330.37 337.939 330.37 337.939 331.494 336.809C332.698 335.62 332.698 335.62 333.926 334.407C334.773 333.559 335.621 332.711 336.494 331.837C339.292 329.04 342.101 326.253 344.909 323.466C346.853 321.527 348.796 319.587 350.739 317.647C355.851 312.545 360.971 307.451 366.093 302.359C371.319 297.16 376.537 291.954 381.757 286.748C391.996 276.537 402.244 266.335 412.498 256.138C417.478 258.22 420.651 261.28 424.453 265.072C425.099 265.713 425.746 266.355 426.412 267.015C428.574 269.164 430.727 271.322 432.88 273.48C434.429 275.024 435.979 276.566 437.529 278.109C441.737 282.299 445.936 286.497 450.133 290.697C453.637 294.203 457.145 297.704 460.653 301.206C468.928 309.466 477.196 317.734 485.459 326.005C493.986 334.54 502.525 343.063 511.07 351.579C518.405 358.891 525.733 366.21 533.054 373.536C537.428 377.912 541.804 382.284 546.187 386.649C550.309 390.754 554.42 394.868 558.525 398.99C560.033 400.501 561.544 402.009 563.059 403.513C565.127 405.567 567.182 407.632 569.234 409.702C570.387 410.855 571.54 412.008 572.729 413.196C577.276 418.563 578.579 423.39 578.678 430.335C578.716 431.53 578.754 432.725 578.793 433.957C576.96 445.546 567.37 453.255 559.44 461.128C558.118 462.453 556.797 463.778 555.477 465.103C552.718 467.868 549.952 470.625 547.181 473.377C543.643 476.893 540.122 480.427 536.607 483.966C533.886 486.701 531.155 489.427 528.422 492.15C527.121 493.449 525.822 494.751 524.526 496.056C522.711 497.881 520.882 499.692 519.052 501.503C518.017 502.534 516.983 503.565 515.918 504.627C510.226 509.416 504.873 511.911 497.425 511.922Z" fill="#151515"/>
<path d="M105.19 368.372C100.622 367.777 98.4474 366.139 95.2321 362.907C94.4054 362.079 93.5786 361.252 92.7269 360.399C91.4558 359.096 91.4558 359.096 90.159 357.766C88.8569 356.47 88.8569 356.47 87.5285 355.149C81.1402 348.687 81.1402 348.687 81.1402 345.657C82.8252 343.999 82.8252 343.999 85.3234 341.967C94.1703 334.436 102.217 326.081 110.41 317.855C112.191 316.07 113.974 314.286 115.756 312.503C120.415 307.838 125.071 303.169 129.726 298.5C134.488 293.723 139.255 288.951 144.021 284.178C153.35 274.835 162.675 265.487 171.997 256.137C177.583 258.846 181.367 262.252 185.775 266.576C186.903 267.621 186.903 267.621 188.053 268.687C193.364 273.893 193.364 273.893 193.408 277.89C191.417 283.172 187.97 286.348 183.999 290.276C183.16 291.126 182.322 291.976 181.458 292.852C178.685 295.655 175.892 298.439 173.098 301.221C171.165 303.161 169.232 305.102 167.3 307.043C163.251 311.107 159.192 315.16 155.126 319.206C149.906 324.403 144.715 329.626 139.531 334.857C135.548 338.869 131.55 342.865 127.547 346.857C125.626 348.777 123.709 350.703 121.799 352.633C119.131 355.324 116.443 357.993 113.748 360.657C112.958 361.463 112.167 362.27 111.352 363.101C109.121 365.28 109.121 365.28 105.19 368.372Z" fill="#242424"/>
<path d="M345.693 368.372C341.81 366.506 339.05 364.723 336.027 361.639C335.26 360.864 334.494 360.089 333.704 359.29C332.92 358.484 332.137 357.678 331.329 356.848C330.525 356.031 329.721 355.215 328.892 354.374C326.915 352.365 324.946 350.348 322.979 348.33C325.216 342.494 329.573 338.708 333.927 334.406C334.774 333.558 335.621 332.71 336.495 331.837C339.293 329.04 342.101 326.253 344.91 323.465C346.854 321.526 348.797 319.587 350.74 317.647C355.852 312.545 360.972 307.451 366.094 302.359C371.32 297.16 376.538 291.954 381.758 286.748C391.997 276.537 402.245 266.334 412.499 256.137C416.382 258.002 419.141 259.786 422.165 262.87C422.931 263.645 423.698 264.42 424.487 265.219C425.271 266.025 426.055 266.831 426.862 267.661C427.666 268.478 428.471 269.294 429.299 270.135C431.277 272.144 433.246 274.161 435.213 276.179C432.976 282.015 428.619 285.801 424.265 290.103C423.417 290.951 422.57 291.798 421.697 292.672C418.898 295.469 416.09 298.256 413.282 301.044C411.338 302.982 409.394 304.922 407.452 306.862C402.34 311.964 397.219 317.058 392.098 322.15C386.872 327.349 381.653 332.555 376.434 337.761C366.194 347.972 355.946 358.174 345.693 368.372Z" fill="#222222"/>
</svg>
