<svg width="3530" height="511" viewBox="0 0 3530 511" fill="none" xmlns="http://www.w3.org/2000/svg">
<path d="M3362.2 501.368V448.074H3415.5V230.266H3362.2V176.973H3529.03V230.266H3475.74V448.074H3529.03V501.368H3362.2Z" fill="#7E7E7E"/>
<path d="M3073.7 501.368V176.973H3208.56C3227.09 176.973 3243.78 181.452 3258.6 190.412C3273.74 199.371 3285.79 211.575 3294.75 227.022C3303.71 242.47 3308.19 259.771 3308.19 278.925C3308.19 298.389 3303.71 315.999 3294.75 331.756C3285.79 347.203 3273.74 359.561 3258.6 368.829C3243.78 378.098 3227.09 382.732 3208.56 382.732H3133.94V501.368H3073.7ZM3133.94 327.121H3204.38C3212.11 327.121 3219.06 324.959 3225.24 320.633C3231.73 316.308 3236.82 310.593 3240.53 303.487C3244.55 296.381 3246.56 288.348 3246.56 279.389C3246.56 270.429 3244.55 262.551 3240.53 255.754C3236.82 248.649 3231.73 243.087 3225.24 239.071C3219.06 234.746 3212.11 232.583 3204.38 232.583H3133.94V327.121Z" fill="#7E7E7E"/>
<path d="M2713.97 501.368L2840.48 176.973H2897.02L3022.61 501.368H2960.05L2890.53 316.926C2888.99 313.219 2886.83 307.349 2884.05 299.316C2881.57 291.283 2878.79 282.633 2875.7 273.364C2872.62 263.787 2869.83 254.982 2867.36 246.949C2864.89 238.608 2863.04 232.583 2861.8 228.876L2873.39 228.412C2871.53 234.591 2869.37 241.543 2866.9 249.266C2864.43 256.99 2861.8 265.023 2859.02 273.364C2856.24 281.706 2853.46 289.739 2850.68 297.462C2848.21 305.186 2845.89 312.137 2843.73 318.316L2774.22 501.368H2713.97ZM2771.43 427.22L2792.29 374.854H2940.12L2962.36 427.22H2771.43Z" fill="#7E7E7E"/>
<path d="M2493.81 501.366L2424.3 407.291L2411.32 389.681L2310.76 257.143H2381.2L2448.86 348.9L2463.23 368.364L2562.86 501.366H2493.81ZM2310.3 501.366L2407.15 371.608L2439.59 410.535L2377.49 501.366H2310.3ZM2463.23 387.364L2432.18 348.9L2488.25 257.143H2555.45L2463.23 387.364Z" fill="white"/>
<path d="M2180.08 506C2154.43 506 2131.72 500.593 2111.95 489.78C2092.49 478.967 2077.2 464.292 2066.07 445.755C2055.26 426.909 2049.85 405.437 2049.85 381.339C2049.85 362.184 2052.94 344.729 2059.12 328.972C2065.3 313.216 2073.8 299.622 2084.61 288.191C2095.73 276.451 2108.86 267.492 2124 261.313C2139.45 254.825 2156.29 251.581 2174.51 251.581C2190.58 251.581 2205.56 254.671 2219.47 260.849C2233.37 267.028 2245.42 275.525 2255.61 286.338C2265.81 296.842 2273.53 309.509 2278.78 324.338C2284.35 338.859 2286.97 354.77 2286.66 372.071L2286.2 391.998H2088.32L2077.66 353.07H2238.47L2231.05 360.949V350.753C2230.12 341.176 2227.04 332.834 2221.78 325.729C2216.53 318.314 2209.73 312.598 2201.39 308.582C2193.36 304.257 2184.4 302.094 2174.51 302.094C2159.38 302.094 2146.55 305.029 2136.05 310.899C2125.85 316.769 2118.13 325.265 2112.88 336.387C2107.63 347.2 2105 360.794 2105 377.168C2105 392.925 2108.24 406.673 2114.73 418.413C2121.53 430.153 2130.95 439.267 2143 445.755C2155.36 451.934 2169.73 455.023 2186.1 455.023C2197.53 455.023 2208.03 453.17 2217.61 449.462C2227.19 445.755 2237.54 439.112 2248.66 429.535L2276.93 468.926C2268.59 476.65 2259.01 483.292 2248.2 488.853C2237.69 494.105 2226.57 498.276 2214.83 501.365C2203.09 504.455 2191.51 506 2180.08 506Z" fill="white"/>
<path d="M1914.17 501.366V195.044H1971.17V501.366H1914.17ZM1865.97 309.973V257.142H2024.46V309.973H1865.97Z" fill="white"/>
<path d="M1605.36 501.368V257.145H1660.97L1661.9 307.194L1651.24 312.755C1654.33 301.633 1660.35 291.592 1669.31 282.633C1678.27 273.364 1688.93 265.95 1701.29 260.388C1713.65 254.827 1726.31 252.047 1739.29 252.047C1757.83 252.047 1773.27 255.754 1785.63 263.169C1798.3 270.584 1807.72 281.706 1813.9 296.535C1820.39 311.365 1823.63 329.902 1823.63 352.146V501.368H1766.63V356.317C1766.63 343.959 1764.93 333.764 1761.53 325.731C1758.14 317.389 1752.88 311.365 1745.78 307.657C1738.67 303.641 1730.02 301.787 1719.83 302.096C1711.48 302.096 1703.76 303.487 1696.66 306.267C1689.86 308.739 1683.83 312.446 1678.58 317.389C1673.64 322.024 1669.62 327.43 1666.53 333.609C1663.75 339.788 1662.36 346.585 1662.36 354V501.368H1634.09C1628.53 501.368 1623.28 501.368 1618.34 501.368C1613.7 501.368 1609.38 501.368 1605.36 501.368Z" fill="white"/>
<path d="M1476.08 501.367V257.144H1533.08V501.367H1476.08ZM1503.88 205.241C1492.45 205.241 1483.49 202.46 1477 196.899C1470.82 191.029 1467.73 182.842 1467.73 172.338C1467.73 162.452 1470.98 154.419 1477.47 148.24C1483.95 142.061 1492.76 138.972 1503.88 138.972C1515.62 138.972 1524.58 141.907 1530.76 147.777C1537.25 153.338 1540.49 161.525 1540.49 172.338C1540.49 181.915 1537.25 189.794 1530.76 195.973C1524.27 202.152 1515.31 205.241 1503.88 205.241Z" fill="white"/>
<path d="M1264.48 506.002C1244.4 506.002 1226.17 500.441 1209.8 489.319C1193.42 478.197 1180.29 463.058 1170.41 443.903C1160.52 424.749 1155.58 402.968 1155.58 378.561C1155.58 354.154 1160.52 332.373 1170.41 313.219C1180.29 294.064 1193.73 279.08 1210.72 268.267C1227.72 257.453 1246.87 252.047 1268.19 252.047C1280.55 252.047 1291.82 253.901 1302.02 257.608C1312.21 261.006 1321.17 265.95 1328.9 272.437C1336.62 278.925 1342.95 286.34 1347.9 294.682C1353.15 303.023 1356.7 311.983 1358.55 321.56L1346.04 318.316V257.145H1403.51V501.368H1345.58V442.977L1359.02 440.66C1356.86 449.001 1352.84 457.188 1346.97 465.221C1341.41 472.945 1334.3 479.896 1325.65 486.075C1317.31 491.945 1307.89 496.734 1297.38 500.441C1287.19 504.148 1276.22 506.002 1264.48 506.002ZM1280.24 455.489C1293.52 455.489 1305.26 452.245 1315.46 445.757C1325.65 439.269 1333.53 430.31 1339.09 418.879C1344.96 407.139 1347.9 393.699 1347.9 378.561C1347.9 363.732 1344.96 350.601 1339.09 339.17C1333.53 327.739 1325.65 318.78 1315.46 312.292C1305.26 305.804 1293.52 302.56 1280.24 302.56C1266.95 302.56 1255.21 305.804 1245.02 312.292C1235.13 318.78 1227.41 327.739 1221.85 339.17C1216.28 350.601 1213.5 363.732 1213.5 378.561C1213.5 393.699 1216.28 407.139 1221.85 418.879C1227.41 430.31 1235.13 439.269 1245.02 445.757C1255.21 452.245 1266.95 455.489 1280.24 455.489Z" fill="white"/>
<path d="M779.672 501.368V176.973H836.673L954.845 369.293L921.479 368.829L1041.04 176.973H1095.26V501.368H1035.48V379.488C1035.48 351.683 1036.1 326.658 1037.33 304.414C1038.88 282.169 1041.35 260.08 1044.75 238.144L1052.16 258.071L951.601 413.318H921.016L823.697 259.462L830.185 238.144C833.583 258.844 835.9 280.161 837.136 302.097C838.681 323.723 839.453 349.52 839.453 379.488V501.368H779.672Z" fill="white"/>
<path d="M318.05 177.685L333.152 177.685L333.152 192.788L318.05 177.685ZM254.698 177.685L271.329 177.685L333.152 239.509L333.152 256.14L254.698 177.685ZM213.868 177.685L232.712 177.685L333.152 278.127L333.152 296.969L213.868 177.685ZM177.683 182.337L177.683 177.685L191.882 177.685L333.152 318.956L333.152 333.155L328.501 333.155L177.683 182.337ZM287.034 177.685L303.268 177.685L333.152 207.57L333.152 223.804L287.034 177.685ZM177.683 220.03L177.683 204.323L306.515 333.155L290.808 333.155L177.683 220.03ZM177.683 258.104L177.683 250.039L260.799 333.155L252.734 333.155L177.683 258.104ZM177.683 301.211L177.683 292.252L218.586 333.155L209.627 333.155L177.683 301.211ZM177.683 319.696L191.142 333.155L177.683 333.155L177.683 319.696Z" fill="white"/>
<path d="M140.372 0.000975243L155.471 0.000976562L155.471 15.1006L140.372 0.000975243ZM77.0098 0.000969703L93.6445 0.000971157L155.471 61.8281L155.471 78.4629L77.0098 0.000969703ZM36.1836 0.000966134L55.0225 0.000967781L155.471 100.449L155.471 119.289L36.1836 0.000966134ZM1.31838e-05 4.666L1.35916e-05 0.000962971L14.1963 0.000964212L155.471 141.275L155.471 155.472L150.806 155.472L1.31838e-05 4.666ZM109.35 0.00097253L125.59 0.00097395L155.471 29.8828L155.471 46.123L109.35 0.00097253ZM9.88905e-06 42.3535L1.12616e-05 26.6533L128.818 155.472L113.118 155.472L9.88905e-06 42.3535ZM6.5606e-06 80.4267L7.2657e-06 72.3613L83.1104 155.472L75.0449 155.472L6.5606e-06 80.4267ZM2.79248e-06 123.529L3.57544e-06 114.573L40.8984 155.472L31.9424 155.472L2.79248e-06 123.529ZM1.17636e-06 142.016L13.4561 155.472L0 155.472L1.17636e-06 142.016Z" fill="white"/>
<path d="M140.375 355.363L155.471 355.363L155.471 370.459L140.375 355.363ZM77.0127 355.363L93.6475 355.363L155.471 417.187L155.471 433.822L77.0127 355.363ZM36.1943 355.363L55.0264 355.363L155.471 455.809L155.471 474.641L36.1943 355.363ZM1.3184e-05 360.025L1.35916e-05 355.363L14.208 355.363L155.471 496.627L155.471 510.834L150.809 510.834L1.3184e-05 360.025ZM109.353 355.363L125.593 355.363L155.471 385.242L155.471 401.482L109.353 355.363ZM9.88939e-06 397.712L1.12619e-05 382.012L128.822 510.834L113.122 510.834L9.88939e-06 397.712ZM6.56086e-06 435.786L7.26596e-06 427.721L83.1133 510.834L75.0479 510.834L6.56086e-06 435.786ZM2.79273e-06 478.889L3.57569e-06 469.933L40.9014 510.834L31.9453 510.834L2.79273e-06 478.889ZM1.1767e-06 497.374L13.46 510.834L0 510.834L1.1767e-06 497.374Z" fill="white"/>
<path d="M495.733 355.359L510.836 355.359L510.836 370.463L495.733 355.359ZM432.374 355.359L449.009 355.359L510.836 417.187L510.836 433.821L432.374 355.359ZM391.545 355.359L410.388 355.359L510.836 455.809L510.836 474.651L391.545 355.359ZM355.366 360.019L355.366 355.359L369.559 355.359L510.836 496.639L510.836 510.83L506.178 510.83L355.366 360.019ZM464.714 355.359L480.951 355.359L510.836 385.244L510.836 401.481L464.714 355.359ZM355.366 397.716L355.366 382.005L484.19 510.83L468.479 510.83L355.366 397.716ZM355.366 435.786L355.366 427.725L438.472 510.83L430.41 510.83L355.366 435.786ZM355.366 478.893L355.366 469.934L396.263 510.83L387.304 510.83L355.366 478.893ZM355.366 497.378L368.818 510.83L355.366 510.83L355.366 497.378Z" fill="white"/>
<rect x="510.836" y="333.155" width="155.47" height="155.471" transform="rotate(-180 510.836 333.155)" fill="white"/>
<rect x="510.836" y="333.155" width="155.47" height="155.471" transform="rotate(-180 510.836 333.155)" fill="white"/>
<rect x="333.152" y="155.472" width="155.47" height="155.471" transform="rotate(-180 333.152 155.472)" fill="white"/>
<rect x="155.471" y="333.155" width="155.47" height="155.471" transform="rotate(-180 155.471 333.155)" fill="white"/>
</svg>
