<svg width="3062" height="578" viewBox="0 0 3062 578" fill="none" xmlns="http://www.w3.org/2000/svg">
<path d="M346.126 63.0361C347.455 63.0279 348.784 63.0197 350.154 63.0112C354.54 62.9906 358.926 63.0042 363.313 63.0201C366.365 63.0169 369.417 63.0124 372.47 63.0065C378.864 62.9996 385.257 63.0092 391.651 63.0316C399.033 63.0571 406.413 63.0488 413.795 63.023C420.909 62.9991 428.024 63.0016 435.139 63.0154C438.16 63.0185 441.181 63.0147 444.203 63.0037C448.426 62.9918 452.648 63.01 456.871 63.0361C458.743 63.0219 458.743 63.0219 460.653 63.0073C467.519 63.086 471.937 63.481 477.209 68.3389C482.959 74.5781 482.573 80.6322 482.512 88.6765C482.524 90.6703 482.524 90.6703 482.537 92.7044C482.557 97.0912 482.544 101.477 482.528 105.864C482.531 108.916 482.536 111.968 482.541 115.02C482.548 121.414 482.539 127.808 482.516 134.202C482.491 141.583 482.499 148.964 482.525 156.345C482.549 163.46 482.546 170.575 482.533 177.69C482.529 180.711 482.533 183.732 482.544 186.754C482.556 190.977 482.538 195.199 482.512 199.422C482.521 200.67 482.531 201.918 482.541 203.204C482.462 210.07 482.067 214.488 477.209 219.76C470.819 225.795 464.086 225.091 455.79 224.988C454.323 224.989 452.856 224.989 451.345 224.99C447.39 224.987 443.437 224.964 439.483 224.931C435.767 224.904 432.052 224.903 428.336 224.899C417.483 224.875 406.63 224.809 395.776 224.749C371.518 224.652 347.26 224.555 322.267 224.455C322.267 277.136 322.267 329.816 322.267 384.093C370.623 383.907 370.623 383.907 418.98 383.67C428.336 383.649 428.336 383.649 432.718 383.645C435.775 383.637 438.832 383.623 441.89 383.597C446.523 383.559 451.156 383.558 455.79 383.56C457.15 383.543 458.51 383.526 459.912 383.509C467.008 383.545 471.802 383.682 477.209 388.788C482.959 395.027 482.573 401.081 482.512 409.126C482.52 410.455 482.528 411.784 482.537 413.154C482.557 417.54 482.544 421.926 482.528 426.313C482.531 429.365 482.536 432.417 482.541 435.47C482.548 441.864 482.539 448.257 482.516 454.651C482.491 462.033 482.499 469.413 482.525 476.795C482.549 483.909 482.546 491.024 482.533 498.139C482.529 501.16 482.533 504.181 482.544 507.203C482.556 511.426 482.538 515.648 482.512 519.871C482.521 521.119 482.531 522.367 482.541 523.653C482.462 530.519 482.067 534.937 477.209 540.209C470.97 545.959 464.916 545.573 456.871 545.512C454.878 545.524 454.878 545.524 452.843 545.537C448.457 545.557 444.071 545.544 439.684 545.528C436.632 545.531 433.58 545.536 430.527 545.541C424.133 545.548 417.74 545.539 411.346 545.516C403.964 545.491 396.584 545.499 389.202 545.525C382.088 545.549 374.973 545.546 367.858 545.533C364.837 545.529 361.816 545.533 358.794 545.544C354.571 545.556 350.349 545.538 346.126 545.512C344.878 545.521 343.63 545.531 342.344 545.541C335.478 545.462 331.06 545.067 325.788 540.209C319.753 533.819 320.457 527.086 320.56 518.79C320.559 517.323 320.559 515.856 320.558 514.345C320.561 510.39 320.584 506.437 320.617 502.483C320.644 498.767 320.645 495.052 320.649 491.336C320.673 480.483 320.739 469.63 320.799 458.776C320.896 434.518 320.993 410.26 321.093 385.267C268.412 385.267 215.732 385.267 161.455 385.267C161.641 433.623 161.641 433.623 161.878 481.98C161.899 491.336 161.899 491.336 161.903 495.718C161.91 498.775 161.925 501.832 161.951 504.89C161.989 509.523 161.99 514.156 161.988 518.79C162.005 520.15 162.022 521.51 162.039 522.912C162.003 530.008 161.866 534.802 156.76 540.209C150.521 545.959 144.467 545.573 136.422 545.512C134.429 545.524 134.429 545.524 132.394 545.537C128.008 545.557 123.622 545.544 119.235 545.528C116.183 545.531 113.13 545.536 110.078 545.541C103.684 545.548 97.2906 545.539 90.8967 545.516C83.5154 545.491 76.1347 545.499 68.7534 545.525C61.6386 545.549 54.5241 545.546 47.4092 545.533C44.3878 545.529 41.3665 545.533 38.3451 545.544C34.1218 545.556 29.8997 545.538 25.6765 545.512C24.4287 545.521 23.1809 545.531 21.8953 545.541C15.0293 545.462 10.6104 545.067 5.33892 540.209C-0.410772 533.97 -0.0251174 527.916 0.0361543 519.871C0.0279268 518.542 0.0196993 517.213 0.0112224 515.843C-0.00941563 511.457 0.00423172 507.071 0.0201062 502.684C0.016943 499.632 0.0123859 496.58 0.00649394 493.527C-0.000426118 487.133 0.00917837 480.74 0.0315691 474.346C0.0571197 466.964 0.048856 459.584 0.0230078 452.202C-0.000905412 445.088 0.0016431 437.973 0.0153777 430.858C0.018509 427.837 0.014669 424.816 0.00373567 421.794C-0.0081932 417.571 0.0100139 413.349 0.0361543 409.126C0.0266501 407.878 0.0171459 406.63 0.00735366 405.344C0.0860535 398.478 0.481014 394.06 5.33892 388.788C11.7286 382.753 18.4612 383.457 26.758 383.56C28.9234 383.559 28.9234 383.559 31.1325 383.558C35.0758 383.56 39.018 383.584 42.9611 383.617C47.0874 383.646 51.2138 383.649 55.3402 383.654C63.1472 383.669 70.954 383.707 78.7609 383.755C87.6517 383.807 96.5425 383.833 105.433 383.856C123.716 383.906 141.999 383.988 160.281 384.093C160.278 383.357 160.275 382.622 160.272 381.864C160.194 363.945 160.135 346.025 160.099 328.106C160.081 319.44 160.056 310.774 160.016 302.108C159.981 294.552 159.958 286.997 159.95 279.441C159.945 275.442 159.935 271.444 159.909 267.446C159.883 262.975 159.88 258.505 159.882 254.034C159.869 252.718 159.856 251.402 159.843 250.045C159.877 241.532 160.28 233.942 166.517 227.536C174.411 222.764 181.799 222.958 190.768 223.015C192.177 223.014 193.586 223.014 195.038 223.014C198.886 223.015 202.735 223.027 206.583 223.043C210.611 223.058 214.638 223.059 218.666 223.062C226.286 223.069 233.906 223.089 241.525 223.112C250.203 223.139 258.881 223.151 267.559 223.163C285.404 223.188 303.248 223.229 321.093 223.281C321.088 222.526 321.084 221.77 321.08 220.991C320.976 202.593 320.898 184.194 320.85 165.795C320.825 156.897 320.792 148 320.739 139.103C320.692 131.346 320.661 123.59 320.651 115.834C320.645 111.728 320.631 107.623 320.596 103.517C320.558 98.9304 320.558 94.3445 320.56 89.758C320.543 88.4003 320.526 87.0427 320.509 85.6439C320.545 78.545 320.679 73.7477 325.788 68.3389C332.027 62.5892 338.081 62.9749 346.126 63.0361Z" fill="white"/>
<path d="M24.7257 63.0361C25.9538 63.0279 27.1819 63.0197 28.4472 63.0112C32.4967 62.9906 36.5452 63.0042 40.5948 63.0201C43.4129 63.0169 46.231 63.0124 49.0491 63.0065C54.9507 62.9996 60.852 63.0096 66.7535 63.0316C74.3191 63.0583 81.8839 63.0429 89.4494 63.0148C95.2667 62.9978 101.084 63.0032 106.901 63.0154C109.691 63.0185 112.481 63.0147 115.27 63.0037C119.168 62.9918 123.064 63.01 126.962 63.0361C128.115 63.0266 129.268 63.0171 130.456 63.0073C135.538 63.0705 138.375 63.1629 142.776 65.8825C145.584 68.9533 146.127 70.1959 146.71 74.3547C145.515 84.9371 134.866 92.9167 127.672 100.079C126.523 101.231 125.375 102.383 124.228 103.535C121.134 106.64 118.033 109.737 114.93 112.832C111.674 116.082 108.423 119.338 105.172 122.593C99.7169 128.053 94.2568 133.507 88.7939 138.959C82.4845 145.256 76.1836 151.561 69.887 157.87C64.4682 163.3 59.0448 168.724 53.6176 174.146C50.3814 177.378 47.1468 180.612 43.9163 183.851C40.8818 186.892 37.8417 189.927 34.7971 192.958C33.1521 194.599 31.5128 196.245 29.8737 197.891C28.3954 199.36 28.3954 199.36 26.8872 200.858C26.0362 201.708 25.1851 202.558 24.3083 203.434C20.5865 206.722 17.406 208.972 12.4555 209.709C7.90709 209.059 5.39302 207.327 1.8179 204.5C0.449414 201.763 0.487906 200.154 0.471345 197.105C0.462946 196.045 0.454547 194.986 0.445893 193.894C0.442737 192.728 0.439581 191.562 0.436329 190.361C0.428615 189.135 0.420902 187.91 0.412955 186.647C0.389756 182.578 0.376094 178.509 0.364399 174.44C0.359615 173.052 0.354831 171.665 0.349902 170.235C0.3254 162.89 0.308619 155.545 0.297627 148.2C0.284638 140.608 0.24426 133.017 0.197651 125.425C0.166979 119.593 0.157136 113.76 0.152918 107.928C0.147196 105.129 0.133531 102.331 0.111791 99.5321C0.0832515 95.6148 0.0842764 91.6986 0.0924402 87.7812C0.0774037 86.6248 0.0623672 85.4684 0.046875 84.277C0.0975713 77.6033 0.672148 73.4919 5.33932 68.3389C11.4324 62.8336 16.9201 62.9717 24.7257 63.0361Z" fill="#444444"/>
<path d="M2365.99 507.93V473.287H2400.63V331.7H2365.99V297.057H2474.44V331.7H2439.8V473.287H2474.44V507.93H2365.99Z" fill="#747474"/>
<path d="M2178.45 507.93V297.057H2266.11C2278.16 297.057 2289.01 299.969 2298.65 305.793C2308.49 311.617 2316.32 319.55 2322.14 329.591C2327.97 339.633 2330.88 350.88 2330.88 363.331C2330.88 375.984 2327.97 387.431 2322.14 397.673C2316.32 407.715 2308.49 415.748 2298.65 421.773C2289.01 427.798 2278.16 430.811 2266.11 430.811H2217.61V507.93H2178.45ZM2217.61 394.661H2263.4C2268.42 394.661 2272.94 393.255 2276.96 390.443C2281.17 387.632 2284.49 383.916 2286.9 379.297C2289.51 374.678 2290.81 369.457 2290.81 363.632C2290.81 357.808 2289.51 352.687 2286.9 348.269C2284.49 343.65 2281.17 340.035 2276.96 337.424C2272.94 334.612 2268.42 333.206 2263.4 333.206H2217.61V394.661Z" fill="#747474"/>
<path d="M1944.61 507.93L2026.85 297.057H2063.6L2145.24 507.93H2104.57L2059.38 388.033C2058.38 385.623 2056.97 381.808 2055.17 376.586C2053.56 371.364 2051.75 365.741 2049.74 359.716C2047.73 353.49 2045.93 347.767 2044.32 342.545C2042.71 337.123 2041.51 333.206 2040.71 330.796L2048.24 330.495C2047.03 334.512 2045.63 339.03 2044.02 344.051C2042.41 349.072 2040.71 354.294 2038.9 359.716C2037.09 365.139 2035.28 370.36 2033.48 375.381C2031.87 380.402 2030.36 384.921 2028.96 388.937L1983.77 507.93H1944.61ZM1981.96 459.73L1995.52 425.689H2091.62L2106.08 459.73H1981.96Z" fill="#747474"/>
<path d="M1770.82 510.942C1754.15 510.942 1739.39 507.427 1726.54 500.398C1713.89 493.369 1703.95 483.829 1696.72 471.78C1689.69 459.529 1686.17 445.571 1686.17 429.906C1686.17 417.454 1688.18 406.107 1692.2 395.865C1696.21 385.623 1701.74 376.786 1708.77 369.355C1716 361.724 1724.53 355.899 1734.37 351.883C1744.41 347.665 1755.36 345.557 1767.21 345.557C1777.65 345.557 1787.39 347.565 1796.43 351.582C1805.47 355.598 1813.3 361.121 1819.93 368.15C1826.55 374.979 1831.57 383.213 1834.99 392.853C1838.6 402.292 1840.31 412.635 1840.11 423.881L1839.81 436.835H1711.18L1704.25 411.53H1808.78L1803.96 416.651V410.024C1803.36 403.798 1801.35 398.375 1797.93 393.756C1794.52 388.936 1790.1 385.221 1784.68 382.61C1779.46 379.798 1773.63 378.393 1767.21 378.393C1757.37 378.393 1749.03 380.301 1742.2 384.116C1735.58 387.932 1730.56 393.455 1727.14 400.685C1723.73 407.714 1722.02 416.551 1722.02 427.195C1722.02 437.437 1724.13 446.374 1728.35 454.006C1732.76 461.638 1738.89 467.562 1746.72 471.78C1754.76 475.796 1764.09 477.804 1774.74 477.804C1782.17 477.804 1789 476.599 1795.22 474.189C1801.45 471.78 1808.18 467.462 1815.41 461.236L1833.78 486.842C1828.36 491.863 1822.14 496.181 1815.11 499.796C1808.28 503.21 1801.05 505.921 1793.42 507.929C1785.78 509.938 1778.25 510.942 1770.82 510.942Z" fill="white"/>
<path d="M1570.11 577.218C1558.27 577.218 1546.42 575.41 1534.57 571.795C1522.92 568.18 1513.48 563.461 1506.25 557.637L1519.51 530.223C1523.72 533.236 1528.44 535.846 1533.66 538.055C1538.89 540.265 1544.41 541.972 1550.23 543.177C1556.26 544.382 1562.18 544.984 1568.01 544.984C1578.65 544.984 1587.49 543.277 1594.52 539.863C1601.75 536.65 1607.17 531.629 1610.78 524.801C1614.4 518.173 1616.21 509.839 1616.21 499.797V470.576L1621.63 472.685C1620.42 478.911 1617.11 484.835 1611.69 490.458C1606.26 496.082 1599.44 500.701 1591.2 504.316C1582.97 507.73 1574.53 509.437 1565.9 509.437C1550.83 509.437 1537.48 505.922 1525.83 498.893C1514.38 491.864 1505.25 482.325 1498.42 470.275C1491.79 458.024 1488.48 443.966 1488.48 428.1C1488.48 412.234 1491.79 398.176 1498.42 385.925C1505.05 373.474 1514.08 363.733 1525.53 356.704C1537.18 349.474 1550.23 345.859 1564.69 345.859C1570.72 345.859 1576.54 346.562 1582.16 347.968C1587.79 349.374 1592.91 351.382 1597.53 353.993C1602.35 356.604 1606.67 359.516 1610.48 362.729C1614.3 365.943 1617.41 369.357 1619.82 372.972C1622.23 376.587 1623.74 380.101 1624.34 383.515L1616.51 385.925L1617.11 349.173H1653.56V497.086C1653.56 509.939 1651.65 521.286 1647.84 531.127C1644.02 540.968 1638.5 549.302 1631.27 556.13C1624.04 563.159 1615.3 568.381 1605.06 571.795C1594.82 575.41 1583.17 577.218 1570.11 577.218ZM1571.62 477.806C1580.66 477.806 1588.59 475.697 1595.42 471.48C1602.45 467.262 1607.87 461.438 1611.69 454.007C1615.5 446.577 1617.41 438.041 1617.41 428.401C1617.41 418.561 1615.4 409.925 1611.39 402.494C1607.57 394.862 1602.25 388.938 1595.42 384.72C1588.59 380.503 1580.66 378.394 1571.62 378.394C1562.58 378.394 1554.65 380.603 1547.82 385.022C1540.99 389.239 1535.57 395.164 1531.56 402.795C1527.74 410.226 1525.83 418.761 1525.83 428.401C1525.83 437.84 1527.74 446.376 1531.56 454.007C1535.57 461.438 1540.99 467.262 1547.82 471.48C1554.65 475.697 1562.58 477.806 1571.62 477.806Z" fill="white"/>
<path d="M1365.39 510.943C1352.33 510.943 1340.48 507.328 1329.84 500.098C1319.2 492.868 1310.66 483.028 1304.23 470.576C1297.81 458.124 1294.59 443.966 1294.59 428.1C1294.59 412.234 1297.81 398.076 1304.23 385.624C1310.66 373.172 1319.4 363.432 1330.44 356.403C1341.49 349.374 1353.94 345.859 1367.8 345.859C1375.83 345.859 1383.16 347.064 1389.79 349.474C1396.42 351.683 1402.24 354.897 1407.26 359.114C1412.28 363.332 1416.4 368.152 1419.61 373.574C1423.03 378.997 1425.34 384.821 1426.54 391.047L1418.41 388.938V349.173H1455.76V507.931H1418.11V469.973L1426.84 468.467C1425.44 473.89 1422.83 479.212 1419.01 484.433C1415.4 489.454 1410.78 493.973 1405.15 497.99C1399.73 501.805 1393.6 504.918 1386.78 507.328C1380.15 509.738 1373.02 510.943 1365.39 510.943ZM1375.63 478.107C1384.27 478.107 1391.9 475.998 1398.53 471.781C1405.15 467.563 1410.27 461.739 1413.89 454.309C1417.7 446.677 1419.61 437.941 1419.61 428.1C1419.61 418.46 1417.7 409.925 1413.89 402.494C1410.27 395.063 1405.15 389.239 1398.53 385.022C1391.9 380.804 1384.27 378.695 1375.63 378.695C1366.99 378.695 1359.36 380.804 1352.74 385.022C1346.31 389.239 1341.29 395.063 1337.67 402.494C1334.06 409.925 1332.25 418.46 1332.25 428.1C1332.25 437.941 1334.06 446.677 1337.67 454.309C1341.29 461.739 1346.31 467.563 1352.74 471.781C1359.36 475.998 1366.99 478.107 1375.63 478.107Z" fill="white"/>
<path d="M1185.41 507.931V349.173H1221.86L1222.47 399.783L1217.34 388.335C1219.55 380.302 1223.37 373.072 1228.79 366.646C1234.21 360.219 1240.44 355.198 1247.47 351.583C1254.7 347.767 1262.23 345.859 1270.06 345.859C1273.48 345.859 1276.69 346.161 1279.7 346.763C1282.92 347.366 1285.53 348.069 1287.54 348.872L1277.59 389.54C1275.38 388.335 1272.67 387.331 1269.46 386.528C1266.25 385.725 1263.03 385.323 1259.82 385.323C1254.8 385.323 1249.98 386.327 1245.36 388.335C1240.94 390.143 1237.03 392.754 1233.61 396.168C1230.2 399.582 1227.49 403.599 1225.48 408.218C1223.67 412.636 1222.77 417.657 1222.77 423.28V507.931H1185.41Z" fill="white"/>
<path d="M1070.03 510.943C1054.16 510.943 1040 507.429 1027.55 500.399C1015.1 493.17 1005.26 483.329 998.028 470.877C990.798 458.426 987.183 444.267 987.183 428.401C987.183 412.536 990.798 398.377 998.028 385.925C1005.26 373.474 1015.1 363.733 1027.55 356.704C1040 349.474 1054.16 345.859 1070.03 345.859C1085.69 345.859 1099.75 349.474 1112.2 356.704C1124.65 363.733 1134.39 373.474 1141.42 385.925C1148.65 398.377 1152.27 412.536 1152.27 428.401C1152.27 444.267 1148.65 458.426 1141.42 470.877C1134.39 483.329 1124.65 493.17 1112.2 500.399C1099.75 507.429 1085.69 510.943 1070.03 510.943ZM1070.03 478.107C1078.66 478.107 1086.29 475.898 1092.92 471.48C1099.75 467.061 1105.07 461.137 1108.89 453.706C1112.9 446.275 1114.81 437.84 1114.61 428.401C1114.81 418.761 1112.9 410.226 1108.89 402.795C1105.07 395.364 1099.75 389.54 1092.92 385.323C1086.29 380.905 1078.66 378.695 1070.03 378.695C1061.39 378.695 1053.56 380.905 1046.53 385.323C1039.7 389.54 1034.38 395.465 1030.56 403.096C1026.75 410.527 1024.84 418.962 1024.84 428.401C1024.84 437.84 1026.75 446.275 1030.56 453.706C1034.38 461.137 1039.7 467.061 1046.53 471.48C1053.56 475.898 1061.39 478.107 1070.03 478.107Z" fill="white"/>
<path d="M898.981 507.93V308.805H936.035V507.93H898.981ZM867.651 383.514V349.172H970.678V383.514H867.651Z" fill="white"/>
<path d="M766.446 510.942C754.195 510.942 742.948 509.436 732.706 506.424C722.463 503.21 713.225 498.491 704.991 492.265C696.757 486.039 689.427 478.508 683 469.671L708.606 440.752C718.447 454.408 728.087 463.847 737.526 469.069C746.965 474.291 757.609 476.901 769.458 476.901C776.286 476.901 782.512 475.897 788.135 473.889C793.759 471.68 798.177 468.768 801.39 465.153C804.604 461.337 806.21 457.019 806.21 452.199C806.21 448.785 805.507 445.672 804.102 442.86C802.897 439.848 800.989 437.237 798.378 435.028C795.767 432.618 792.554 430.409 788.738 428.4C784.922 426.392 780.604 424.685 775.784 423.279C770.964 421.873 765.642 420.568 759.818 419.363C748.772 417.154 739.133 414.242 730.898 410.627C722.664 406.811 715.736 402.192 710.112 396.769C704.489 391.146 700.372 384.92 697.761 378.092C695.15 371.063 693.845 363.13 693.845 354.293C693.845 345.457 695.753 337.323 699.569 329.892C703.585 322.462 709.008 316.035 715.836 310.613C722.664 305.19 730.597 300.973 739.635 297.96C748.672 294.948 758.412 293.441 768.856 293.441C780.705 293.441 791.248 294.847 800.487 297.659C809.926 300.471 818.16 304.688 825.189 310.311C832.419 315.734 838.343 322.361 842.963 330.194L817.055 355.8C813.039 349.574 808.52 344.453 803.499 340.436C798.478 336.219 793.056 333.106 787.232 331.097C781.408 328.888 775.282 327.784 768.856 327.784C761.626 327.784 755.299 328.788 749.877 330.796C744.655 332.804 740.538 335.717 737.526 339.532C734.513 343.147 733.007 347.566 733.007 352.787C733.007 356.804 733.911 360.419 735.718 363.632C737.526 366.645 740.036 369.356 743.25 371.766C746.664 374.176 750.982 376.285 756.203 378.092C761.425 379.899 767.349 381.506 773.977 382.912C785.023 385.121 794.964 388.134 803.8 391.949C812.637 395.564 820.168 399.983 826.394 405.204C832.62 410.225 837.339 416.049 840.553 422.677C843.766 429.103 845.373 436.333 845.373 444.367C845.373 458.224 842.059 470.173 835.431 480.215C829.005 490.056 819.867 497.687 808.018 503.11C796.169 508.331 782.311 510.942 766.446 510.942Z" fill="white"/>
<path d="M1528.2 206.681L1494.31 160.816L1487.98 152.231L1438.96 87.6133H1473.3L1506.28 132.349L1513.29 141.838L1561.86 206.681H1528.2ZM1438.73 206.681L1485.95 143.419L1501.77 162.398L1471.49 206.681H1438.73ZM1513.29 151.101L1498.15 132.349L1525.49 87.6133H1558.25L1513.29 151.101Z" fill="#C7C7C7"/>
<path d="M1375.24 208.943C1362.74 208.943 1351.67 206.307 1342.03 201.035C1332.54 195.764 1325.08 188.609 1319.66 179.571C1314.39 170.383 1311.75 159.915 1311.75 148.166C1311.75 138.828 1313.26 130.317 1316.27 122.636C1319.28 114.954 1323.43 108.326 1328.7 102.753C1334.12 97.0295 1340.52 92.6614 1347.9 89.649C1355.43 86.4858 1363.64 84.9043 1372.53 84.9043C1380.36 84.9043 1387.67 86.4105 1394.44 89.423C1401.22 92.4355 1407.1 96.5777 1412.07 101.849C1417.04 106.971 1420.8 113.146 1423.36 120.376C1426.08 127.456 1427.36 135.213 1427.21 143.648L1426.98 153.363H1330.5L1325.31 134.384H1403.71L1400.09 138.225V133.255C1399.64 128.585 1398.13 124.518 1395.57 121.054C1393.01 117.439 1389.7 114.653 1385.63 112.694C1381.72 110.586 1377.35 109.531 1372.53 109.531C1365.15 109.531 1358.9 110.962 1353.78 113.824C1348.81 116.686 1345.04 120.828 1342.48 126.251C1339.92 131.522 1338.64 138.15 1338.64 146.133C1338.64 153.815 1340.22 160.518 1343.38 166.241C1346.7 171.965 1351.29 176.408 1357.17 179.571C1363.19 182.584 1370.19 184.09 1378.18 184.09C1383.75 184.09 1388.87 183.186 1393.54 181.379C1398.21 179.571 1403.26 176.333 1408.68 171.664L1422.46 190.868C1418.39 194.634 1413.72 197.872 1408.45 200.583C1403.33 203.144 1397.91 205.177 1392.19 206.684C1386.46 208.19 1380.81 208.943 1375.24 208.943Z" fill="#C7C7C7"/>
<path d="M1245.6 206.681V57.3379H1273.39V206.681H1245.6ZM1222.1 113.37V87.6133H1299.37V113.37H1222.1Z" fill="#C7C7C7"/>
<path d="M1095.04 206.682V87.6142H1122.15L1122.61 112.015L1117.41 114.727C1118.92 109.304 1121.85 104.409 1126.22 100.041C1130.59 95.522 1135.79 91.907 1141.81 89.1957C1147.84 86.4845 1154.01 85.1289 1160.34 85.1289C1169.37 85.1289 1176.91 86.9364 1182.93 90.5514C1189.11 94.1663 1193.7 99.5888 1196.71 106.819C1199.88 114.049 1201.46 123.086 1201.46 133.931V206.682H1173.67V135.964C1173.67 129.94 1172.84 124.969 1171.18 121.053C1169.53 116.986 1166.96 114.049 1163.5 112.241C1160.04 110.283 1155.82 109.379 1150.85 109.53C1146.78 109.53 1143.02 110.208 1139.55 111.563C1136.24 112.768 1133.3 114.576 1130.74 116.986C1128.33 119.245 1126.37 121.881 1124.87 124.894C1123.51 127.906 1122.83 131.22 1122.83 134.835V206.682H1109.05C1106.34 206.682 1103.78 206.682 1101.37 206.682C1099.11 206.682 1097 206.682 1095.04 206.682Z" fill="#C7C7C7"/>
<path d="M1032.01 206.682V87.6137H1059.8V206.682H1032.01ZM1045.57 62.3088C1040 62.3088 1035.63 60.9532 1032.47 58.242C1029.45 55.3801 1027.95 51.3886 1027.95 46.2674C1027.95 41.4474 1029.53 37.5312 1032.69 34.5187C1035.85 31.5062 1040.15 30 1045.57 30C1051.29 30 1055.66 31.4309 1058.67 34.2928C1061.84 37.004 1063.42 40.9955 1063.42 46.2674C1063.42 50.9367 1061.84 54.7776 1058.67 57.7901C1055.51 60.8026 1051.14 62.3088 1045.57 62.3088Z" fill="#C7C7C7"/>
<path d="M928.851 208.942C919.06 208.942 910.173 206.231 902.19 200.808C894.207 195.386 887.806 188.005 882.986 178.666C878.166 169.328 875.756 158.709 875.756 146.809C875.756 134.91 878.166 124.291 882.986 114.952C887.806 105.614 894.358 98.3085 902.642 93.0367C910.927 87.7648 920.265 85.1289 930.658 85.1289C936.683 85.1289 942.181 86.0327 947.152 87.8401C952.122 89.497 956.49 91.907 960.256 95.0701C964.021 98.2332 967.109 101.848 969.519 105.915C972.08 109.982 973.812 114.35 974.716 119.019L968.616 117.438V87.6142H996.632V206.682H968.39V178.214L974.942 177.085C973.887 181.152 971.929 185.143 969.067 189.059C966.356 192.825 962.892 196.214 958.674 199.227C954.607 202.088 950.013 204.423 944.892 206.231C939.922 208.038 934.575 208.942 928.851 208.942ZM936.533 184.315C943.009 184.315 948.733 182.733 953.704 179.57C958.674 176.407 962.515 172.039 965.226 166.466C968.088 160.742 969.519 154.19 969.519 146.809C969.519 139.579 968.088 133.178 965.226 127.605C962.515 122.032 958.674 117.664 953.704 114.501C948.733 111.337 943.009 109.756 936.533 109.756C930.056 109.756 924.332 111.337 919.361 114.501C914.542 117.664 910.776 122.032 908.065 127.605C905.353 133.178 903.998 139.579 903.998 146.809C903.998 154.19 905.353 160.742 908.065 166.466C910.776 172.039 914.542 176.407 919.361 179.57C924.332 182.733 930.056 184.315 936.533 184.315Z" fill="#C7C7C7"/>
<path d="M692.488 206.682V48.5273H720.278L777.892 142.291L761.625 142.065L819.916 48.5273H846.351V206.682H817.205V147.261C817.205 133.705 817.506 121.505 818.109 110.66C818.862 99.8148 820.067 89.0452 821.724 78.3509L825.339 88.0661L776.31 163.755H761.399L713.952 88.7439L717.115 78.3509C718.772 88.4427 719.902 98.8357 720.504 109.53C721.257 120.074 721.634 132.651 721.634 147.261V206.682H692.488Z" fill="#C7C7C7"/>
</svg>
