<svg width="3437" height="512" viewBox="0 0 3437 512" fill="none" xmlns="http://www.w3.org/2000/svg">
<path d="M3273.92 439.029C3250.75 439.029 3229.28 434.858 3209.51 426.517C3189.73 418.175 3172.43 406.59 3157.6 391.76C3143.08 376.622 3131.81 358.857 3123.77 338.467C3115.74 318.076 3111.72 295.832 3111.72 271.734C3111.72 247.636 3115.74 225.392 3123.77 205.002C3131.81 184.611 3143.08 167.001 3157.6 152.172C3172.43 137.033 3189.73 125.293 3209.51 116.952C3229.28 108.61 3250.75 104.439 3273.92 104.439C3297.4 104.439 3319.03 108.61 3338.8 116.952C3358.57 125.293 3375.72 137.033 3390.24 152.172C3404.76 167.31 3416.04 185.075 3424.07 205.465C3432.1 225.547 3436.12 247.636 3436.12 271.734C3436.12 295.523 3432.1 317.613 3424.07 338.003C3416.04 358.394 3404.76 376.158 3390.24 391.297C3375.72 406.435 3358.57 418.175 3338.8 426.517C3319.03 434.858 3297.4 439.029 3273.92 439.029ZM3273.92 381.565C3288.75 381.565 3302.19 378.939 3314.24 373.687C3326.6 368.126 3337.26 360.402 3346.22 350.516C3355.18 340.321 3362.13 328.581 3367.07 315.296C3372.32 302.011 3374.95 287.491 3374.95 271.734C3374.95 255.978 3372.32 241.457 3367.07 228.173C3362.13 214.888 3355.18 203.303 3346.22 193.416C3337.26 183.221 3326.6 175.497 3314.24 170.245C3302.19 164.684 3288.75 161.904 3273.92 161.904C3259.4 161.904 3245.96 164.684 3233.6 170.245C3221.25 175.497 3210.59 183.066 3201.63 192.953C3192.67 202.839 3185.72 214.425 3180.77 227.709C3175.83 240.994 3173.36 255.669 3173.36 271.734C3173.36 287.491 3175.83 302.166 3180.77 315.759C3185.72 329.044 3192.67 340.63 3201.63 350.516C3210.59 360.402 3221.25 368.126 3233.6 373.687C3245.96 378.939 3259.4 381.565 3273.92 381.565Z" fill="white" fill-opacity="0.75"/>
<path d="M2923.81 439.029C2899.4 439.029 2876.85 434.858 2856.15 426.516C2835.45 417.866 2817.38 405.971 2801.93 390.833C2786.79 375.694 2775.05 358.084 2766.71 338.003C2758.37 317.612 2754.2 295.523 2754.2 271.734C2754.2 248.254 2758.37 226.473 2766.71 206.391C2775.36 186.001 2787.41 168.391 2802.86 153.561C2818.31 138.423 2836.38 126.683 2857.08 118.341C2878.09 110 2900.64 105.829 2924.74 105.829C2941.73 105.829 2958.1 108.146 2973.86 112.78C2989.62 117.415 3003.83 123.903 3016.5 132.244C3029.16 140.586 3039.67 150.009 3048.01 160.513L3010.01 200.367C3001.36 192.025 2992.4 185.074 2983.13 179.513C2974.17 173.952 2964.75 169.627 2954.86 166.537C2944.97 163.448 2934.78 161.903 2924.27 161.903C2908.83 161.903 2894.46 164.684 2881.18 170.245C2868.2 175.806 2856.77 183.529 2846.88 193.416C2837.31 203.302 2829.74 214.887 2824.18 228.172C2818.61 241.457 2815.83 255.977 2815.83 271.734C2815.83 286.872 2818.61 301.238 2824.18 314.832C2830.05 328.426 2838.08 340.32 2848.27 350.515C2858.47 360.711 2870.21 368.743 2883.49 374.613C2897.09 380.174 2911.45 382.955 2926.59 382.955C2938.02 382.955 2948.68 381.255 2958.57 377.857C2968.45 374.459 2977.26 369.824 2984.98 363.954C2992.71 357.775 2998.58 350.67 3002.59 342.637C3006.92 334.604 3009.08 325.954 3009.08 316.686V306.49L3017.42 316.222H2921.49V262.465H3068.4C3069.02 265.864 3069.48 269.726 3069.79 274.051C3070.1 278.067 3070.25 282.083 3070.25 286.1C3070.56 289.807 3070.72 293.051 3070.72 295.832C3070.72 317.149 3067.01 336.613 3059.59 354.223C3052.18 371.524 3041.67 386.508 3028.08 399.174C3014.8 411.841 2999.19 421.728 2981.28 428.833C2963.67 435.63 2944.51 439.029 2923.81 439.029Z" fill="white" fill-opacity="0.75"/>
<path d="M2520.14 434.394L2450.63 340.319L2437.65 322.709L2337.09 190.171H2407.53L2475.19 281.928L2489.55 301.392L2589.19 434.394H2520.14ZM2336.62 434.394L2433.48 304.636L2465.92 343.563L2403.82 434.394H2336.62ZM2489.55 320.392L2458.5 281.928L2514.58 190.171H2581.77L2489.55 320.392Z" fill="white"/>
<path d="M2206.4 439.027C2180.76 439.027 2158.05 433.621 2138.28 422.808C2118.81 411.994 2103.52 397.319 2092.4 378.783C2081.59 359.937 2076.18 338.465 2076.18 314.367C2076.18 295.212 2079.27 277.757 2085.45 262.001C2091.63 246.244 2100.12 232.651 2110.94 221.22C2122.06 209.48 2135.19 200.52 2150.33 194.341C2165.77 187.853 2182.61 184.609 2200.84 184.609C2216.91 184.609 2231.89 187.699 2245.79 193.878C2259.69 200.057 2271.74 208.553 2281.94 219.366C2292.13 229.87 2299.86 242.537 2305.11 257.366C2310.67 271.887 2313.3 287.798 2312.99 305.099L2312.52 325.026H2114.64L2103.98 286.099H2264.79L2257.38 293.977V283.781C2256.45 274.204 2253.36 265.862 2248.11 258.757C2242.86 251.342 2236.06 245.626 2227.72 241.61C2219.69 237.285 2210.73 235.122 2200.84 235.122C2185.7 235.122 2172.88 238.057 2162.38 243.927C2152.18 249.797 2144.46 258.293 2139.21 269.415C2133.95 280.229 2131.33 293.822 2131.33 310.196C2131.33 325.953 2134.57 339.701 2141.06 351.441C2147.86 363.181 2157.28 372.295 2169.33 378.783C2181.69 384.962 2196.05 388.051 2212.43 388.051C2223.86 388.051 2234.36 386.197 2243.94 382.49C2253.52 378.783 2263.87 372.14 2274.99 362.563L2303.26 401.954C2294.91 409.677 2285.34 416.32 2274.52 421.881C2264.02 427.133 2252.9 431.304 2241.16 434.393C2229.42 437.483 2217.83 439.027 2206.4 439.027Z" fill="white"/>
<path d="M1940.49 434.393V128.072H1997.5V434.393H1940.49ZM1892.3 243.001V190.171H2050.79V243.001H1892.3Z" fill="white"/>
<path d="M1631.69 434.396V190.173H1687.3L1688.22 240.222L1677.56 245.783C1680.65 234.661 1686.68 224.62 1695.64 215.661C1704.6 206.393 1715.26 198.978 1727.61 193.417C1739.97 187.856 1752.64 185.075 1765.61 185.075C1784.15 185.075 1799.6 188.783 1811.96 196.197C1824.62 203.612 1834.05 214.734 1840.23 229.564C1846.71 244.393 1849.96 262.93 1849.96 285.174V434.396H1792.96V289.345C1792.96 276.987 1791.26 266.792 1787.86 258.759C1784.46 250.418 1779.21 244.393 1772.1 240.686C1765 236.669 1756.35 234.816 1746.15 235.125C1737.81 235.125 1730.09 236.515 1722.98 239.295C1716.18 241.767 1710.16 245.474 1704.91 250.418C1699.96 255.052 1695.95 260.458 1692.86 266.637C1690.08 272.816 1688.69 279.613 1688.69 287.028V434.396H1660.42C1654.86 434.396 1649.6 434.396 1644.66 434.396C1640.03 434.396 1635.7 434.396 1631.69 434.396Z" fill="white"/>
<path d="M1502.4 434.395V190.172H1559.4V434.395H1502.4ZM1530.21 138.269C1518.78 138.269 1509.82 135.489 1503.33 129.928C1497.15 124.058 1494.06 115.87 1494.06 105.366C1494.06 95.48 1497.3 87.4474 1503.79 81.2684C1510.28 75.0895 1519.09 72 1530.21 72C1541.95 72 1550.91 74.935 1557.09 80.805C1563.57 86.366 1566.82 94.5531 1566.82 105.366C1566.82 114.944 1563.57 122.822 1557.09 129.001C1550.6 135.18 1541.64 138.269 1530.21 138.269Z" fill="white"/>
<path d="M1290.81 439.03C1270.72 439.03 1252.5 433.469 1236.12 422.347C1219.75 411.225 1206.62 396.086 1196.73 376.931C1186.85 357.777 1181.9 335.996 1181.9 311.589C1181.9 287.182 1186.85 265.401 1196.73 246.247C1206.62 227.092 1220.06 212.108 1237.05 201.295C1254.04 190.482 1273.2 185.075 1294.51 185.075C1306.87 185.075 1318.15 186.929 1328.34 190.636C1338.54 194.035 1347.5 198.978 1355.22 205.466C1362.95 211.954 1369.28 219.368 1374.22 227.71C1379.47 236.051 1383.03 245.011 1384.88 254.588L1372.37 251.344V190.173H1429.83V434.396H1371.91V376.005L1385.34 373.687C1383.18 382.029 1379.17 390.216 1373.3 398.249C1367.73 405.972 1360.63 412.924 1351.98 419.103C1343.64 424.973 1334.21 429.761 1323.71 433.469C1313.51 437.176 1302.55 439.03 1290.81 439.03ZM1306.56 388.517C1319.85 388.517 1331.59 385.273 1341.78 378.785C1351.98 372.297 1359.86 363.338 1365.42 351.907C1371.29 340.167 1374.22 326.727 1374.22 311.589C1374.22 296.76 1371.29 283.629 1365.42 272.198C1359.86 260.767 1351.98 251.808 1341.78 245.32C1331.59 238.832 1319.85 235.588 1306.56 235.588C1293.28 235.588 1281.54 238.832 1271.34 245.32C1261.46 251.808 1253.73 260.767 1248.17 272.198C1242.61 283.629 1239.83 296.76 1239.83 311.589C1239.83 326.727 1242.61 340.167 1248.17 351.907C1253.73 363.338 1261.46 372.297 1271.34 378.785C1281.54 385.273 1293.28 388.517 1306.56 388.517Z" fill="white"/>
<path d="M806 434.395V110.001H863.001L981.173 302.321L947.807 301.857L1067.37 110.001H1121.59V434.395H1061.81V312.516C1061.81 284.711 1062.43 259.686 1063.66 237.442C1065.21 215.197 1067.68 193.108 1071.08 171.173L1078.49 191.1L977.929 346.346H947.344L850.025 192.49L856.513 171.173C859.911 191.872 862.228 213.189 863.464 235.125C865.009 256.751 865.781 282.548 865.781 312.516V434.395H806Z" fill="white"/>
<path d="M255.875 0.101275C257.004 0.0678543 258.133 0.0344335 259.295 0C268.652 1.83968 275.471 9.79502 281.941 16.3142C282.916 17.2857 283.892 18.2565 284.868 19.2268C287.53 21.8763 290.183 24.535 292.834 27.1953C295.701 30.0699 298.578 32.9359 301.453 35.8029C307.076 41.413 312.692 47.0312 318.304 52.6523C322.866 57.2208 327.431 61.7864 331.997 66.3499C332.648 67.0002 333.299 67.6505 333.969 68.3205C335.292 69.6417 336.614 70.9629 337.936 72.284C350.322 84.6612 362.698 97.0476 375.072 109.437C385.685 120.064 396.307 130.683 406.934 141.297C419.283 153.63 431.628 165.968 443.964 178.314C445.28 179.631 446.596 180.947 447.911 182.264C448.559 182.912 449.206 183.559 449.873 184.227C454.431 188.788 458.993 193.346 463.557 197.902C469.118 203.454 474.673 209.012 480.221 214.576C483.052 217.414 485.884 220.25 488.723 223.079C491.323 225.67 493.916 228.268 496.504 230.872C497.882 232.255 499.268 233.631 500.654 235.007C506.924 241.336 511.835 246.523 511.899 255.875C511.932 257.004 511.966 258.133 512 259.295C510.045 269.238 501.303 276.374 494.38 283.254C493.28 284.358 492.18 285.463 491.081 286.569C488.115 289.549 485.14 292.519 482.162 295.487C479.038 298.604 475.92 301.728 472.802 304.852C467.567 310.091 462.327 315.325 457.082 320.555C451.028 326.593 444.985 332.641 438.948 338.695C433.751 343.906 428.548 349.11 423.34 354.31C420.236 357.41 417.133 360.512 414.035 363.62C411.124 366.539 408.206 369.452 405.282 372.359C404.213 373.424 403.146 374.491 402.083 375.562C388.65 389.07 388.65 389.07 378.975 389.71C366.096 389.213 357.81 377.9 349.372 369.428C348.359 368.415 347.346 367.402 346.332 366.39C343.605 363.662 340.881 360.932 338.157 358.201C335.301 355.34 332.443 352.481 329.585 349.622C324.184 344.217 318.785 338.81 313.387 333.402C307.237 327.241 301.084 321.082 294.931 314.924C282.283 302.266 269.639 289.605 256.997 276.941C253.47 278.443 251.228 280.482 248.545 283.199C247.656 284.093 246.768 284.988 245.852 285.91C244.874 286.904 243.897 287.898 242.919 288.892C241.884 289.938 240.849 290.983 239.813 292.028C237.583 294.277 235.356 296.529 233.132 298.784C229.609 302.353 226.076 305.912 222.542 309.469C212.492 319.585 202.451 329.709 192.43 339.855C186.896 345.459 181.35 351.052 175.792 356.633C172.854 359.584 169.922 362.541 167.004 365.511C164.255 368.309 161.492 371.092 158.719 373.865C157.708 374.88 156.702 375.901 155.702 376.928C149.349 383.441 143.25 389.02 133.834 389.838C121.937 389.403 113.954 379.637 106.094 371.728C104.99 370.628 103.885 369.528 102.779 368.429C99.7996 365.463 96.8294 362.488 93.8614 359.51C90.7443 356.386 87.6198 353.268 84.4966 350.15C79.2568 344.915 74.0232 339.675 68.7933 334.43C62.7556 328.376 56.7071 322.333 50.6531 316.296C45.4426 311.099 40.2379 305.896 35.0382 300.688C31.938 297.584 28.8359 294.481 25.7285 291.383C22.8087 288.472 19.8964 285.554 16.9895 282.63C15.9245 281.561 14.8569 280.494 13.7866 279.431C0.167696 265.888 0.167694 265.888 0.101275 256.125C0.0678543 254.996 0.0344335 253.867 0 252.705C1.83968 243.348 9.79502 236.529 16.3142 230.059C17.2857 229.084 18.2565 228.108 19.2268 227.132C21.8763 224.47 24.535 221.817 27.1953 219.166C30.0699 216.299 32.9359 213.422 35.8029 210.547C41.413 204.924 47.0312 199.308 52.6523 193.696C57.2208 189.134 61.7864 184.569 66.3499 180.003C67.0002 179.352 67.6505 178.701 68.3205 178.031C69.6417 176.708 70.9629 175.386 72.284 174.064C84.6612 161.678 97.0476 149.302 109.437 136.928C120.064 126.315 130.683 115.693 141.297 105.066C153.63 92.7166 165.968 80.3722 178.314 68.0356C179.631 66.7199 180.947 65.4043 182.264 64.0887C182.912 63.4414 183.559 62.7941 184.227 62.1272C188.788 57.5686 193.346 53.0066 197.902 48.4431C203.454 42.8825 209.012 37.3272 214.576 31.7787C217.414 28.9485 220.25 26.1159 223.079 23.2768C225.67 20.6767 228.268 18.0837 230.872 15.4961C232.255 14.1176 233.631 12.7317 235.007 11.3456C241.336 5.07609 246.523 0.164895 255.875 0.101275ZM253.444 51.8937C252.824 52.5147 252.204 53.1357 251.565 53.7755C250.491 54.8436 250.491 54.8436 249.395 55.9333C248.606 56.7287 247.816 57.5241 247.002 58.3436C245.748 59.5957 245.748 59.5957 244.468 60.8731C242.138 63.2003 239.813 65.5318 237.489 67.8653C234.986 70.3771 232.477 72.8832 229.969 75.39C225.621 79.737 221.276 84.0876 216.934 88.4407C210.657 94.7346 204.373 101.023 198.089 107.31C187.894 117.51 177.703 127.714 167.515 137.921C157.616 147.838 147.715 157.753 137.811 167.665C137.201 168.276 136.591 168.886 135.962 169.516C132.902 172.579 129.841 175.642 126.781 178.705C101.375 204.131 75.9767 229.565 50.583 255.003C52.3986 258.929 54.9471 261.617 58.0072 264.616C58.5356 265.142 59.064 265.667 59.6084 266.209C61.2903 267.88 62.979 269.543 64.668 271.207C65.8124 272.341 66.9563 273.476 68.0997 274.611C70.8977 277.387 73.7019 280.157 76.5094 282.924C81.9151 278.413 86.9333 273.636 91.9003 268.65C92.7207 267.83 93.541 267.011 94.3862 266.166C96.6461 263.908 98.9038 261.647 101.161 259.385C103.601 256.941 106.044 254.499 108.487 252.057C112.714 247.831 116.938 243.603 121.162 239.374C127.268 233.259 133.378 227.147 139.488 221.036C149.401 211.12 159.313 201.202 169.224 191.282C178.848 181.648 188.473 172.016 198.1 162.385C198.99 161.494 198.99 161.494 199.899 160.585C202.879 157.604 205.858 154.623 208.838 151.643C233.536 126.934 258.231 102.221 282.924 77.5066C281.979 76.3972 281.033 75.2886 280.087 74.1804C279.297 73.2543 279.297 73.2543 278.491 72.3095C274.783 68.0452 270.712 64.114 266.72 60.1184C265.812 59.1987 264.905 58.279 263.97 57.3314C262.67 56.029 262.67 56.029 261.344 54.7002C260.557 53.9091 259.77 53.118 258.959 52.303C256.601 50.2357 255.886 49.8404 253.444 51.8937ZM310.401 107.742C309.777 108.366 309.153 108.99 308.511 109.633C307.793 110.348 307.076 111.064 306.336 111.801C305.54 112.6 304.744 113.399 303.923 114.223C302.664 115.481 302.664 115.481 301.379 116.765C299.037 119.105 296.698 121.448 294.359 123.791C291.841 126.313 289.32 128.833 286.8 131.353C282.429 135.722 278.061 140.094 273.694 144.467C267.379 150.789 261.062 157.109 254.744 163.428C244.495 173.68 234.248 183.933 224.003 194.188C214.047 204.153 204.091 214.116 194.133 224.078C193.52 224.691 192.907 225.305 192.275 225.937C189.198 229.015 186.121 232.093 183.045 235.171C157.501 260.725 131.962 286.282 106.425 311.842C107.366 312.949 108.31 314.056 109.253 315.162C109.779 315.778 110.304 316.395 110.845 317.03C112.987 319.486 115.261 321.787 117.573 324.084C118.961 325.468 118.961 325.468 120.377 326.879C121.335 327.829 122.293 328.779 123.252 329.728C124.234 330.705 125.215 331.682 126.197 332.659C128.578 335.029 130.962 337.397 133.348 339.762C138.754 335.252 143.772 330.475 148.739 325.488C149.559 324.669 150.38 323.849 151.225 323.005C153.485 320.747 155.742 318.486 157.999 316.224C160.44 313.779 162.883 311.338 165.326 308.895C169.552 304.669 173.777 300.441 178.001 296.212C184.107 290.098 190.216 283.986 196.326 277.875C206.24 267.959 216.152 258.04 226.062 248.121C235.686 238.487 245.312 228.855 254.938 219.224C255.829 218.333 255.829 218.333 256.738 217.424C259.717 214.443 262.697 211.462 265.676 208.481C290.375 183.773 315.07 159.06 339.762 134.345C338.82 133.238 337.876 132.131 336.932 131.025C336.407 130.408 335.882 129.792 335.341 129.157C333.206 126.707 330.946 124.402 328.649 122.103C327.268 120.719 327.268 120.719 325.858 119.308C325.389 118.841 324.92 118.373 324.436 117.892C322.979 116.441 321.528 114.984 320.078 113.527C318.706 112.157 318.706 112.157 317.306 110.76C316.055 109.511 316.055 109.511 314.779 108.236C312.554 105.913 312.554 105.913 310.401 107.742ZM365.077 165.643C363.985 166.735 362.899 167.833 361.817 168.935C361.244 169.51 360.672 170.086 360.082 170.678C358.248 172.523 356.422 174.375 354.595 176.226C353.356 177.476 352.116 178.725 350.875 179.974C347.83 183.04 344.792 186.113 341.757 189.19C346.368 194.725 351.278 199.845 356.383 204.926C357.23 205.773 358.077 206.62 358.949 207.493C361.253 209.796 363.558 212.096 365.864 214.396C368.282 216.807 370.696 219.221 373.111 221.634C377.675 226.195 382.242 230.754 386.809 235.311C392.013 240.504 397.214 245.699 402.414 250.895C413.104 261.574 423.798 272.25 434.493 282.924C435.603 281.98 436.711 281.035 437.82 280.089C438.437 279.563 439.054 279.037 439.691 278.494C442.067 276.423 444.296 274.23 446.518 271.994C447.395 271.113 448.272 270.233 449.176 269.325C450.069 268.424 450.962 267.523 451.882 266.595C452.801 265.671 453.721 264.747 454.669 263.794C456.92 261.531 459.17 259.265 461.417 256.997C459.997 253.767 458.276 251.612 455.789 249.122C455.034 248.361 454.279 247.601 453.501 246.817C452.672 245.992 451.844 245.167 450.99 244.317C450.117 243.441 449.245 242.566 448.346 241.663C445.956 239.266 443.561 236.873 441.164 234.482C438.657 231.98 436.155 229.474 433.653 226.968C429.452 222.763 425.246 218.563 421.038 214.364C416.169 209.506 411.307 204.64 406.448 199.771C402.279 195.592 398.105 191.417 393.928 187.245C391.433 184.753 388.939 182.259 386.448 179.762C383.674 176.982 380.893 174.209 378.11 171.438C377.282 170.605 376.453 169.772 375.599 168.914C374.844 168.165 374.089 167.416 373.311 166.643C372.653 165.987 371.996 165.33 371.319 164.654C368.434 162.21 367.838 163.122 365.077 165.643ZM309.257 221.576C308.12 222.713 306.986 223.853 305.855 224.994C305.258 225.592 304.662 226.189 304.048 226.805C302.135 228.723 300.226 230.645 298.317 232.567C297.025 233.864 295.733 235.161 294.44 236.458C291.263 239.645 288.09 242.836 284.918 246.028C289.529 251.564 294.439 256.683 299.544 261.765C300.391 262.612 301.238 263.459 302.111 264.332C304.414 266.634 306.719 268.935 309.026 271.234C311.443 273.645 313.857 276.059 316.272 278.473C320.836 283.034 325.403 287.592 329.97 292.15C335.174 297.342 340.375 302.538 345.576 307.733C356.266 318.413 366.959 329.089 377.655 339.762C378.762 338.82 379.869 337.877 380.975 336.933C381.591 336.408 382.208 335.883 382.843 335.342C385.299 333.2 387.6 330.926 389.897 328.614C390.82 327.689 391.742 326.763 392.692 325.81C393.642 324.852 394.592 323.893 395.541 322.935C396.518 321.953 397.495 320.972 398.473 319.99C400.843 317.609 403.21 315.225 405.575 312.839C400.966 307.307 396.061 302.185 390.965 297.102C390.12 296.255 389.274 295.408 388.403 294.535C386.104 292.232 383.803 289.932 381.501 287.633C379.087 285.221 376.675 282.808 374.264 280.394C370.221 276.35 366.176 272.308 362.131 268.267C357.449 263.59 352.771 258.91 348.094 254.228C344.074 250.204 340.052 246.181 336.029 242.16C333.627 239.761 331.227 237.36 328.828 234.958C326.161 232.289 323.491 229.623 320.821 226.958C320.022 226.157 319.224 225.357 318.402 224.533C317.679 223.813 316.956 223.093 316.212 222.351C315.581 221.721 314.95 221.09 314.3 220.44C311.777 218.134 311.982 218.971 309.257 221.576Z" fill="white"/>
<path d="M406.247 141.297C418.596 153.63 430.941 165.969 443.277 178.314C444.593 179.631 445.908 180.947 447.224 182.264C447.871 182.911 448.519 183.559 449.186 184.227C453.744 188.788 458.306 193.346 462.869 197.902C468.43 203.455 473.986 209.012 479.534 214.576C482.364 217.414 485.197 220.25 488.036 223.079C490.636 225.67 493.229 228.269 495.816 230.872C497.195 232.255 498.581 233.631 499.967 235.007C506.236 241.336 511.147 246.523 511.211 255.875C511.244 257.003 511.278 258.132 511.312 259.295C509.358 269.238 500.615 276.374 493.692 283.254C492.592 284.358 491.493 285.464 490.394 286.569C487.428 289.549 484.452 292.518 481.475 295.486C478.35 298.603 475.233 301.728 472.114 304.852C466.88 310.091 461.639 315.325 456.395 320.555C450.341 326.592 444.297 332.641 438.26 338.695C433.063 343.906 427.861 349.11 422.653 354.31C419.549 357.41 416.445 360.512 413.348 363.619C410.437 366.539 407.518 369.452 404.594 372.358C403.525 373.423 402.459 374.491 401.396 375.562C387.963 389.07 387.963 389.069 378.288 389.71C365.41 389.212 357.123 377.9 348.685 369.429C347.672 368.416 346.658 367.402 345.645 366.39C342.917 363.663 340.193 360.932 337.47 358.201C334.614 355.339 331.755 352.481 328.897 349.622C323.496 344.217 318.097 338.809 312.699 333.401C306.549 327.24 300.396 321.083 294.243 314.925C281.595 302.267 268.951 289.604 256.31 276.94C255.584 277.249 254.915 277.583 254.283 277.938L284.941 246.875C289.345 252.088 294.013 256.944 298.856 261.765C299.703 262.612 300.55 263.459 301.423 264.332C303.726 266.635 306.032 268.935 308.338 271.234C310.755 273.645 313.17 276.059 315.585 278.473C320.149 283.034 324.716 287.592 329.283 292.149C334.487 297.342 339.687 302.538 344.888 307.733C355.578 318.413 366.271 329.089 376.967 339.763C378.074 338.821 379.182 337.877 380.288 336.934C380.904 336.409 381.52 335.883 382.155 335.342C384.612 333.2 386.913 330.926 389.21 328.614C390.132 327.689 391.055 326.763 392.005 325.81C392.955 324.851 393.904 323.893 394.854 322.935C395.83 321.953 396.808 320.972 397.785 319.99C400.155 317.609 402.522 315.225 404.888 312.839C400.278 307.308 395.374 302.185 390.278 297.103C389.433 296.255 388.587 295.408 387.716 294.535C385.417 292.233 383.116 289.932 380.813 287.633C378.4 285.222 375.988 282.808 373.576 280.395C369.534 276.35 365.489 272.308 361.443 268.267C356.762 263.59 352.083 258.91 347.406 254.229C343.386 250.204 339.364 246.181 335.341 242.16C332.94 239.761 330.539 237.36 328.141 234.958C325.474 232.289 322.803 229.623 320.133 226.958C319.335 226.158 318.536 225.357 317.714 224.532C316.991 223.813 316.269 223.093 315.524 222.352C314.893 221.721 314.262 221.09 313.612 220.44C312.994 219.876 312.54 219.499 312.166 219.291L341.44 189.631C345.944 194.998 350.727 199.98 355.695 204.926C356.542 205.773 357.389 206.62 358.262 207.493C360.565 209.796 362.87 212.096 365.177 214.396C367.594 216.806 370.008 219.22 372.423 221.634C376.987 226.195 381.554 230.754 386.122 235.312C391.326 240.504 396.526 245.699 401.727 250.895C412.416 261.574 423.11 272.25 433.806 282.924C434.915 281.98 436.024 281.034 437.132 280.089C437.749 279.563 438.367 279.036 439.003 278.494C441.379 276.423 443.609 274.23 445.83 271.994C446.707 271.114 447.585 270.232 448.489 269.325C449.382 268.424 450.275 267.523 451.194 266.595C452.114 265.671 453.034 264.746 453.981 263.794C456.233 261.531 458.482 259.265 460.729 256.997C459.309 253.767 457.589 251.612 455.102 249.122C454.347 248.361 453.591 247.6 452.813 246.816C451.985 245.992 451.156 245.167 450.302 244.317C449.429 243.442 448.557 242.566 447.658 241.663C445.268 239.266 442.874 236.872 440.477 234.481C437.97 231.98 435.467 229.473 432.965 226.968C428.764 222.763 424.558 218.562 420.351 214.364C415.481 209.506 410.619 204.64 405.761 199.771C401.591 195.592 397.418 191.417 393.241 187.245C390.746 184.753 388.251 182.259 385.76 179.762C382.986 176.982 380.205 174.21 377.423 171.438C376.594 170.606 375.765 169.772 374.911 168.914C374.156 168.165 373.401 167.416 372.623 166.644C371.966 165.987 371.308 165.33 370.631 164.653C369.172 163.417 368.298 163.04 367.434 163.295L397.638 132.694C400.507 135.562 403.377 138.43 406.247 141.297Z" fill="#DCDBDB"/>
<path d="M254.216 330.352C254.986 330.333 255.756 330.314 256.549 330.294C264.294 331.705 269.589 336.541 274.965 341.969C275.691 342.686 276.417 343.403 277.164 344.142C279.545 346.5 281.911 348.872 284.275 351.246C285.933 352.899 287.591 354.551 289.25 356.202C292.717 359.659 296.177 363.123 299.632 366.593C304.054 371.032 308.496 375.45 312.944 379.863C316.37 383.268 319.785 386.684 323.196 390.103C324.829 391.737 326.466 393.367 328.106 394.993C330.4 397.269 332.677 399.561 334.951 401.857C335.627 402.522 336.303 403.186 337 403.871C342.072 409.046 344.607 413.679 345.395 421.033C343.759 436.299 328.529 447.172 318.245 457.484C317.198 458.535 317.198 458.535 316.13 459.608C312.445 463.307 308.758 467.003 305.069 470.697C301.272 474.499 297.485 478.31 293.7 482.124C290.771 485.072 287.835 488.013 284.897 490.952C283.497 492.355 282.1 493.76 280.706 495.167C278.757 497.133 276.799 499.089 274.839 501.043C274.272 501.619 273.705 502.195 273.121 502.789C267.625 508.229 262.427 511.845 254.403 511.9C253.274 511.933 252.146 511.966 250.983 512.001C242.814 510.395 236.591 504.008 230.869 498.273C230.183 497.598 229.498 496.922 228.792 496.227C226.553 494.016 224.326 491.795 222.1 489.572C220.535 488.017 218.97 486.462 217.405 484.908C214.137 481.657 210.875 478.401 207.617 475.141C203.453 470.977 199.27 466.834 195.08 462.696C191.846 459.495 188.625 456.28 185.408 453.062C183.871 451.529 182.33 450.001 180.784 448.477C178.619 446.343 176.475 444.189 174.334 442.031C173.7 441.414 173.067 440.797 172.414 440.162C167.052 434.685 164.022 428.551 163.1 420.908C164.211 412.337 167.728 407.633 173.713 401.75C174.806 400.647 174.806 400.647 175.92 399.521C178.319 397.106 180.735 394.709 183.152 392.313C184.831 390.633 186.509 388.953 188.186 387.272C191.699 383.756 195.221 380.249 198.748 376.749C203.265 372.267 207.761 367.765 212.251 363.256C215.711 359.785 219.182 356.323 222.655 352.865C224.316 351.209 225.975 349.55 227.631 347.888C229.948 345.565 232.277 343.256 234.611 340.95C235.289 340.265 235.968 339.579 236.668 338.873C241.781 333.86 246.752 330.365 254.216 330.352ZM251.527 382.161C250.471 383.224 250.471 383.224 249.393 384.309C248.595 385.107 247.796 385.906 246.974 386.729C246.112 387.601 245.249 388.473 244.361 389.372C243.479 390.258 242.596 391.143 241.687 392.055C239.339 394.412 236.996 396.774 234.654 399.137C232.265 401.547 229.87 403.951 227.475 406.355C222.777 411.076 218.083 415.803 213.394 420.534C217.816 425.83 222.484 430.753 227.378 435.612C228.122 436.355 228.866 437.098 229.633 437.863C231.987 440.212 234.345 442.557 236.703 444.902C238.31 446.504 239.916 448.105 241.522 449.707C245.439 453.613 249.359 457.517 253.281 461.418C256.544 459.989 258.698 458.239 261.201 455.719C261.959 454.96 262.718 454.202 263.499 453.42C264.307 452.602 265.116 451.783 265.948 450.94C266.784 450.102 267.619 449.263 268.48 448.4C271.146 445.722 273.806 443.037 276.465 440.353C278.272 438.536 280.08 436.719 281.887 434.903C286.318 430.451 290.742 425.993 295.162 421.531C290.75 416.256 286.107 411.319 281.249 406.453C280.509 405.71 279.77 404.967 279.008 404.202C277.458 402.647 275.906 401.092 274.352 399.539C271.966 397.151 269.588 394.755 267.21 392.358C265.7 390.844 264.188 389.331 262.676 387.818C261.964 387.098 261.251 386.379 260.517 385.637C259.858 384.981 259.199 384.325 258.519 383.649C257.939 383.067 257.36 382.486 256.762 381.887C254.501 380.001 253.72 380.268 251.527 382.161Z" fill="#ADADAD"/>
</svg>
