<svg width="3138" height="512" viewBox="0 0 3138 512" fill="none" xmlns="http://www.w3.org/2000/svg">
<path d="M2914.68 425.126V379.126H2960.68V191.126H2914.68V145.126H3058.68V191.126H3012.68V379.126H3058.68V425.126H2914.68Z" fill="#151515" fill-opacity="0.75"/>
<path d="M2612.58 425.126L2721.78 145.126H2770.58L2878.98 425.126H2824.98L2764.98 265.926C2763.65 262.726 2761.78 257.659 2759.38 250.726C2757.25 243.793 2754.85 236.326 2752.18 228.326C2749.52 220.059 2747.12 212.459 2744.98 205.526C2742.85 198.326 2741.25 193.126 2740.18 189.926L2750.18 189.526C2748.58 194.859 2746.72 200.859 2744.58 207.526C2742.45 214.193 2740.18 221.126 2737.78 228.326C2735.38 235.526 2732.98 242.459 2730.58 249.126C2728.45 255.793 2726.45 261.793 2724.58 267.126L2664.58 425.126H2612.58ZM2662.18 361.126L2680.18 315.926H2807.78L2826.98 361.126H2662.18Z" fill="#151515" fill-opacity="0.75"/>
<path d="M2422.55 425.126L2362.55 343.926L2351.35 328.726L2264.55 214.326H2325.35L2383.75 293.526L2396.15 310.326L2482.15 425.126H2422.55ZM2264.15 425.126L2347.75 313.126L2375.75 346.726L2322.15 425.126H2264.15ZM2396.15 326.726L2369.35 293.526L2417.75 214.326H2475.75L2396.15 326.726Z" fill="#151515"/>
<path d="M2151.75 429.126C2129.62 429.126 2110.02 424.459 2092.95 415.126C2076.15 405.793 2062.95 393.126 2053.35 377.126C2044.02 360.859 2039.35 342.326 2039.35 321.526C2039.35 304.993 2042.02 289.926 2047.35 276.326C2052.68 262.726 2060.02 250.993 2069.35 241.126C2078.95 230.993 2090.28 223.259 2103.35 217.926C2116.68 212.326 2131.22 209.526 2146.95 209.526C2160.82 209.526 2173.75 212.193 2185.75 217.526C2197.75 222.859 2208.15 230.193 2216.95 239.526C2225.75 248.593 2232.42 259.526 2236.95 272.326C2241.75 284.859 2244.02 298.593 2243.75 313.526L2243.35 330.726H2072.55L2063.35 297.126H2202.15L2195.75 303.926V295.126C2194.95 286.859 2192.28 279.659 2187.75 273.526C2183.22 267.126 2177.35 262.193 2170.15 258.726C2163.22 254.993 2155.48 253.126 2146.95 253.126C2133.88 253.126 2122.82 255.659 2113.75 260.726C2104.95 265.793 2098.28 273.126 2093.75 282.726C2089.22 292.059 2086.95 303.793 2086.95 317.926C2086.95 331.526 2089.75 343.393 2095.35 353.526C2101.22 363.659 2109.35 371.526 2119.75 377.126C2130.42 382.459 2142.82 385.126 2156.95 385.126C2166.82 385.126 2175.88 383.526 2184.15 380.326C2192.42 377.126 2201.35 371.393 2210.95 363.126L2235.35 397.126C2228.15 403.793 2219.88 409.526 2210.55 414.326C2201.48 418.859 2191.88 422.459 2181.75 425.126C2171.62 427.793 2161.62 429.126 2151.75 429.126Z" fill="#151515"/>
<path d="M1922.23 425.126V160.726H1971.43V425.126H1922.23ZM1880.63 259.926V214.326H2017.43V259.926H1880.63Z" fill="#151515"/>
<path d="M1655.68 425.126V214.326H1703.68L1704.48 257.526L1695.28 262.326C1697.95 252.726 1703.15 244.059 1710.88 236.326C1718.62 228.326 1727.82 221.926 1738.48 217.126C1749.15 212.326 1760.08 209.926 1771.28 209.926C1787.28 209.926 1800.62 213.126 1811.28 219.526C1822.22 225.926 1830.35 235.526 1835.68 248.326C1841.28 261.126 1844.08 277.126 1844.08 296.326V425.126H1794.88V299.926C1794.88 289.259 1793.42 280.459 1790.48 273.526C1787.55 266.326 1783.02 261.126 1776.88 257.926C1770.75 254.459 1763.28 252.859 1754.48 253.126C1747.28 253.126 1740.62 254.326 1734.48 256.726C1728.62 258.859 1723.42 262.059 1718.88 266.326C1714.62 270.326 1711.15 274.992 1708.48 280.326C1706.08 285.659 1704.88 291.526 1704.88 297.926V425.126H1680.48C1675.68 425.126 1671.15 425.126 1666.88 425.126C1662.88 425.126 1659.15 425.126 1655.68 425.126Z" fill="#151515"/>
<path d="M1544.1 425.126V214.326H1593.3V425.126H1544.1ZM1568.1 169.526C1558.23 169.526 1550.5 167.126 1544.9 162.326C1539.56 157.26 1536.9 150.193 1536.9 141.126C1536.9 132.593 1539.7 125.66 1545.3 120.326C1550.9 114.993 1558.5 112.326 1568.1 112.326C1578.23 112.326 1585.96 114.86 1591.3 119.926C1596.9 124.726 1599.7 131.793 1599.7 141.126C1599.7 149.393 1596.9 156.193 1591.3 161.526C1585.7 166.86 1577.96 169.526 1568.1 169.526Z" fill="#151515"/>
<path d="M1361.46 429.126C1344.12 429.126 1328.39 424.326 1314.26 414.726C1300.12 405.126 1288.79 392.059 1280.26 375.526C1271.72 358.992 1267.46 340.192 1267.46 319.126C1267.46 298.059 1271.72 279.259 1280.26 262.726C1288.79 246.192 1300.39 233.259 1315.06 223.926C1329.72 214.592 1346.26 209.926 1364.66 209.926C1375.32 209.926 1385.06 211.526 1393.86 214.726C1402.66 217.659 1410.39 221.926 1417.06 227.526C1423.72 233.126 1429.19 239.526 1433.46 246.726C1437.99 253.926 1441.06 261.659 1442.66 269.926L1431.86 267.126V214.326H1481.46V425.126H1431.46V374.726L1443.06 372.726C1441.19 379.926 1437.72 386.992 1432.66 393.926C1427.86 400.592 1421.72 406.592 1414.26 411.926C1407.06 416.992 1398.92 421.126 1389.86 424.326C1381.06 427.526 1371.59 429.126 1361.46 429.126ZM1375.06 385.526C1386.52 385.526 1396.66 382.726 1405.46 377.126C1414.26 371.526 1421.06 363.792 1425.86 353.926C1430.92 343.792 1433.46 332.192 1433.46 319.126C1433.46 306.326 1430.92 294.992 1425.86 285.126C1421.06 275.259 1414.26 267.526 1405.46 261.926C1396.66 256.326 1386.52 253.526 1375.06 253.526C1363.59 253.526 1353.46 256.326 1344.66 261.926C1336.12 267.526 1329.46 275.259 1324.66 285.126C1319.86 294.992 1317.46 306.326 1317.46 319.126C1317.46 332.192 1319.86 343.792 1324.66 353.926C1329.46 363.792 1336.12 371.526 1344.66 377.126C1353.46 382.726 1363.59 385.526 1375.06 385.526Z" fill="#151515"/>
<path d="M943 425.126V145.126H992.2L1094.2 311.126L1065.4 310.726L1168.6 145.126H1215.4V425.126H1163.8V319.926C1163.8 295.926 1164.33 274.326 1165.4 255.126C1166.73 235.926 1168.87 216.859 1171.8 197.926L1178.2 215.126L1091.4 349.126H1065L981 216.326L986.6 197.926C989.533 215.793 991.533 234.193 992.6 253.126C993.933 271.793 994.6 294.059 994.6 319.926V425.126H943Z" fill="#151515"/>
<path d="M497.356 429.153L377.112 304.051L188.852 206.479L279.541 413.768L497.356 429.153Z" fill="url(#paint0_linear_2369_349)" fill-opacity="0.2"/>
<path d="M553.587 6.7575C559.12 11.5848 559.12 11.5848 560.596 15.1691C561.002 23.1756 560.039 29.8516 557.659 37.5225C557.346 38.5725 557.034 39.6225 556.712 40.7044C555.687 44.1391 554.64 47.5668 553.592 50.9948C552.871 53.3919 552.152 55.7894 551.433 58.1873C549.546 64.473 547.64 70.7529 545.73 77.0318C544.171 82.1716 542.625 87.3154 541.079 92.4594C539.238 98.5875 537.391 104.714 535.542 110.84C535.188 112.01 534.835 113.181 534.471 114.388C533.474 117.687 532.473 120.985 531.47 124.283C531.174 125.265 530.877 126.246 530.572 127.258C528.513 134.009 528.513 134.009 526.949 137.137C527.976 137.039 529.003 136.941 530.061 136.839C555.316 134.447 580.587 132.27 605.874 130.246C609.019 129.993 612.164 129.738 615.309 129.48C661.541 125.698 661.541 125.698 667.561 129.189C671.281 132.831 671.66 136.715 671.905 141.709C671.804 149.178 668.957 152.696 663.904 157.903C663.145 158.735 662.385 159.568 661.603 160.426C659.272 162.971 656.904 165.476 654.529 167.979C652.503 170.168 650.486 172.366 648.471 174.565C647.191 175.96 645.907 177.351 644.619 178.739C640.553 183.139 636.719 187.664 632.973 192.337C626.509 200.371 619.511 207.837 612.464 215.354C606.327 221.903 600.481 228.679 594.665 235.512C586.491 245.106 578.185 254.534 569.633 263.792C563.8 270.127 558.175 276.631 552.595 283.189C545.102 291.985 537.521 300.652 529.655 309.118C525.593 313.52 521.757 318.043 518.011 322.716C511.555 330.74 504.566 338.197 497.53 345.706C489.038 354.768 481.198 364.182 473.674 374.062C474.489 374.447 475.304 374.831 476.144 375.228C479.209 376.828 481.844 378.591 484.621 380.645C485.654 381.405 486.686 382.166 487.749 382.95C488.858 383.776 489.968 384.602 491.111 385.453C492.279 386.317 493.448 387.182 494.651 388.073C504.664 395.506 514.568 403.078 524.468 410.661C532.218 416.579 540.047 422.364 547.979 428.036C558.454 435.527 568.712 443.276 578.929 451.115C588.585 458.512 598.351 465.748 608.208 472.876C621.812 482.786 621.812 482.786 623.077 488.231C623.063 497.921 623.063 497.921 619.216 502.426C611.965 506.132 604.839 506.049 596.832 506.04C595.687 506.044 594.542 506.048 593.362 506.053C589.529 506.065 585.695 506.067 581.862 506.069C579.112 506.075 576.362 506.082 573.612 506.09C566.145 506.108 558.677 506.117 551.21 506.124C546.545 506.128 541.88 506.134 537.215 506.14C522.621 506.159 508.027 506.173 493.433 506.178C476.584 506.184 459.734 506.209 442.884 506.249C429.86 506.28 416.835 506.294 403.811 506.296C396.031 506.297 388.251 506.306 380.472 506.331C373.157 506.354 365.842 506.357 358.526 506.344C355.842 506.343 353.157 506.349 350.473 506.363C346.808 506.381 343.143 506.373 339.478 506.358C337.885 506.375 337.885 506.375 336.261 506.392C329.628 506.331 325.073 505.183 319.457 501.637C316.702 497.87 316.702 497.87 313.849 493.226C310.877 489.409 307.755 485.718 304.649 482.01C298.499 474.61 292.416 467.176 286.51 459.579C280.792 452.231 274.925 445.02 268.986 437.85C262.406 429.906 255.95 421.888 249.616 413.749C244.501 407.202 239.236 400.788 233.936 394.39C227.357 386.447 220.901 378.428 214.566 370.289C209.451 363.742 204.186 357.328 198.887 350.93C192.752 343.52 186.689 336.067 180.749 328.499C180.115 327.702 179.48 326.905 178.827 326.084C176.069 322.597 173.471 319.106 171.061 315.367C168.83 311.98 166.905 309.415 163.838 306.77C160.72 306.095 160.72 306.095 157.241 306.356C155.869 306.403 154.496 306.449 153.082 306.497C151.542 306.587 150.002 306.677 148.416 306.77C145.883 306.914 145.883 306.914 143.299 307.062C138.47 307.369 133.647 307.707 128.822 308.068C125.602 308.309 122.381 308.542 119.16 308.774C112.321 309.268 105.484 309.771 98.646 310.274C90.7114 310.859 82.7764 311.44 74.8408 312.012C71.6949 312.24 68.5495 312.475 65.4041 312.711C34.0847 315.01 34.0847 315.01 28.3721 310.888C24.2996 305.851 23.421 303.428 23.6404 296.956C26.6942 288.522 31.872 282.095 37.3949 275.084C42.2545 268.906 46.8316 262.57 51.3294 256.125C58.3374 246.095 65.5364 236.221 72.856 226.416C77.5467 220.104 81.9413 213.715 86.07 207.019C88.3949 204.098 90.3693 203.132 93.7391 201.625C94.6644 200.7 95.5897 199.775 96.5431 198.821C99.9051 197.71 103.236 196.721 106.647 195.787C120.569 191.831 134.313 187.389 148.051 182.837C150.812 181.926 153.574 181.021 156.339 180.123C170.925 175.385 184.939 170.56 198.519 163.374C203.373 160.822 208.309 158.504 213.307 156.249C214.177 155.855 215.048 155.461 215.945 155.054C217.755 154.237 219.566 153.421 221.377 152.606C226.416 150.339 231.449 148.057 236.483 145.778C237.534 145.303 238.585 144.827 239.668 144.337C251.566 138.949 263.43 133.486 275.295 128.024C291.632 120.505 307.985 113.023 324.364 105.593C340.682 98.1902 356.978 90.7381 373.258 83.2501C395.256 73.1318 417.272 63.0511 439.297 52.9914C447.497 49.2463 455.695 45.4977 463.891 41.7459C468.998 39.4087 474.106 37.0751 479.218 34.7495C488.594 30.4811 497.956 26.1884 507.271 21.7885C511.521 19.7839 515.779 17.7974 520.039 15.8129C522.053 14.8683 524.064 13.915 526.07 12.9525C528.843 11.6227 531.629 10.3236 534.419 9.03015C535.993 8.28458 537.568 7.53901 539.19 6.77085C544.652 5.08408 548.073 5.36677 553.587 6.7575ZM515.7 53.2401C514.69 53.708 513.68 54.1759 512.64 54.658C510.443 55.6758 508.248 56.6959 506.053 57.7178C500.149 60.4657 494.237 63.1956 488.324 65.9231C487.106 66.485 485.888 67.0469 484.633 67.6258C472.358 73.2758 460.011 78.7564 447.65 84.2139C431.298 91.4383 415.04 98.822 398.851 106.404C385.865 112.464 372.784 118.292 359.676 124.081C340.381 132.604 321.197 141.346 302.062 150.221C285.117 158.079 268.127 165.821 251.048 173.382C241.947 177.425 232.983 181.657 224.123 186.204C229.924 192.409 236.353 197.27 243.225 202.239C245.627 203.993 248.029 205.747 250.432 207.501C251.654 208.391 252.877 209.28 254.136 210.196C259.74 214.275 265.33 218.373 270.914 222.479C272.004 223.28 273.094 224.082 274.217 224.907C283.843 232.007 293.348 239.26 302.847 246.529C312.135 253.624 321.511 260.592 330.936 267.505C338.812 273.283 346.637 279.124 354.441 284.999C361.523 290.321 368.655 295.572 375.799 300.811C386.856 308.924 397.785 317.197 408.65 325.566C421.252 337.04 421.252 337.04 435.821 343.22C451.047 295.543 466.199 247.844 481.086 200.06C487.687 178.871 494.322 157.695 501.045 136.545C501.366 135.538 501.686 134.531 502.015 133.493C505.11 123.759 508.208 114.027 511.315 104.297C517.2 85.8607 523.037 67.4252 528.351 48.8153C523.732 48.8153 519.82 51.3085 515.7 53.2401ZM611.937 158.764C611.036 158.828 610.135 158.892 609.206 158.958C599.794 159.628 590.382 160.316 580.971 161.006C576.511 161.333 572.051 161.653 567.591 161.969C562.194 162.35 556.799 162.742 551.404 163.141C549.354 163.291 547.304 163.438 545.254 163.58C542.375 163.782 539.497 163.996 536.619 164.213C534.985 164.332 533.351 164.45 531.667 164.572C526.43 165.242 522.025 165.937 517.135 167.979C514.669 171.858 514.669 171.858 513.457 176.802C513.181 177.711 512.906 178.621 512.622 179.558C511.716 182.585 510.869 185.625 510.021 188.668C509.392 190.809 508.76 192.949 508.124 195.088C506.434 200.806 504.795 206.538 503.165 212.273C501.482 218.164 499.755 224.043 498.03 229.922C495.65 238.05 493.284 246.182 490.936 254.319C487.553 266.042 484.082 277.733 480.487 289.393C480.075 290.732 479.664 292.071 479.24 293.45C477.764 298.251 476.287 303.052 474.79 307.847C473.823 310.954 472.873 314.066 471.927 317.18C471.411 318.849 470.895 320.517 470.364 322.236C469.502 326.239 469.425 328.237 470.87 332.004C484.611 317.445 484.611 317.445 497.924 302.498C501.004 298.966 504.163 295.511 507.321 292.049C511.31 287.677 515.273 283.291 519.151 278.819C523.959 273.283 528.924 267.896 533.89 262.503C538.284 257.722 542.591 252.877 546.845 247.971C551.172 243.046 555.614 238.225 560.032 233.382C562.797 230.33 565.522 227.255 568.22 224.144C572.371 219.364 576.637 214.694 580.925 210.037C586.034 204.487 591.074 198.889 596.018 193.192C598.844 189.959 601.71 186.766 604.583 183.575C605.635 182.406 606.687 181.237 607.771 180.032C610.044 177.521 612.331 175.02 614.627 172.53C615.766 171.288 616.904 170.047 618.077 168.768C619.118 167.642 620.159 166.516 621.232 165.356C623.951 162.411 623.951 162.411 625.087 158.165C620.671 158.165 616.343 158.451 611.937 158.764ZM179.113 203.139C177.963 203.504 176.812 203.869 175.627 204.245C174.391 204.651 173.156 205.057 171.883 205.475C169.978 206.085 169.978 206.085 168.035 206.707C163.974 208.01 159.919 209.33 155.864 210.65C153.114 211.536 150.364 212.42 147.614 213.303C140.867 215.473 134.126 217.657 127.386 219.85C129.895 225.173 133.263 229.29 137.113 233.694C142.591 240.06 147.91 246.512 153.06 253.146C161.32 263.766 169.887 274.125 178.466 284.488C190.377 298.89 202.118 313.433 213.898 327.942C224.949 341.555 224.949 341.555 236.039 355.136C248.04 369.788 259.997 384.476 271.79 399.297C273.574 393.944 272.517 392.741 270.18 387.709C269.125 385.402 269.125 385.402 268.048 383.049C267.661 382.218 267.273 381.387 266.874 380.531C264.741 375.953 262.656 371.353 260.563 366.757C260.112 365.769 259.661 364.782 259.196 363.765C253.785 351.898 248.594 339.936 243.4 327.974C242.391 325.654 241.382 323.335 240.373 321.015C238.324 316.302 236.275 311.589 234.227 306.876C231.142 299.779 228.049 292.685 224.955 285.593C224.449 284.432 223.942 283.271 223.421 282.074C220.912 276.322 218.401 270.571 215.887 264.821C211.168 254.022 206.489 243.208 201.899 232.353C200.648 229.408 199.396 226.465 198.143 223.521C196.987 220.792 195.849 218.057 194.71 215.321C194.025 213.711 193.339 212.101 192.633 210.442C192.043 209.035 191.453 207.629 190.846 206.179C187.797 200.757 184.376 201.439 179.113 203.139ZM231.133 231.066C236.068 244.365 241.547 257.363 247.254 270.345C248.794 273.848 250.329 277.353 251.862 280.858C253.508 284.619 255.153 288.379 256.8 292.139C263.344 307.079 269.845 322.039 276.346 336.999C277.555 339.779 278.763 342.559 279.972 345.339C286.367 360.049 292.754 374.764 299.128 389.483C300.89 393.549 302.652 397.615 304.414 401.681C306.848 407.296 309.28 412.911 311.71 418.527C314.928 425.96 318.149 433.391 321.372 440.822C322.661 443.796 323.949 446.77 325.236 449.745C327.038 453.91 328.844 458.073 330.651 462.235C331.199 463.505 331.747 464.775 332.312 466.083C332.815 467.24 333.318 468.397 333.837 469.589C334.277 470.605 334.717 471.62 335.17 472.667C336.118 474.994 336.118 474.994 337.683 476.403C340.557 476.538 343.436 476.573 346.314 476.571C347.681 476.573 347.681 476.573 349.076 476.575C352.152 476.577 355.228 476.569 358.305 476.562C360.501 476.561 362.697 476.562 364.894 476.562C370.875 476.563 376.856 476.555 382.837 476.545C389.081 476.536 395.325 476.535 401.569 476.533C413.401 476.529 425.233 476.518 437.065 476.504C450.532 476.488 463.999 476.48 477.466 476.473C505.176 476.458 532.886 476.434 560.596 476.403C556.286 472.047 552.034 468.002 547.152 464.295C545.947 463.377 544.743 462.46 543.502 461.515C542.232 460.558 540.962 459.602 539.654 458.616C538.332 457.614 537.01 456.612 535.648 455.579C527.873 449.707 520.033 443.958 512.06 438.357C504.612 433.089 497.386 427.541 490.147 421.99C481.013 414.986 471.823 408.092 462.458 401.4C451.926 393.872 441.629 386.065 431.357 378.186C423.587 372.241 415.74 366.432 407.781 360.744C397.291 353.242 387.023 345.477 376.785 337.635C365.416 328.936 353.91 320.435 342.363 311.975C326.475 300.335 310.645 288.621 294.905 276.783C285.831 269.965 276.699 263.231 267.543 256.524C258.681 250.013 249.95 243.338 241.301 236.547C240.373 235.826 239.444 235.105 238.487 234.362C237.673 233.724 236.859 233.085 236.02 232.427C233.96 230.81 233.96 230.81 231.133 231.066ZM102.151 232.468C100.195 234.471 100.195 234.471 98.2243 237.15C97.0482 238.676 97.0482 238.676 95.8482 240.234C95.0076 241.343 94.1671 242.452 93.301 243.595C92.0076 245.281 92.0076 245.281 90.688 247.001C87.9585 250.562 85.2409 254.132 82.5233 257.702C80.7408 260.03 78.9573 262.358 77.1728 264.684C72.8723 270.295 68.5822 275.913 64.2977 281.535C68.5379 282.948 70.8524 283.008 75.2427 282.754C77.2917 282.642 77.2917 282.642 79.3821 282.526C81.5903 282.391 81.5903 282.391 83.8431 282.252C85.3553 282.164 86.8676 282.075 88.4256 281.984C91.6231 281.793 94.8203 281.598 98.0173 281.4C102.924 281.098 107.832 280.819 112.74 280.541C115.842 280.353 118.945 280.165 122.047 279.974C123.522 279.892 124.997 279.81 126.517 279.726C127.878 279.637 129.24 279.549 130.643 279.458C131.844 279.385 133.046 279.312 134.283 279.237C137.503 278.967 137.503 278.967 140.004 275.927C139.49 275.308 138.977 274.689 138.447 274.051C136.014 271.115 133.584 268.177 131.154 265.238C130.27 264.169 129.386 263.1 128.475 261.999C122.05 254.202 115.771 246.307 109.69 238.239C108.175 236.265 106.573 234.358 104.955 232.468C104.03 232.468 103.104 232.468 102.151 232.468Z" fill="url(#paint1_linear_2369_349)"/>
<path d="M546.453 0.00283788C548.968 0.0408885 551.371 0.461025 553.876 1.05565L554.956 1.31988L556.26 1.64846L557.272 2.53151C559.849 4.77977 561.682 6.35358 562.921 7.83938C564.431 9.65151 565.087 11.348 565.781 13.0336L566.148 13.9235L566.195 14.886C566.636 23.5901 565.573 30.9086 563.031 39.1198L563.033 39.1212C562.721 40.1711 562.409 41.2212 562.087 42.3029L562.085 42.3084C561.054 45.7633 560.001 49.208 558.954 52.6339C558.236 55.021 557.52 57.409 556.805 59.7969L556.803 59.7996C554.914 66.0939 553.004 72.3797 551.094 78.6585L551.096 78.6599C550.317 81.2254 549.542 83.7924 548.768 86.3609L540.909 112.459C540.555 113.633 540.204 114.798 539.839 116.007V116.009C538.84 119.313 537.838 122.614 536.835 125.913C536.688 126.401 536.54 126.889 536.391 127.381C536.242 127.875 536.092 128.373 535.939 128.879L535.935 128.894C535.734 129.553 535.546 130.154 535.377 130.708C558.716 128.527 582.065 126.526 605.423 124.656L614.85 123.891C637.813 122.013 649.674 121.038 656.482 121C659.936 120.98 662.544 121.19 664.846 121.824C666.617 122.312 668.025 123.009 669.23 123.682L670.373 124.339L670.981 124.691L671.483 125.182C676.878 130.464 677.257 136.373 677.506 141.434L677.514 141.61L677.511 141.785C677.45 146.306 676.533 149.979 674.673 153.358C672.933 156.52 670.495 159.157 668.006 161.724C667.259 162.542 666.514 163.362 665.745 164.205L665.737 164.213C663.386 166.78 661.002 169.299 658.642 171.787C656.626 173.965 654.619 176.154 652.604 178.353L652.603 178.355C651.318 179.756 650.028 181.152 648.735 182.545C644.778 186.827 641.031 191.249 637.348 195.844L637.342 195.852C630.723 204.078 623.578 211.697 616.554 219.189C610.515 225.634 604.741 232.324 598.935 239.146L598.932 239.149C590.72 248.787 582.366 258.268 573.756 267.589L573.757 267.59C567.999 273.845 562.43 280.283 556.865 286.823L556.864 286.825C549.34 295.657 541.703 304.389 533.763 312.935C529.81 317.218 526.064 321.635 522.387 326.223L522.38 326.231C515.769 334.446 508.634 342.056 501.621 349.54C494.787 356.833 488.372 364.369 482.193 372.217C484.201 373.445 486.074 374.745 487.955 376.135L491.076 378.436L491.086 378.445L491.095 378.452C492.201 379.274 493.307 380.097 494.446 380.945C495.614 381.809 496.783 382.674 497.986 383.565L497.993 383.57C508.041 391.03 517.974 398.624 527.87 406.204C535.573 412.087 543.355 417.837 551.239 423.475C561.789 431.019 572.103 438.811 582.337 446.663C590.746 453.104 599.242 459.425 607.815 465.663L611.494 468.331L611.501 468.338L611.509 468.343C618.055 473.112 622.008 475.963 624.298 478.328C625.627 479.701 626.594 481.086 627.295 482.739C627.913 484.197 628.253 485.735 628.538 486.962L628.685 487.592V488.24C628.678 492.669 628.725 496.061 627.995 498.745C627.121 501.957 625.205 504.046 623.481 506.066L622.758 506.913L621.768 507.419C613.128 511.835 604.625 511.656 596.846 511.647C595.703 511.651 594.559 511.656 593.382 511.66H593.379C589.54 511.673 585.703 511.673 581.873 511.676C579.125 511.682 576.376 511.69 573.627 511.697C566.155 511.716 558.682 511.725 551.213 511.732C546.55 511.736 541.886 511.74 537.222 511.747C522.627 511.766 508.03 511.78 493.434 511.785C476.589 511.791 459.743 511.817 442.897 511.858C429.868 511.888 416.838 511.901 403.81 511.903C399.922 511.904 396.035 511.907 392.148 511.912L380.489 511.938C373.165 511.961 365.842 511.964 358.52 511.952C355.847 511.951 353.174 511.957 350.501 511.971C346.832 511.989 343.168 511.98 339.519 511.966C337.944 511.983 337.939 511.983 336.32 512H336.207C328.666 511.93 323.065 510.548 316.462 506.379L315.558 505.809L314.929 504.947C312.129 501.118 311.994 500.918 309.243 496.441C306.401 492.804 303.419 489.276 300.349 485.611L300.342 485.603L300.334 485.595C294.169 478.177 288.043 470.688 282.084 463.022C276.413 455.736 270.586 448.573 264.666 441.426C258.056 433.446 251.566 425.386 245.196 417.202L243.29 414.776C238.825 409.129 234.247 403.557 229.616 397.966C223.006 389.986 216.516 381.926 210.146 373.742L208.24 371.316C205.052 367.283 201.805 363.288 198.522 359.297L194.567 354.507C188.413 347.073 182.316 339.579 176.337 331.962C175.711 331.175 175.084 330.387 174.438 329.576L174.427 329.562C171.617 326.008 168.91 322.377 166.377 318.451C164.573 315.714 163.144 313.798 161.2 311.948C160.699 311.848 160.51 311.82 160.323 311.808C159.975 311.786 159.559 311.805 157.661 311.948L157.546 311.956L157.43 311.96C156.074 312.006 154.717 312.051 153.321 312.098C151.811 312.187 150.299 312.277 148.743 312.368H148.735C146.213 312.512 146.201 312.511 143.652 312.657C138.848 312.962 134.046 313.299 129.24 313.659C126.012 313.9 122.785 314.135 119.563 314.367C112.729 314.86 105.895 315.364 99.0575 315.867C91.1219 316.452 83.1837 317.031 75.2445 317.603L75.2459 317.605C72.1072 317.833 68.9679 318.068 65.8223 318.303H65.8141C50.3925 319.435 42.0811 320.057 37.0093 319.808C34.3072 319.675 32.0883 319.288 29.9884 318.404C28.0019 317.569 26.4108 316.388 25.0897 315.435L24.4819 314.997L24.0109 314.413C21.8727 311.769 20.1215 309.282 19.0916 306.28C18.0554 303.259 17.9178 300.216 18.0347 296.766L18.0648 295.88L18.366 295.047C21.7816 285.613 27.5783 278.481 32.9882 271.614C37.7555 265.553 42.2652 259.314 46.73 252.916L46.7313 252.913C53.7818 242.823 61.0166 232.899 68.3606 223.061C72.9674 216.862 77.2667 210.61 81.296 204.076L81.4713 203.79L81.6807 203.527C84.5845 199.878 87.3349 198.379 90.4924 196.938C90.4948 196.935 90.4905 196.941 90.4992 196.932L90.5211 196.91C90.5227 196.909 90.525 196.908 90.5266 196.906L90.658 196.775C90.6596 196.773 90.6605 196.771 90.6621 196.769L90.7059 196.726C90.7152 196.716 90.708 196.725 90.7169 196.716L90.8812 196.552C90.8828 196.55 90.8837 196.548 90.8853 196.546L90.951 196.481C90.9526 196.479 90.9549 196.478 90.9565 196.476L91.3179 196.115C91.3223 196.111 91.323 196.109 91.3275 196.104L91.4371 195.995C91.4565 195.975 91.4299 196.003 91.4494 195.984L91.767 195.666C91.7817 195.651 91.7633 195.668 91.778 195.654L91.8327 195.599C91.8346 195.597 91.8377 195.595 91.8396 195.593L91.9655 195.467C91.9753 195.458 91.9667 195.465 91.9765 195.455L92.0093 195.422C92.0175 195.414 92.0135 195.419 92.0217 195.411L92.1093 195.324C92.1111 195.322 92.1129 195.319 92.1148 195.317L92.1422 195.289C92.144 195.288 92.1471 195.286 92.149 195.284L92.2202 195.213C92.2449 195.188 92.2065 195.225 92.2311 195.2L92.253 195.179C92.2549 195.177 92.258 195.175 92.2599 195.173L92.3256 195.107C92.3275 195.105 92.3292 195.102 92.3311 195.1L92.3475 195.084C92.3494 195.082 92.3525 195.08 92.3544 195.079L92.4091 195.024C92.4339 194.999 92.3953 195.036 92.4201 195.012L92.431 195.001C92.4329 194.999 92.436 194.997 92.4379 194.995L92.4872 194.946C92.4785 194.954 92.4916 194.94 92.4981 194.933C92.5128 194.919 92.4944 194.937 92.5091 194.923C92.5109 194.921 92.5141 194.919 92.5159 194.917L92.5652 194.868C92.5751 194.858 92.5662 194.865 92.5762 194.855L93.5181 193.915L94.7832 193.497C98.2405 192.355 101.654 191.34 105.131 190.388C118.927 186.467 132.573 182.058 146.287 177.515L146.291 177.512C149.06 176.598 151.832 175.69 154.605 174.789C169.172 170.057 182.781 165.357 195.895 158.418L195.907 158.411C200.905 155.784 205.956 153.413 210.999 151.137C211.868 150.744 212.737 150.351 213.632 149.946L213.636 149.943C215.448 149.125 217.261 148.308 219.074 147.493L234.169 140.669C235.22 140.194 236.272 139.717 237.355 139.227C249.234 133.848 261.082 128.394 272.949 122.93L285.211 117.295C297.476 111.667 309.753 106.063 322.045 100.487L334.273 94.9285C346.496 89.3617 358.709 83.7682 370.913 78.1547C392.917 68.0339 414.938 57.9512 436.966 47.8901C445.164 44.1456 453.362 40.3985 461.557 36.6473C466.666 34.3092 471.778 31.9725 476.895 29.6445C486.263 25.3796 495.597 21.1004 504.876 16.7178L504.878 16.7164C509.137 14.7077 513.401 12.7176 517.656 10.735C519.656 9.79718 521.653 8.85196 523.643 7.89688C526.451 6.55078 529.264 5.23893 532.059 3.94302C533.62 3.20394 535.182 2.46469 536.79 1.70322L537.151 1.53072L537.534 1.41298C540.697 0.436298 543.513 -0.0416054 546.453 0.00283788ZM553.586 6.75782C548.073 5.36713 544.651 5.08357 539.19 6.77014L534.418 9.03047C531.628 10.3239 528.843 11.6231 526.069 12.9529L523.056 14.389C522.051 14.8657 521.044 15.3406 520.037 15.8128L513.65 18.7933C511.522 19.7885 509.395 20.7866 507.27 21.7888C497.955 26.1887 488.593 30.4814 479.217 34.7498L463.89 41.7457C455.693 45.4975 447.496 49.2461 439.296 52.9912C417.271 63.0509 395.256 73.1321 373.257 83.2504L361.043 88.8595C348.827 94.4613 336.602 100.041 324.363 105.594L312.084 111.175C299.809 116.766 287.547 122.385 275.294 128.024C263.43 133.487 251.565 138.949 239.667 144.337L236.482 145.778C231.449 148.058 226.415 150.338 221.376 152.606L215.944 155.054C215.047 155.46 214.177 155.855 213.306 156.249L209.57 157.955C205.846 159.678 202.158 161.46 198.517 163.374C184.938 170.559 170.924 175.385 156.339 180.123L152.193 181.474C150.811 181.927 149.43 182.382 148.05 182.838C134.312 187.389 120.568 191.831 106.647 195.788L104.101 196.498C101.568 197.223 99.0641 197.988 96.5425 198.822L93.7385 201.625C90.3687 203.133 88.3937 204.098 86.0688 207.02L84.508 209.515C80.8368 215.31 76.9598 220.893 72.8554 226.415L70.1158 230.095C63.7385 238.691 57.4609 247.349 51.3288 256.125C46.831 262.571 42.2535 268.906 37.394 275.084L35.343 277.691C30.6103 283.733 26.312 289.577 23.6398 296.956L23.6111 298.124C23.5418 303.742 24.5537 306.166 28.3715 310.888C33.3696 314.495 33.9952 314.946 55.0542 313.462L65.4033 312.71C68.5485 312.475 71.6936 312.241 74.8393 312.012L98.6454 310.275C105.483 309.771 112.321 309.268 119.159 308.774L128.822 308.068C133.646 307.707 138.47 307.369 143.298 307.062L148.416 306.77C150.001 306.677 151.541 306.586 153.08 306.496L157.241 306.356C160.719 306.095 160.719 306.095 163.837 306.77C166.904 309.415 168.829 311.981 171.061 315.368C173.47 319.106 176.069 322.596 178.826 326.083C179.48 326.905 180.114 327.703 180.749 328.5C186.688 336.067 192.752 343.521 198.887 350.931C204.186 357.328 209.451 363.743 214.566 370.289C220.9 378.428 227.357 386.447 233.936 394.39C239.235 400.788 244.5 407.203 249.615 413.749C255.95 421.888 262.406 429.907 268.985 437.85C274.924 445.02 280.792 452.232 286.51 459.58C292.415 467.176 298.498 474.611 304.648 482.011C307.754 485.719 310.876 489.41 313.848 493.226C316.701 497.869 316.702 497.87 319.456 501.638C325.072 505.183 329.627 506.33 336.259 506.392L339.477 506.358C341.309 506.365 343.142 506.371 344.974 506.373L350.472 506.364C353.157 506.35 355.841 506.343 358.525 506.344C362.183 506.351 365.84 506.353 369.497 506.351L380.471 506.331C388.25 506.306 396.03 506.297 403.809 506.295C410.321 506.294 416.834 506.29 423.346 506.283L442.883 506.25C451.308 506.23 459.733 506.213 468.157 506.201L493.433 506.177C508.026 506.172 522.62 506.158 537.214 506.139L551.209 506.124C558.676 506.118 566.143 506.108 573.611 506.09C576.361 506.082 579.111 506.076 581.861 506.069L593.362 506.053C594.541 506.048 595.686 506.045 596.831 506.04C604.587 506.049 611.517 506.126 618.535 502.762L619.216 502.426C622.581 498.484 623.002 497.991 623.064 491.438L623.077 488.232C621.812 482.787 621.81 482.786 608.207 472.875C599.582 466.638 591.027 460.318 582.554 453.88L578.927 451.115C569.987 444.256 561.017 437.465 551.896 430.857L547.978 428.036C540.046 422.364 532.216 416.579 524.466 410.66C514.567 403.078 504.662 395.505 494.65 388.072L491.111 385.453C489.967 384.602 488.857 383.776 487.748 382.95L484.621 380.645C481.843 378.591 479.208 376.827 476.143 375.227C475.304 374.831 474.488 374.447 473.673 374.062C480.728 364.8 488.058 355.946 495.943 347.409L497.529 345.706C504.126 338.667 510.681 331.672 516.794 324.215L518.011 322.717C521.756 318.044 525.591 313.52 529.654 309.118C536.536 301.71 543.201 294.149 549.78 286.482L552.595 283.189C558.175 276.631 563.799 270.128 569.632 263.792C577.116 255.691 584.41 247.46 591.593 239.102L594.665 235.513C599.753 229.533 604.865 223.597 610.174 217.82L612.463 215.354C619.07 208.307 625.633 201.304 631.754 193.837L632.973 192.338C636.718 187.664 640.552 183.138 644.618 178.739L648.47 174.564C650.485 172.366 652.502 170.168 654.528 167.979C656.309 166.102 658.086 164.223 659.847 162.328L661.601 160.426C662.384 159.568 663.144 158.736 663.904 157.903C668.799 152.859 671.623 149.4 671.887 142.398L671.905 141.71C671.667 136.872 671.303 133.075 667.899 129.532L667.559 129.189C661.54 125.699 661.539 125.698 615.308 129.48L596.391 131.012C574.269 132.817 552.158 134.746 530.06 136.84C529.002 136.941 527.975 137.039 526.948 137.137C528.121 134.792 528.414 134.205 529.355 131.21L530.571 127.258C530.877 126.246 531.173 125.264 531.469 124.283L534.47 114.387L535.541 110.84C537.39 104.714 539.236 98.5868 541.078 92.4587C542.623 87.3149 544.17 82.1716 545.73 77.0321C546.685 73.8925 547.638 70.7522 548.589 67.6115L551.432 58.1869C552.151 55.7892 552.871 53.392 553.591 50.9951C554.115 49.2811 554.638 47.5664 555.159 45.8516L556.712 40.7039C557.033 39.6222 557.346 38.572 557.658 37.5221C559.889 30.3306 560.874 24.0136 560.655 16.6548L560.596 15.1694C559.304 12.0333 559.142 11.641 555.415 8.35826L553.586 6.75782ZM231.132 231.066C233.959 230.81 233.959 230.81 236.018 232.427C236.857 233.085 237.673 233.724 238.487 234.363L241.3 236.546C249.949 243.338 258.68 250.012 267.542 256.524C276.698 263.231 285.83 269.964 294.904 276.782C310.645 288.621 326.474 300.334 342.362 311.975C353.909 320.434 365.415 328.936 376.784 337.634C387.021 345.476 397.29 353.243 407.781 360.744C415.739 366.433 423.587 372.242 431.357 378.186C441.628 386.065 451.926 393.872 462.458 401.4C471.822 408.092 481.013 414.987 490.147 421.991C497.385 427.541 504.611 433.089 512.059 438.356C520.032 443.958 527.873 449.707 535.648 455.579L539.654 458.616L543.501 461.516L547.151 464.295C552.033 468.002 556.285 472.047 560.596 476.403C532.886 476.434 505.175 476.458 477.465 476.473C463.998 476.48 450.531 476.487 437.065 476.503L401.568 476.533C395.324 476.535 389.08 476.537 382.837 476.545L364.893 476.562C362.697 476.561 360.5 476.561 358.304 476.562C355.227 476.569 352.151 476.576 349.074 476.574C347.68 476.572 347.68 476.573 346.313 476.571C343.435 476.574 340.556 476.539 337.682 476.403C336.313 475.171 336.141 475.016 335.485 473.437L335.17 472.667L333.836 469.589C333.318 468.397 332.814 467.24 332.311 466.083L330.65 462.236L325.235 449.744C323.949 446.769 322.66 443.795 321.37 440.821L299.128 389.483C292.753 374.764 286.366 360.049 279.971 345.338L276.346 336.999C269.844 322.039 263.343 307.079 256.799 292.139L247.253 270.344C241.547 257.363 236.068 244.365 231.132 231.066ZM242.378 244.503C245.577 252.394 248.933 260.233 252.386 268.088C253.928 271.596 255.464 275.104 256.999 278.611C258.644 282.371 260.289 286.131 261.936 289.889C268.484 304.838 274.988 319.805 281.488 334.763L285.113 343.102C291.509 357.814 297.897 372.531 304.273 387.253L309.559 399.45C311.993 405.066 314.425 410.683 316.856 416.299L326.515 438.591C327.805 441.566 329.094 444.542 330.382 447.518L335.794 460.003L335.798 460.012C336.344 461.278 336.897 462.557 337.46 463.861L338.979 467.352L338.981 467.36L340.315 470.438L340.339 470.494L340.363 470.551C340.414 470.677 340.463 470.789 340.505 470.892C342.419 470.945 344.351 470.965 346.309 470.964H346.32C347.003 470.964 347.345 470.964 347.69 470.965C348.035 470.965 348.384 470.964 349.08 470.965C352.145 470.967 355.212 470.962 358.29 470.954H364.893C370.869 470.954 376.846 470.947 382.827 470.938C389.075 470.929 395.324 470.927 401.566 470.925L477.462 470.865C500.423 470.853 523.385 470.833 546.347 470.809C545.501 470.113 544.641 469.43 543.76 468.761L543.753 468.757L540.103 465.977C538.841 465.026 537.578 464.074 536.278 463.094L536.265 463.085L532.259 460.048C524.529 454.21 516.743 448.502 508.835 442.946L508.821 442.935C503.157 438.929 497.627 434.768 492.169 430.602L486.733 426.44C478.767 420.331 470.776 414.321 462.675 408.463L459.196 405.962C448.584 398.377 438.226 390.523 427.944 382.635C420.223 376.729 412.425 370.957 404.519 365.306L404.518 365.304C393.951 357.748 383.624 349.939 373.373 342.086C362.052 333.425 350.585 324.95 339.048 316.499C323.148 304.848 307.298 293.121 291.535 281.266C282.487 274.468 273.375 267.748 264.228 261.047L264.222 261.043C256.854 255.629 249.582 250.106 242.378 244.503ZM179.112 203.138C184.375 201.438 187.796 200.757 190.844 206.179C191.452 207.628 192.043 209.036 192.632 210.442C193.338 212.101 194.024 213.71 194.709 215.32C195.848 218.056 196.986 220.792 198.142 223.521C199.394 226.464 200.647 229.409 201.899 232.353C206.489 243.208 211.167 254.022 215.885 264.822C218.4 270.571 220.911 276.323 223.42 282.075C223.941 283.271 224.448 284.432 224.955 285.593C228.049 292.686 231.141 299.779 234.226 306.875C236.274 311.589 238.322 316.302 240.372 321.015C241.381 323.335 242.391 325.654 243.399 327.974C248.594 339.936 253.783 351.899 259.195 363.766C259.659 364.783 260.111 365.77 260.562 366.757C262.655 371.353 264.74 375.953 266.873 380.531L268.047 383.049C269.124 385.402 269.124 385.403 270.179 387.709L270.992 389.431C272.736 393.106 273.351 394.613 271.789 399.297C262.945 388.181 254.007 377.14 245.028 366.133L236.039 355.136C230.494 348.346 227.721 344.95 224.953 341.551L213.898 327.943C202.117 313.434 190.376 298.891 178.465 284.488C170.958 275.421 163.461 266.356 156.17 257.117L153.06 253.146C147.91 246.512 142.59 240.061 137.112 233.695C133.263 229.29 129.894 225.174 127.386 219.851C134.125 217.658 140.867 215.473 147.613 213.304L155.864 210.65C159.918 209.33 163.973 208.009 168.034 206.706L171.882 205.475C173.155 205.057 174.39 204.65 175.625 204.245L179.112 203.138ZM184.924 207.526C184.823 207.515 184.505 207.501 183.821 207.636C183.063 207.785 182.132 208.056 180.836 208.475L180.822 208.479L180.809 208.485C179.661 208.849 178.504 209.216 177.322 209.591C176.102 209.992 174.889 210.389 173.632 210.802L173.591 210.816C171.685 211.426 171.688 211.423 169.745 212.045L169.746 212.047C165.699 213.345 161.656 214.661 157.6 215.982L157.582 215.987C154.831 216.873 152.079 217.759 149.327 218.643L149.326 218.642C144.79 220.1 140.256 221.568 135.722 223.039C136.97 224.821 138.376 226.562 139.949 228.403L141.334 230.004L141.362 230.036C146.89 236.46 152.27 242.984 157.486 249.703L160.575 253.646C165.746 260.199 171.029 266.672 176.363 273.143L182.784 280.912L182.787 280.914C194.719 295.342 206.485 309.915 218.251 324.408L229.301 338.011C232.066 341.407 234.837 344.798 240.376 351.582C245.754 358.148 251.125 364.726 256.478 371.32C256.139 370.575 255.8 369.83 255.461 369.087L254.095 366.096L254.092 366.092C248.656 354.171 243.446 342.161 238.255 330.208C237.247 327.889 236.239 325.571 235.23 323.252C233.18 318.539 231.131 313.825 229.082 309.111C225.999 302.018 222.907 294.927 219.813 287.836C219.307 286.675 218.8 285.512 218.279 284.316C215.77 278.565 213.26 272.816 210.747 267.068C206.024 256.257 201.335 245.419 196.733 234.536C195.484 231.597 194.233 228.657 192.982 225.717L192.977 225.707C191.82 222.974 190.681 220.238 189.549 217.518L187.472 212.638L187.467 212.625L187.46 212.611C186.916 211.313 186.371 210.015 185.813 208.683C185.358 207.921 185.048 207.625 184.941 207.538C184.935 207.534 184.929 207.53 184.924 207.526ZM528.35 48.8156C523.036 67.4254 517.2 85.861 511.315 104.297L502.014 133.492C501.684 134.53 501.365 135.538 501.045 136.545L496.017 152.412C491.005 168.283 486.035 184.168 481.084 200.059C466.198 247.844 451.047 295.543 435.82 343.22C423.073 337.813 421.479 337.137 412.837 329.365L408.649 325.566C399.141 318.243 389.586 310.994 379.938 303.861L375.798 300.812C370.441 296.882 365.089 292.945 359.76 288.977L354.44 284.999C348.587 280.593 342.723 276.205 336.833 271.849L330.935 267.505C322.688 261.456 314.479 255.364 306.333 249.183L302.846 246.528C293.347 239.26 283.841 232.006 274.215 224.906L270.913 222.479C265.329 218.373 259.74 214.274 254.136 210.196L250.431 207.502C248.029 205.747 245.626 203.993 243.224 202.239C236.352 197.271 229.923 192.409 224.122 186.204C232.983 181.657 241.946 177.425 251.047 173.382C265.991 166.765 280.867 160.011 295.704 153.162L302.06 150.221C318.804 142.456 335.585 134.792 352.445 127.288L359.675 124.081C371.145 119.016 382.593 113.92 393.976 108.666L398.85 106.404C415.04 98.8221 431.298 91.4386 447.649 84.2142C460.01 78.7568 472.357 73.2752 484.632 67.6252C485.887 67.0463 487.105 66.4853 488.323 65.9235C494.236 63.1959 500.148 60.4652 506.052 57.7173C508.246 56.6953 510.442 55.6752 512.638 54.6574L515.7 53.2404C519.819 51.3089 523.731 48.8156 528.35 48.8156ZM520.018 57.3777C519.443 57.664 518.812 57.9738 518.081 58.3169L518.068 58.3224L518.057 58.3279C517.054 58.793 516.031 59.267 514.996 59.7462C512.803 60.7624 510.61 61.7801 508.419 62.8006C502.506 65.5529 496.585 68.2859 490.671 71.0137C489.446 71.5789 488.243 72.1359 486.981 72.7181L486.977 72.7195C474.66 78.3891 462.278 83.8853 449.914 89.3441L449.912 89.3427C433.597 96.5513 417.377 103.919 401.228 111.482L401.221 111.486C388.181 117.572 375.056 123.418 361.941 129.21C342.686 137.716 323.534 146.444 304.421 155.309C287.456 163.176 270.436 170.929 253.323 178.506C246.698 181.449 240.158 184.49 233.685 187.675C237.628 191.168 241.885 194.351 246.508 197.694L246.53 197.71C248.93 199.462 251.329 201.214 253.728 202.966C254.95 203.855 256.174 204.745 257.434 205.661C263.048 209.747 268.647 213.852 274.234 217.961L277.537 220.389L277.544 220.394C287.213 227.525 296.753 234.805 306.25 242.072C315.5 249.138 324.844 256.083 334.251 262.983C342.151 268.779 349.998 274.634 357.813 280.518C364.866 285.819 371.975 291.053 379.114 296.29C388.828 303.417 398.439 310.663 407.985 317.981L412.072 321.123L412.254 321.264L412.425 321.419C418.864 327.282 421.629 329.776 424.552 331.676C426.574 332.99 428.708 334.038 432.352 335.631C446.945 289.918 461.461 244.193 475.73 198.392C482.333 177.198 488.972 156.01 495.7 134.846L496.67 131.795C499.765 122.059 502.865 112.324 505.972 102.591L510.366 88.7746C513.671 78.3175 516.915 67.8657 520.018 57.3777ZM625.087 158.166C623.95 162.411 623.95 162.412 621.231 165.356L618.077 168.768L614.627 172.53C612.33 175.021 610.044 177.521 607.77 180.033L604.583 183.576L600.282 188.367C598.853 189.969 597.43 191.576 596.018 193.192C591.074 198.889 586.033 204.487 580.924 210.037L577.714 213.534C574.511 217.036 571.333 220.559 568.219 224.144C565.522 227.255 562.796 230.33 560.032 233.382C555.614 238.226 551.171 243.046 546.844 247.971L543.643 251.639C540.432 255.295 537.185 258.917 533.888 262.502C528.923 267.896 523.958 273.284 519.15 278.819C515.273 283.291 511.31 287.677 507.321 292.05L502.592 297.247C501.022 298.985 499.463 300.732 497.923 302.498L490.011 311.367C483.751 318.355 481.175 321.086 470.87 332.005C469.424 328.238 469.501 326.239 470.363 322.236L471.926 317.18C472.872 314.067 473.822 310.954 474.789 307.847C475.538 305.45 476.281 303.05 477.022 300.65L479.239 293.45C479.663 292.071 480.075 290.732 480.486 289.394C483.183 280.648 485.808 271.885 488.38 263.105L490.935 254.32C493.283 246.182 495.649 238.049 498.029 229.921C499.322 225.512 500.617 221.103 501.894 216.689L503.164 212.273C504.794 206.538 506.434 200.806 508.123 195.088L510.021 188.669C510.868 185.625 511.714 182.584 512.621 179.557L513.456 176.802C514.668 171.858 514.669 171.858 517.135 167.979C522.024 165.937 526.429 165.241 531.666 164.572L536.619 164.213C539.496 163.996 542.375 163.782 545.254 163.58L551.404 163.141C554.101 162.941 556.799 162.744 559.496 162.548L580.97 161.007C590.381 160.317 599.792 159.628 609.205 158.958L611.936 158.764C616.342 158.45 620.67 158.166 625.087 158.166ZM612.335 164.358H612.332C611.433 164.422 610.529 164.484 609.602 164.55L609.603 164.551C600.197 165.22 590.792 165.909 581.38 166.599C576.916 166.926 572.45 167.246 567.985 167.562C562.596 167.943 557.207 168.335 551.817 168.734H551.813C549.757 168.884 547.699 169.03 545.642 169.173L545.644 169.174C542.781 169.375 539.915 169.589 537.04 169.806L537.022 169.807C535.445 169.921 533.867 170.033 532.244 170.151C527.816 170.719 524.411 171.27 520.894 172.533C520.358 173.399 520.161 173.764 520 174.15C519.747 174.757 519.551 175.49 518.902 178.138L518.867 178.283L518.823 178.428C518.549 179.332 518.274 180.234 517.992 181.165L517.993 181.166C517.105 184.132 516.273 187.121 515.423 190.173L515.412 190.21L515.401 190.249C514.771 192.396 514.136 194.542 513.498 196.687C511.818 202.373 510.186 208.078 508.559 213.806L508.556 213.813C506.866 219.727 505.133 225.626 503.411 231.5L503.409 231.499C501.031 239.62 498.669 247.745 496.324 255.873C492.934 267.622 489.451 279.344 485.845 291.039L485.846 291.041C485.441 292.358 485.018 293.739 484.6 295.097C483.125 299.896 481.642 304.706 480.143 309.512C479.46 311.704 478.788 313.901 478.116 316.103C482.469 311.414 485.611 307.891 493.735 298.769C496.852 295.196 500.042 291.705 503.178 288.27L506.152 285C509.114 281.731 512.04 278.459 514.913 275.146L514.915 275.142C519.785 269.535 524.806 264.087 529.759 258.707C534.112 253.972 538.384 249.169 542.607 244.298L542.619 244.283L542.632 244.269C547.003 239.293 551.497 234.416 555.889 229.602C558.621 226.585 561.316 223.546 563.982 220.471L563.984 220.467C568.193 215.622 572.505 210.901 576.798 206.238C581.879 200.718 586.882 195.162 591.782 189.516L591.788 189.509L591.795 189.501C594.65 186.235 597.539 183.015 600.412 179.824L603.6 176.281L603.612 176.269C605.898 173.744 608.196 171.23 610.503 168.728C611.638 167.49 612.774 166.252 613.943 164.977L613.95 164.969L613.958 164.96C614.194 164.706 614.428 164.451 614.664 164.197C613.894 164.248 613.119 164.302 612.335 164.358ZM104.954 232.468C106.572 234.358 108.173 236.265 109.689 238.238C115.77 246.307 122.049 254.202 128.474 261.999C129.385 263.1 130.27 264.169 131.154 265.238C133.583 268.177 136.012 271.115 138.446 274.051C138.975 274.688 139.49 275.308 140.004 275.928C137.502 278.967 137.501 278.966 134.282 279.237C133.044 279.311 131.843 279.384 130.642 279.457C129.239 279.548 127.877 279.637 126.515 279.725C124.996 279.81 123.521 279.893 122.046 279.974C118.944 280.165 115.841 280.354 112.739 280.541L105.377 280.962C102.923 281.104 100.469 281.249 98.0157 281.4C94.819 281.598 91.6221 281.793 88.425 281.983L83.8426 282.253C81.5897 282.391 81.5889 282.391 79.3806 282.526L75.2418 282.754C70.8516 283.007 68.537 282.948 64.2971 281.535C66.4394 278.724 68.5821 275.913 70.7278 273.105L82.5227 257.703C85.2403 254.132 87.9572 250.562 90.6868 247.001L93.3004 243.596C94.1665 242.453 95.0064 241.343 95.847 240.233L98.2238 237.15C100.194 234.471 100.194 234.471 102.15 232.468H104.954ZM102.74 240.473L102.704 240.522L102.665 240.573C101.489 242.099 101.489 242.099 100.29 243.656C99.4582 244.753 98.6259 245.851 97.7692 246.981L97.7596 246.995L97.7487 247.009C96.456 248.693 96.4542 248.693 95.1364 250.411L95.1378 250.412C92.415 253.964 89.703 257.527 86.9847 261.098L86.9751 261.111L81.6219 268.096C79.3061 271.117 76.9928 274.141 74.6818 277.167C74.7598 277.162 74.8388 277.16 74.9187 277.156H74.9337L79.0726 276.927C81.2458 276.793 81.2578 276.792 83.4989 276.655H83.514L88.0964 276.385C91.287 276.195 94.4775 276.001 97.6679 275.803H97.672C102.594 275.5 107.514 275.219 112.421 274.942C115.515 274.755 118.609 274.566 121.703 274.376H121.719L121.736 274.375C123.194 274.294 124.651 274.213 126.152 274.13L130.277 273.862L130.29 273.86H130.302C130.526 273.847 130.751 273.833 130.976 273.819C129.594 272.149 128.21 270.48 126.83 268.81C125.947 267.742 125.063 266.673 124.153 265.573L124.147 265.565C117.691 257.732 111.371 249.785 105.242 241.654L104.156 240.27C103.938 239.998 103.716 239.728 103.493 239.456C103.289 239.731 103.042 240.063 102.74 240.473Z" fill="url(#paint2_linear_2369_349)"/>
<path d="M445.129 178.14L188.852 296.765L374.683 428.749L445.129 178.14Z" fill="url(#paint3_linear_2369_349)" fill-opacity="0.2"/>
<defs>
<linearGradient id="paint0_linear_2369_349" x1="316.99" y1="228.342" x2="316.99" y2="478.951" gradientUnits="userSpaceOnUse">
<stop stop-color="#151515"/>
<stop offset="1" stop-color="#151515" stop-opacity="0"/>
</linearGradient>
<linearGradient id="paint1_linear_2369_349" x1="468.337" y1="66.0559" x2="348.881" y2="506.697" gradientUnits="userSpaceOnUse">
<stop stop-color="#151515"/>
<stop offset="0.5" stop-color="#222222" stop-opacity="0"/>
<stop offset="0.75" stop-color="#151515"/>
<stop offset="0.875" stop-color="#222222"/>
<stop offset="1" stop-color="#151515"/>
</linearGradient>
<linearGradient id="paint2_linear_2369_349" x1="470.424" y1="61.8017" x2="347.765" y2="512.002" gradientUnits="userSpaceOnUse">
<stop stop-color="#151515"/>
<stop offset="0.5" stop-color="#222222" stop-opacity="0"/>
<stop offset="0.75" stop-color="#151515"/>
<stop offset="0.875" stop-color="#222222"/>
<stop offset="1" stop-color="#151515"/>
</linearGradient>
<linearGradient id="paint3_linear_2369_349" x1="316.99" y1="178.14" x2="316.99" y2="428.749" gradientUnits="userSpaceOnUse">
<stop stop-color="#151515"/>
<stop offset="1" stop-color="#151515" stop-opacity="0"/>
</linearGradient>
</defs>
</svg>
